<?xml version="1.0" encoding="UTF-8" standalone="no"?>
<!-- Created with Inkscape (http://www.inkscape.org/) -->

<svg
   xmlns:dc="http://purl.org/dc/elements/1.1/"
   xmlns:cc="http://creativecommons.org/ns#"
   xmlns:rdf="http://www.w3.org/1999/02/22-rdf-syntax-ns#"
   xmlns:svg="http://www.w3.org/2000/svg"
   xmlns="http://www.w3.org/2000/svg"
   xmlns:xlink="http://www.w3.org/1999/xlink"
   xmlns:sodipodi="http://sodipodi.sourceforge.net/DTD/sodipodi-0.dtd"
   xmlns:inkscape="http://www.inkscape.org/namespaces/inkscape"
   id="svg2"
   version="1.1"
   inkscape:version="0.91 r13725"
   xml:space="preserve"
   width="138.895"
   height="144.23"
   viewBox="0 0 138.895 144.23"
   sodipodi:docname="box.svg"><metadata
     id="metadata8"><rdf:RDF><cc:Work
         rdf:about=""><dc:format>image/svg+xml</dc:format><dc:type
           rdf:resource="http://purl.org/dc/dcmitype/StillImage" /><dc:title></dc:title></cc:Work></rdf:RDF></metadata>
           
		   
		   
		   
		   <sodipodi:namedview
     pagecolor="#ffffff"
     bordercolor="#666666"
     borderopacity="1"
     objecttolerance="10"
     gridtolerance="10"
     guidetolerance="10"
     inkscape:pageopacity="0"
     inkscape:pageshadow="2"
     inkscape:window-width="1366"
     inkscape:window-height="705"
     id="namedview4"
     showgrid="false"
     inkscape:zoom="2.3140429"
     inkscape:cx="99.438987"
     inkscape:cy="61.09786"
     inkscape:window-x="-8"
     inkscape:window-y="-8"
     inkscape:window-maximized="1"
     inkscape:current-layer="g10" /><g
     id="g10"
     inkscape:groupmode="layer"
     inkscape:label="Векторный смарт-объект3"
     transform="matrix(1.25,0,0,-1.25,0,144.23)"><path
       style="fill:none;fill-rule:evenodd;stroke:url(#linearGradient4492);stroke-width:6.4000001;stroke-linecap:butt;stroke-linejoin:miter;stroke-miterlimit:4;stroke-dasharray:none;stroke-opacity:1"
       d="M 91.700977,17.545057 87.725251,8.0378802 78.218082,34.225816 104.23316,25.150792 92.738128,19.273633 99.998145,12.70504 110.02389,2.592872"
       id="path4234"
       inkscape:connector-curvature="0"
       sodipodi:nodetypes="ccccccc"
       mask="url(#mask4376)" /><path
       style="fill:none;fill-rule:evenodd;stroke:url(#linearGradient4490);stroke-width:6.64;stroke-linecap:butt;stroke-linejoin:miter;stroke-opacity:1;stroke-miterlimit:4;stroke-dasharray:none"
       d="m 36.913101,38.135392 0.06111,-6.722584 1.344517,-2.750152 2.322347,-1.2834 18.334321,-0.122224"
       id="path4232"
       inkscape:connector-curvature="0"
       mask="url(#mask4362)" /><path
       style="fill:none;fill-rule:evenodd;stroke:url(#linearGradient4488);stroke-width:6.80000019;stroke-linecap:butt;stroke-linejoin:miter;stroke-miterlimit:4;stroke-dasharray:none;stroke-opacity:1"
       d="m 36.991535,92.910986 0.172858,-6.482162 1.253217,-4.062154 26.274361,0.04321 2.376794,3.759654 0.08643,6.914305"
       id="path4230"
       inkscape:connector-curvature="0"
       sodipodi:nodetypes="cccccc"
       mask="url(#mask4348)" /><path
       style="fill:none;fill-rule:evenodd;stroke:url(#linearGradient4486);stroke-width:6.55999994;stroke-linecap:butt;stroke-linejoin:miter;stroke-miterlimit:4;stroke-dasharray:none;stroke-opacity:1"
       d="M 5.7753113,57.539216 98.358389,57.662344"
       id="path4228"
       inkscape:connector-curvature="0"
       sodipodi:nodetypes="cc"
       mask="url(#mask4404)" /><path
       style="fill:none;fill-rule:evenodd;stroke:url(#linearGradient4484);stroke-width:7.36000013;stroke-linecap:butt;stroke-linejoin:miter;stroke-miterlimit:4;stroke-dasharray:none;stroke-opacity:1"
       d="m 101.88205,33.088213 -0.0568,79.478377 -99.6251714,0.28641 -1e-7,-109.9195024 77.7375235,-1.6e-6"
       id="path4226"
       inkscape:connector-curvature="0"
       sodipodi:nodetypes="ccccc"
       mask="url(#mask4390)" /></g>
	   
	   <defs
     id="defs6"><linearGradient
       x1="0"
       y1="0"
       x2="1"
       y2="0"
       gradientUnits="userSpaceOnUse"
       gradientTransform="matrix(-24.85889,43.056854,43.056854,24.85889,106.58008,0.7080078)"
       spreadMethod="pad"
       id="linearGradient24"><stop
         style="stop-opacity:1;stop-color:#f4d0c9"
         offset="0"
         id="stop26" /><stop
         style="stop-opacity:1;stop-color:#deceb2"
         offset="0.526501"
         id="stop28" /><stop
         style="stop-opacity:1;stop-color:#f4d0c9"
         offset="1"
         id="stop30" /></linearGradient><linearGradient
       x1="0"
       y1="0"
       x2="1"
       y2="0"
       gradientUnits="userSpaceOnUse"
       gradientTransform="matrix(-12.855959,22.26717,22.26717,12.855959,58.767578,76.085449)"
       spreadMethod="pad"
       id="linearGradient46"><stop
         style="stop-opacity:1;stop-color:#f4d0c9"
         offset="0"
         id="stop48" /><stop
         style="stop-opacity:1;stop-color:#deceb2"
         offset="0.526501"
         id="stop50" /><stop
         style="stop-opacity:1;stop-color:#f4d0c9"
         offset="1"
         id="stop52" /></linearGradient><linearGradient
       x1="0"
       y1="0"
       x2="1"
       y2="0"
       gradientUnits="userSpaceOnUse"
       gradientTransform="matrix(-10.886231,18.855503,18.855503,10.886231,50.909668,21.295898)"
       spreadMethod="pad"
       id="linearGradient68"><stop
         style="stop-opacity:1;stop-color:#f4d0c9"
         offset="0"
         id="stop70" /><stop
         style="stop-opacity:1;stop-color:#deceb2"
         offset="0.526501"
         id="stop72" /><stop
         style="stop-opacity:1;stop-color:#f4d0c9"
         offset="1"
         id="stop74" /></linearGradient><linearGradient
       x1="0"
       y1="0"
       x2="1"
       y2="0"
       gradientUnits="userSpaceOnUse"
       gradientTransform="matrix(-68.141121,118.02386,118.02386,68.141121,83.339844,3.4492188)"
       spreadMethod="pad"
       id="linearGradient90"><stop
         style="stop-opacity:1;stop-color:#f4d0c9"
         offset="0"
         id="stop92" /><stop
         style="stop-opacity:1;stop-color:#deceb2"
         offset="0.526501"
         id="stop94" /><stop
         style="stop-opacity:1;stop-color:#f4d0c9"
         offset="1"
         id="stop96" /></linearGradient><linearGradient
       inkscape:collect="always"
       xlink:href="#linearGradient46"
       id="linearGradient4360"
       gradientUnits="userSpaceOnUse"
       gradientTransform="matrix(-12.855959,22.26717,22.26717,12.855959,58.767578,76.085449)"
       spreadMethod="pad"
       x1="0"
       y1="0"
       x2="1"
       y2="0" /><mask
       maskUnits="userSpaceOnUse"
       id="mask4348"><g
         id="g4350"><g
           id="g4352"><g
             id="g4354"><g
               id="g4356"><path
                 d="m 64.251,89.817 0,-2.835 c 0,-1.011 -0.823,-1.835 -1.835,-1.835 l 0,0 -20.786,0 c -1.012,0 -1.835,0.824 -1.835,1.835 l 0,0 0,2.835 c 0,1.593 -1.297,2.89 -2.89,2.89 l 0,0 c -1.593,0 -2.889,-1.297 -2.889,-2.89 l 0,0 0,-2.835 c 0,-4.198 3.415,-7.614 7.614,-7.614 l 0,0 20.786,0 c 4.199,0 7.615,3.416 7.615,7.614 l 0,0 0,2.835 c 0,1.593 -1.296,2.89 -2.89,2.89 l 0,0 c -1.594,0 -2.89,-1.297 -2.89,-2.89"
                 style="fill:url(#linearGradient4360);stroke:none"
                 id="path4358"
                 inkscape:connector-curvature="0" /></g></g></g></g></mask><linearGradient
       inkscape:collect="always"
       xlink:href="#linearGradient68"
       id="linearGradient4374"
       gradientUnits="userSpaceOnUse"
       gradientTransform="matrix(-10.886231,18.855503,18.855503,10.886231,50.909668,21.295898)"
       spreadMethod="pad"
       x1="0"
       y1="0"
       x2="1"
       y2="0" /><mask
       maskUnits="userSpaceOnUse"
       id="mask4362"><g
         id="g4364"><g
           id="g4366"><g
             id="g4368"><g
               id="g4370"><path
                 d="m 34.016,35.014 0,-2.834 c 0,-4.199 3.415,-7.614 7.614,-7.614 l 0,0 14.172,0 c 1.594,0 2.891,1.296 2.891,2.89 l 0,0 c 0,1.594 -1.297,2.889 -2.891,2.889 l 0,0 -14.172,0 c -1.012,0 -1.835,0.823 -1.835,1.835 l 0,0 0,2.834 c 0,1.594 -1.297,2.89 -2.89,2.89 l 0,0 c -1.593,0 -2.889,-1.296 -2.889,-2.89"
                 style="fill:url(#linearGradient4374);stroke:none"
                 id="path4372"
                 inkscape:connector-curvature="0" /></g></g></g></g></mask><linearGradient
       inkscape:collect="always"
       xlink:href="#linearGradient24"
       id="linearGradient4388"
       gradientUnits="userSpaceOnUse"
       gradientTransform="matrix(-24.85889,43.056854,43.056854,24.85889,106.58008,0.7080078)"
       spreadMethod="pad"
       x1="0"
       y1="0"
       x2="1"
       y2="0" /><mask
       maskUnits="userSpaceOnUse"
       id="mask4376"><g
         id="g4378"><g
           id="g4380"><g
             id="g4382"><g
               id="g4384"><path
                 d="m 87.41,1.527 6.537,13.072 11.869,-11.867 c 1.069,-1.074 2.909,-1.13 4.099,-0.001 l 0,0 c 1.128,1.129 1.128,2.967 -0.001,4.097 l 0,0 -11.87,11.869 13.072,6.536 L 73.579,39.064 87.41,1.527 Z m -4.049,27.775 13.237,-4.876 -5.579,-2.782 -2.783,-5.579 -4.875,13.237 z"
                 style="fill:url(#linearGradient4388);stroke:none"
                 id="path4386"
                 inkscape:connector-curvature="0" /></g></g></g></g></mask><linearGradient
       inkscape:collect="always"
       xlink:href="#linearGradient90"
       id="linearGradient4402"
       gradientUnits="userSpaceOnUse"
       gradientTransform="matrix(-68.141121,118.02386,118.02386,68.141121,83.339844,3.4492188)"
       spreadMethod="pad"
       x1="0"
       y1="0"
       x2="1"
       y2="0" /><mask
       maskUnits="userSpaceOnUse"
       id="mask4390"><g
         id="g4392"><g
           id="g4394"><g
             id="g4396"><g
               id="g4398"><path
                 d="M 6.348,115.384 C 2.848,115.384 0,112.536 0,109.035 l 0,0 L 0,6.348 C 0,2.848 2.848,0 6.348,0 l 0,0 70.242,0 c 1.594,0 2.89,1.296 2.89,2.89 l 0,0 c 0,1.594 -1.296,2.889 -2.89,2.889 l 0,0 -70.242,0 c -0.319,0 -0.568,0.25 -0.568,0.569 l 0,0 0,48.454 92.486,0 0,-17.898 c 0,-1.593 1.297,-2.889 2.89,-2.889 l 0,0 c 1.594,0 2.89,1.296 2.89,2.889 l 0,0 0,72.131 c 0,3.501 -2.848,6.349 -6.348,6.349 l 0,0 -91.35,0 z M 5.78,109.035 c 0,0.32 0.249,0.57 0.568,0.57 l 0,0 91.35,0 c 0.317,0 0.568,-0.25 0.568,-0.57 l 0,0 0,-48.454 -92.486,0 0,48.454 z"
                 style="fill:url(#linearGradient4402);stroke:none"
                 id="path4400"
                 inkscape:connector-curvature="0" /></g></g></g></g></mask><linearGradient
       inkscape:collect="always"
       xlink:href="#linearGradient90"
       id="linearGradient4416"
       gradientUnits="userSpaceOnUse"
       gradientTransform="matrix(-68.141121,118.02386,118.02386,68.141121,83.339844,3.4492188)"
       spreadMethod="pad"
       x1="0"
       y1="0"
       x2="1"
       y2="0" /><mask
       maskUnits="userSpaceOnUse"
       id="mask4404"><g
         id="g4406"><g
           id="g4408"><g
             id="g4410"><g
               id="g4412"><path
                 d="M 6.348,115.384 C 2.848,115.384 0,112.536 0,109.035 l 0,0 L 0,6.348 C 0,2.848 2.848,0 6.348,0 l 0,0 70.242,0 c 1.594,0 2.89,1.296 2.89,2.89 l 0,0 c 0,1.594 -1.296,2.889 -2.89,2.889 l 0,0 -70.242,0 c -0.319,0 -0.568,0.25 -0.568,0.569 l 0,0 0,48.454 92.486,0 0,-17.898 c 0,-1.593 1.297,-2.889 2.89,-2.889 l 0,0 c 1.594,0 2.89,1.296 2.89,2.889 l 0,0 0,72.131 c 0,3.501 -2.848,6.349 -6.348,6.349 l 0,0 -91.35,0 z M 5.78,109.035 c 0,0.32 0.249,0.57 0.568,0.57 l 0,0 91.35,0 c 0.317,0 0.568,-0.25 0.568,-0.57 l 0,0 0,-48.454 -92.486,0 0,48.454 z"
                 style="fill:url(#linearGradient4416);stroke:none"
                 id="path4414"
                 inkscape:connector-curvature="0" /></g></g></g></g></mask><linearGradient
       inkscape:collect="always"
       xlink:href="#linearGradient90"
       id="linearGradient4484"
       x1="10.682558"
       y1="116.49917"
       x2="104.05479"
       y2="-0.6983102"
       gradientUnits="userSpaceOnUse" /><linearGradient
       inkscape:collect="always"
       xlink:href="#linearGradient90"
       id="linearGradient4486"
       x1="10.682558"
       y1="116.49917"
       x2="104.05479"
       y2="-0.6983102"
       gradientUnits="userSpaceOnUse" /><linearGradient
       inkscape:collect="always"
       xlink:href="#linearGradient90"
       id="linearGradient4488"
       x1="10.682558"
       y1="116.49917"
       x2="104.05479"
       y2="-0.6983102"
       gradientUnits="userSpaceOnUse" /><linearGradient
       inkscape:collect="always"
       xlink:href="#linearGradient90"
       id="linearGradient4490"
       x1="10.682558"
       y1="116.49917"
       x2="104.05479"
       y2="-0.6983102"
       gradientUnits="userSpaceOnUse" /><linearGradient
       inkscape:collect="always"
       xlink:href="#linearGradient90"
       id="linearGradient4492"
       x1="10.682558"
       y1="116.49917"
       x2="104.05479"
       y2="-0.6983102"
       gradientUnits="userSpaceOnUse" /></defs>
	   
	   
	   </svg>