<?xml version="1.0" encoding="utf-8"?>
<!-- Generator: Adobe Illustrator 17.1.0, SVG Export Plug-In . SVG Version: 6.00 Build 0)  -->
<!DOCTYPE svg PUBLIC "-//W3C//DTD SVG 1.1//EN" "http://www.w3.org/Graphics/SVG/1.1/DTD/svg11.dtd">
<svg version="1.1" id="Layer_1" xmlns="http://www.w3.org/2000/svg" xmlns:xlink="http://www.w3.org/1999/xlink" x="0px" y="0px"
	 viewBox="0 0 110 110" enable-background="new 0 0 110 110" xml:space="preserve">
<path fill="#FFFFFF" d="M109.502,107.068c-0.194-1.145-0.886-2.591-1.881-3.986L64.436,44.175c-1.772-2.48-5.382-5.226-7.862-6.644
	l-2.324-1.219c-1.24,6.332-4.582,12.012-9.635,16.055c-2.133,1.492-4.475,2.64-6.866,3.543l0.109,0.333
	c1.418,2.48,4.273,6.091,6.754,7.862l58.463,43.516c2.481,1.771,4.915,2.501,5.982,1.438c0.266-0.266,0.386-0.577,0.443-0.995
	c0.042-0.315,0.063-0.616,0-0.995H109.502z M46.952,33.888c-0.478-6.902-5.69-12.713-12.512-13.953h-0.666
	C21.373,18.163,10.701,10.722,4.319,0.447C2.548,3.99,1.485,7.841,0.776,11.743c-2.48,18.07,9.942,35.121,28.013,38.313h1.109
	c8.149,1.063,15.877-4.915,16.94-13.067c0.135-1.017,0.181-2.115,0.109-3.101H46.952z"/>
</svg>
