<?xml version="1.0" encoding="utf-8"?>
<!-- Generator: Adobe Illustrator 17.1.0, SVG Export Plug-In . SVG Version: 6.00 Build 0)  -->
<!DOCTYPE svg PUBLIC "-//W3C//DTD SVG 1.1//EN" "http://www.w3.org/Graphics/SVG/1.1/DTD/svg11.dtd">
<svg version="1.1" id="Layer_1" xmlns="http://www.w3.org/2000/svg" xmlns:xlink="http://www.w3.org/1999/xlink" x="0px" y="0px"
	 viewBox="0 0 64 64" enable-background="new 0 0 64 64" xml:space="preserve">
<path fill="#B3A280" d="M63.197,63.198c-1.07,1.07-2.805,1.07-3.875,0L0.802,4.677c-1.07-1.07-1.07-2.805,0-3.875l0,0
	c1.07-1.07,2.805-1.07,3.875,0l58.52,58.52C64.268,60.393,64.268,62.128,63.197,63.198L63.197,63.198z"/>
<path fill="#B3A280" d="M0.803,63.198c1.07,1.07,2.805,1.07,3.875,0l58.52-58.52c1.07-1.07,1.07-2.805,0-3.875l0,0
	c-1.07-1.07-2.805-1.07-3.875,0l-58.52,58.52C-0.267,60.393-0.267,62.128,0.803,63.198L0.803,63.198z"/>
</svg>
