<?xml version="1.0" encoding="utf-8"?>
<!-- Generator: Adobe Illustrator 17.1.0, SVG Export Plug-In . SVG Version: 6.00 Build 0)  -->
<!DOCTYPE svg PUBLIC "-//W3C//DTD SVG 1.1//EN" "http://www.w3.org/Graphics/SVG/1.1/DTD/svg11.dtd">
<svg version="1.1" id="Layer_1" xmlns="http://www.w3.org/2000/svg" xmlns:xlink="http://www.w3.org/1999/xlink" x="0px" y="0px"
	 viewBox="0 0 64 64" enable-background="new 0 0 64 64" xml:space="preserve">
<g>
	<path fill="#B4A381" d="M37.005,20.31c0.882,0,1.729-0.358,2.362-0.978c0.617-0.621,0.98-1.479,0.98-2.364
		c0-0.883-0.363-1.741-0.98-2.361c-0.619-0.621-1.48-0.978-2.362-0.978c-0.882,0-1.739,0.357-2.364,0.978
		c-0.619,0.62-0.977,1.479-0.977,2.361c0,0.884,0.358,1.743,0.977,2.364C35.266,19.952,36.122,20.31,37.005,20.31z"/>
	<path fill="#B4A381" d="M23.354,33.378c1.24-1.24,5.214-4.439,8.638-4.439c0.167,0,0.311,0.013,0.421,0.013
		c-0.421,1.465-2.924,4.807-4.479,6.885c-3.53,4.714-6.322,8.437-4.95,11.17c0.441,0.893,1.504,1.97,4.009,1.97
		c5.738,0,11.157-5.36,11.385-5.586c0.764-0.751,0.764-1.992,0-2.746c-0.751-0.763-1.98-0.763-2.745-0.011
		c-1.242,1.243-5.216,4.44-8.639,4.44c-0.168,0-0.31,0-0.418-0.013c0.406-1.468,2.923-4.809,4.477-6.885
		c3.533-4.714,6.323-8.425,4.95-11.17c-0.44-0.895-1.504-1.97-4.009-1.97c-5.738,0-11.156,5.358-11.396,5.585
		c-0.753,0.764-0.753,1.992,0,2.758C21.36,34.13,22.591,34.13,23.354,33.378z"/>
	<path fill="#B4A381" d="M31.993,64c17.65,0,32.005-14.357,32.005-32.006C63.998,14.356,49.644,0,31.993,0
		C14.344,0,0.002,14.356,0.002,31.994C0.002,49.643,14.344,64,31.993,64z M31.993,3.89c15.501,0,28.102,12.616,28.102,28.104
		c0,15.5-12.601,28.116-28.102,28.116c-15.489,0-28.102-12.616-28.102-28.116C3.891,16.506,16.505,3.89,31.993,3.89z"/>
</g>
</svg>
