<?xml version="1.0" encoding="utf-8"?>
<!-- Generator: Adobe Illustrator 17.1.0, SVG Export Plug-In . SVG Version: 6.00 Build 0)  -->
<!DOCTYPE svg PUBLIC "-//W3C//DTD SVG 1.1//EN" "http://www.w3.org/Graphics/SVG/1.1/DTD/svg11.dtd">
<svg version="1.1" id="Layer_1" xmlns="http://www.w3.org/2000/svg" xmlns:xlink="http://www.w3.org/1999/xlink" x="0px" y="0px"
	 viewBox="0 0 293 56" enable-background="new 0 0 293 56" xml:space="preserve">
<g>
	<path fill="#FFFFFF" d="M88.748,13.218c-1.205-0.713-2.766-0.607-2.766-0.607h-2.306l1.719,3.291l-12.53,23.546h5.456l0.52-0.891
		c1.878-1.608,6.76-3.113,13.677-3.06h3.134l2.07,3.951h5.71L90.891,15.661C90.891,15.661,89.953,13.93,88.748,13.218
		 M92.468,30.738c-5.406,0-8.239,0.622-10.348,1.769l5.953-11.492l5.103,9.723H92.468z"/>
	<polygon fill="#FFFFFF" points="146.205,18.433 155.702,18.433 155.702,39.447 160.907,39.447 160.907,18.433 166.456,18.433 
		170.759,18.433 170.759,16.096 170.759,13.218 146.205,13.218 	"/>
	<path fill="#FFFFFF" d="M192.765,34.992c-5.001,0-9.064-2.734-9.064-8.659c0-5.925,3.962-8.709,9.013-8.709
		c2.475,0,5.051,0.71,7.023,2.076l3.487-4.051c-2.881-2.177-6.67-3.292-10.51-3.292c-7.831,0-14.52,4.963-14.52,13.874
		c0,8.86,6.537,14.026,14.47,14.026c3.991,0,7.88-1.265,10.762-3.748l-3.033-4.355C198.374,33.979,195.493,34.992,192.765,34.992"/>
	<path fill="#FFFFFF" d="M225.665,12.323c-7.775,0-14.543,4.963-14.543,13.874c0,8.86,6.617,14.026,14.493,14.026
		s14.592-5.266,14.592-14.178C240.207,16.931,233.492,12.323,225.665,12.323 M225.715,34.908c-4.966,0-9.173-2.683-9.173-8.609
		c0-5.925,4.107-8.608,9.123-8.608c4.916,0,9.127,2.532,9.127,8.406C234.792,31.767,230.631,34.908,225.715,34.908"/>
	<rect x="250.262" y="13.218" fill="#FFFFFF" width="5.153" height="26.228"/>
	<path fill="#FFFFFF" d="M287.525,13.218v18.23c0,0-12.406-14.224-13.223-15.242c-1.093-1.361-1.496-1.72-2.619-2.37
		c-1.074-0.621-3.892-0.618-3.892-0.618h-2.597l2.576,3.901v22.329h5.203V22.383l14.552,17.064h5.202V13.218H287.525z"/>
	<path fill="#FFFFFF" d="M131.796,31.498l-1.132-1.792l0.001,0.398c-0.129,0,0.003-0.003,0-0.001c0,0,5.731-2.173,5.731-8.562
		c0-4.28-3.154-8.324-7.955-8.324h-16.874v26.23h5.304v-7.876c2.013-1.056,3.122-1.475,6.727-1.515
		c0.171-0.002,0.674,0.045,0.856,0.045l3.653,5.195c2.424,3.947,6.762,4.151,9.491,4.151l1.11-0.003v-5.12
		C135.429,34.325,133.811,34.608,131.796,31.498 M117.263,26.165c-0.132,0.064-0.265,0.122-0.392,0.192v-7.923h10.662
		c1.817,0,3.727,0.739,3.727,3.363c0,1.967-1.551,3.041-2.819,3.041h-4.105h-0.138C121.64,24.838,119.221,25.201,117.263,26.165"/>
</g>
<g>
	<path fill="#FFFFFF" d="M21.875,32.778c2.11-1.148,4.943-1.769,10.348-1.769h0.708l-5.103-9.722L21.875,32.778z"/>
	<path fill="#FFFFFF" d="M27.815,0.35c-15.425,0-27.922,12.534-27.922,27.989c0,15.457,12.498,27.984,27.922,27.984
		c15.422,0,27.924-12.527,27.924-27.984C55.74,12.884,43.238,0.35,27.815,0.35z M37.478,39.718l-2.071-3.95h-3.134
		c-6.917-0.054-11.799,1.452-13.677,3.059l-0.52,0.891H12.62l12.53-23.545l-1.719-3.291h2.306c0,0,1.561-0.106,2.766,0.608
		c1.206,0.712,2.143,2.442,2.143,2.442l12.541,23.786H37.478z"/>
</g>
</svg>
