<?xml version="1.0" encoding="utf-8"?>
<!DOCTYPE svg PUBLIC "-//W3C//DTD SVG 1.1//EN" "http://www.w3.org/Graphics/SVG/1.1/DTD/svg11.dtd">
<svg version="1.1" id="Layer_1" xmlns="http://www.w3.org/2000/svg" xmlns:xlink="http://www.w3.org/1999/xlink" x="0px" y="0px"
	 viewBox="0 0 181 38" xml:space="preserve">

		 <path fill="#FFFFFF" d="M37.35,18.792c0,10.293-8.344,18.638-18.637,18.638c-10.294,0-18.637-8.345-18.637-18.638
			S8.419,0.155,18.713,0.155C29.006,0.155,37.35,8.499,37.35,18.792"/>
		 <polygon fill="#373334" points="16.835,6.195 22.294,6.195 28.468,28.672 22.652,28.672 "/>
		 <path fill="#373334" d="M19.14,19.333c0,0-3.666-0.015-4.008,0c-0.342,0.015-1.661,0.207-2.582,0.831
			c-0.92,0.623-1.727,1.743-2.017,2.7c-0.234,0.773-0.911,3.71-1.523,5.587c-0.029,0.085-0.063,0.117-0.048,0.158
			c0.023,0.072,0.177,0.062,0.383,0.062c0.4,0,1.856,0.021,2.396-0.057c0.572-0.081,1.818-0.261,2.857-1.981
			c1.039-1.721,1.305-3.68,1.691-4.392c0.388-0.712,0.987-1.773,2.152-2.285c0,0,0.446-0.23,0.714-0.319
			c0.266-0.089,0.287-0.126,0.287-0.185C19.443,19.354,19.332,19.333,19.14,19.333"/>
		 <path fill="#FFFFFF" d="M59.255,11.279c-0.708-0.418-1.625-0.356-1.625-0.356h-1.357l1.011,1.93l-7.367,13.811h3.208l0.306-0.522
			c1.104-0.942,3.975-1.826,8.041-1.794h1.842l1.217,2.316h3.357l-7.372-13.952C60.516,12.712,59.964,11.697,59.255,11.279
			 M61.443,21.556c-3.178,0-4.844,0.364-6.084,1.039l3.5-6.742l2.999,5.703H61.443z"/>
		 <polygon fill="#FFFFFF" points="93.032,14.338 98.616,14.338 98.616,26.665 101.675,26.665 101.675,14.338 104.937,14.338
			107.466,14.338 107.466,12.967 107.466,11.279 93.032,11.279 "/>
		 <path fill="#FFFFFF" d="M120.88,24.051c-2.939,0-5.881-1.604-5.881-5.08c0-3.475,2.883-5.108,5.852-5.108
			c1.456,0,2.971,0.416,4.128,1.218l2.051-2.376c-1.692-1.278-3.92-1.931-6.179-1.931c-4.604,0-9.088,2.911-9.088,8.138
			c0,5.197,4.395,8.227,9.059,8.227c2.347,0,4.633-0.74,6.328-2.197l-1.783-2.554C124.179,23.456,122.486,24.051,120.88,24.051"/>
		 <path fill="#FFFFFF" d="M140.785,10.774c-4.604,0-9.09,2.911-9.09,8.138c0,5.197,4.396,8.227,9.061,8.227
			c4.662,0,9.117-3.088,9.117-8.316C149.873,13.478,145.417,10.774,140.785,10.774 M140.814,24.022c-2.939,0-5.91-1.575-5.91-5.05
			c0-3.475,2.91-5.049,5.881-5.049c2.91,0,5.881,1.485,5.881,4.931C146.665,22.18,143.724,24.022,140.814,24.022"/>
		 <rect x="155.639" y="11.28" fill="#FFFFFF" width="3.027" height="15.385"/>
		 <path fill="#FFFFFF" d="M178.023,11.279v10.692c0,0-7.295-8.342-7.774-8.941c-0.642-0.797-0.879-1.008-1.539-1.389
			c-0.632-0.364-2.288-0.362-2.288-0.362h-1.527l1.515,2.287v13.098h3.06V16.655l8.555,10.009h3.059V11.279H178.023z"/>
		 <path fill="#FFFFFF" d="M84.562,22.002l-0.665-1.051v0.233c-0.075,0,0.001-0.001,0,0c0,0,3.37-1.276,3.37-5.022
			c0-2.511-1.855-4.883-4.677-4.883h-9.921v15.386h3.119v-4.62c1.184-0.619,1.836-0.865,3.955-0.888
			c0.1-0.002,0.396,0.026,0.504,0.026l2.146,3.047c1.425,2.315,3.976,2.435,5.58,2.435l0.651-0.002V23.66
			C86.697,23.66,85.748,23.826,84.562,22.002 M76.019,18.874c-0.077,0.037-0.156,0.071-0.23,0.112v-4.648h6.267
			c1.069,0,2.192,0.435,2.192,1.974c0,1.154-0.912,1.783-1.657,1.783h-2.413h-0.082C78.591,18.095,77.169,18.309,76.019,18.874"/>


</svg>
