<?xml version="1.0" encoding="utf-8"?>
<!-- Generator: Adobe Illustrator 17.1.0, SVG Export Plug-In . SVG Version: 6.00 Build 0)  -->
<!DOCTYPE svg PUBLIC "-//W3C//DTD SVG 1.1//EN" "http://www.w3.org/Graphics/SVG/1.1/DTD/svg11.dtd">
<svg version="1.1" id="Layer_1" xmlns="http://www.w3.org/2000/svg" xmlns:xlink="http://www.w3.org/1999/xlink" x="0px" y="0px"
	 viewBox="0 0 220 112" enable-background="new 0 0 220 112" xml:space="preserve">
<g>
	<g>
		<path fill="#010101" d="M15.924,84.512c-1.203-0.71-2.763-0.606-2.763-0.606h-2.304l1.718,3.282L0.054,110.662h5.452l0.519-0.888
			c1.877-1.602,6.754-3.104,13.665-3.05h3.13l2.069,3.938h5.705L18.066,86.947C18.066,86.947,17.129,85.222,15.924,84.512
			 M19.641,101.979c-5.401,0-8.231,0.619-10.339,1.765l5.947-11.457l5.099,9.693H19.641z"/>
		<polygon fill="#010101" points="73.331,89.711 82.82,89.711 82.82,110.661 88.021,110.661 88.021,89.711 93.565,89.711 
			97.864,89.711 97.864,87.381 97.864,84.512 73.331,84.512 		"/>
		<path fill="#010101" d="M119.851,106.22c-4.997,0-9.057-2.726-9.057-8.633c0-5.906,3.959-8.683,9.006-8.683
			c2.473,0,5.047,0.708,7.016,2.071l3.485-4.039c-2.878-2.171-6.664-3.282-10.5-3.282c-7.824,0-14.508,4.947-14.508,13.832
			c0,8.833,6.532,13.984,14.458,13.984c3.987,0,7.873-1.261,10.752-3.736l-3.029-4.341
			C125.455,105.209,122.577,106.22,119.851,106.22"/>
		<path fill="#010101" d="M152.724,83.62c-7.769,0-14.53,4.947-14.53,13.832c0,8.833,6.611,13.984,14.48,13.984
			s14.579-5.249,14.579-14.135C167.253,88.213,160.542,83.62,152.724,83.62 M152.774,106.135c-4.961,0-9.166-2.676-9.166-8.583
			c0-5.906,4.104-8.582,9.116-8.582c4.911,0,9.118,2.525,9.118,8.381C161.842,103.004,157.685,106.135,152.774,106.135"/>
		<rect x="177.299" y="84.512" fill="#010101" width="5.149" height="26.15"/>
		<path fill="#010101" d="M214.529,84.512v18.174c0,0-12.396-14.18-13.212-15.196c-1.092-1.357-1.494-1.715-2.616-2.361
			c-1.075-0.619-3.889-0.616-3.889-0.616h-2.595l2.573,3.888v22.262h5.2V93.65l14.539,17.012h5.199v-26.15H214.529z"/>
		<path fill="#010101" d="M58.935,102.737l-1.131-1.787l0.001,0.397c-0.128,0,0.002-0.002,0-0.001c0,0,5.726-2.167,5.726-8.536
			c0-4.268-3.151-8.298-7.948-8.298h-16.86v26.15h5.301v-7.851c2.011-1.053,3.12-1.47,6.721-1.51
			c0.172-0.002,0.674,0.044,0.856,0.044l3.649,5.18c2.422,3.935,6.757,4.137,9.483,4.137l1.109-0.002v-5.104
			C62.565,105.555,60.949,105.837,58.935,102.737 M44.415,97.42c-0.131,0.063-0.264,0.121-0.391,0.191v-7.899h10.651
			c1.816,0,3.724,0.739,3.724,3.354c0,1.961-1.55,3.031-2.816,3.031h-4.102h-0.138C48.788,96.097,46.371,96.459,44.415,97.42"/>
	</g>
</g>
<path fill="#010101" d="M137.138,27.995c0,15.411-12.491,27.899-27.9,27.899c-15.411,0-27.898-12.488-27.898-27.899
	c0-15.409,12.487-27.904,27.898-27.904C124.648,0.092,137.138,12.587,137.138,27.995"/>
<path fill="#FFFFFF" d="M109.925,13.191c-1.203-0.71-2.763-0.606-2.763-0.606h-2.304l1.718,3.282L94.056,39.34h5.452l0.519-0.888
	c1.877-1.602,6.754-3.104,13.665-3.05h3.13l2.069,3.937h5.705l-12.529-23.714C112.068,15.626,111.13,13.901,109.925,13.191
	 M113.642,30.657c-5.401,0-8.231,0.619-10.339,1.765l5.947-11.457l5.099,9.693H113.642z"/>
</svg>
