<?xml version="1.0" encoding="utf-8"?>
<!-- Generator: Adobe Illustrator 17.1.0, SVG Export Plug-In . SVG Version: 6.00 Build 0)  -->
<!DOCTYPE svg PUBLIC "-//W3C//DTD SVG 1.1//EN" "http://www.w3.org/Graphics/SVG/1.1/DTD/svg11.dtd">
<svg version="1.1" id="Layer_1" xmlns="http://www.w3.org/2000/svg" xmlns:xlink="http://www.w3.org/1999/xlink" x="0px" y="0px"
	 viewBox="0 0 38 38" enable-background="new 0 0 38 38" xml:space="preserve">
<path fill="#373334" d="M38,18.999C38,29.493,29.494,38,19,38C8.505,38,0,29.493,0,18.999S8.505,0,19,0C29.494,0,38,8.506,38,18.999
	"/>
<polygon fill="#E3B8AE" points="17.085,6.158 22.651,6.158 28.945,29.072 23.015,29.072 "/>
<path fill="#E3B8AE" d="M19.435,19.551c0,0-3.737-0.015-4.086,0c-0.348,0.015-1.693,0.211-2.632,0.847
	c-0.938,0.635-1.761,1.777-2.056,2.753c-0.239,0.788-0.929,3.782-1.552,5.696c-0.03,0.087-0.065,0.119-0.049,0.161
	c0.024,0.074,0.18,0.063,0.39,0.063c0.408,0,1.893,0.021,2.442-0.058c0.583-0.083,1.854-0.266,2.913-2.02
	c1.059-1.754,1.33-3.751,1.723-4.477c0.395-0.726,1.007-1.808,2.194-2.33c0,0,0.455-0.234,0.728-0.325
	c0.271-0.091,0.293-0.128,0.293-0.189C19.744,19.572,19.631,19.551,19.435,19.551"/>
</svg>
