<?xml version="1.0" encoding="UTF-8" standalone="no"?>
<!-- Created with Inkscape (http://www.inkscape.org/) -->

<svg
   xmlns:dc="http://purl.org/dc/elements/1.1/"
   xmlns:cc="http://creativecommons.org/ns#"
   xmlns:rdf="http://www.w3.org/1999/02/22-rdf-syntax-ns#"
   xmlns:svg="http://www.w3.org/2000/svg"
   xmlns="http://www.w3.org/2000/svg"
   xmlns:xlink="http://www.w3.org/1999/xlink"
   xmlns:sodipodi="http://sodipodi.sourceforge.net/DTD/sodipodi-0.dtd"
   xmlns:inkscape="http://www.inkscape.org/namespaces/inkscape"
   id="svg2"
   version="1.1"
   inkscape:version="0.91 r13725"
   xml:space="preserve"
   width="84.151627"
   height="124.02038"
   viewBox="0 0 84.151627 124.02038"
   sodipodi:docname="medal.svg"><metadata
     id="metadata8"><rdf:RDF><cc:Work
         rdf:about=""><dc:format>image/svg+xml</dc:format><dc:type
           rdf:resource="http://purl.org/dc/dcmitype/StillImage" /><dc:title></dc:title></cc:Work></rdf:RDF></metadata><defs
     id="defs6"><linearGradient
       x1="0"
       y1="0"
       x2="1"
       y2="0"
       gradientUnits="userSpaceOnUse"
       gradientTransform="matrix(-48.592293,84.164307,84.164307,48.592293,60.474609,8.1025391)"
       spreadMethod="pad"
       id="linearGradient24"><stop
         style="stop-opacity:1;stop-color:#f4d0c9"
         offset="0"
         id="stop26" /><stop
         style="stop-opacity:1;stop-color:#deceb2"
         offset="0.526501"
         id="stop28" /><stop
         style="stop-opacity:1;stop-color:#f4d0c9"
         offset="1"
         id="stop30" /></linearGradient><linearGradient
       x1="0"
       y1="0"
       x2="1"
       y2="0"
       gradientUnits="userSpaceOnUse"
       gradientTransform="matrix(-22.948244,39.74752,39.74752,22.948244,45.057617,45.753418)"
       spreadMethod="pad"
       id="linearGradient46"><stop
         style="stop-opacity:1;stop-color:#f4d0c9"
         offset="0"
         id="stop48" /><stop
         style="stop-opacity:1;stop-color:#deceb2"
         offset="0.526501"
         id="stop50" /><stop
         style="stop-opacity:1;stop-color:#f4d0c9"
         offset="1"
         id="stop52" /></linearGradient><linearGradient
       x1="0"
       y1="0"
       x2="1"
       y2="0"
       gradientUnits="userSpaceOnUse"
       gradientTransform="matrix(-13.90674,24.087177,24.087177,13.90674,41.400391,52.034668)"
       spreadMethod="pad"
       id="linearGradient68"><stop
         style="stop-opacity:1;stop-color:#f4d0c9"
         offset="0"
         id="stop70" /><stop
         style="stop-opacity:1;stop-color:#deceb2"
         offset="0.526501"
         id="stop72" /><stop
         style="stop-opacity:1;stop-color:#f4d0c9"
         offset="1"
         id="stop74" /></linearGradient><linearGradient
       inkscape:collect="always"
       xlink:href="#linearGradient68"
       id="linearGradient4240"
       gradientUnits="userSpaceOnUse"
       gradientTransform="matrix(-13.90674,24.087177,24.087177,13.90674,41.400391,52.034668)"
       spreadMethod="pad"
       x1="0"
       y1="0"
       x2="1"
       y2="0" /><mask
       maskUnits="userSpaceOnUse"
       id="mask4228"><g
         id="g4230"><g
           id="g4232"><g
             id="g4234"><g
               id="g4236"><path
                 d="M 31.847,78.428 C 31.541,78.095 31.323,77.759 31.1,77.389 l 0,0 c -0.444,-0.737 -0.864,-1.604 -1.273,-2.477 l 0,0 c -0.41,-0.873 -0.809,-1.748 -1.135,-2.402 l 0,0 c -0.148,-0.296 -0.268,-0.532 -0.367,-0.697 l 0,0 c -0.188,-0.047 -0.451,-0.1 -0.781,-0.153 l 0,0 C 26.821,71.543 25.87,71.431 24.914,71.3 l 0,0 c -0.958,-0.131 -1.917,-0.273 -2.755,-0.478 l 0,0 C 21.74,70.719 21.357,70.613 20.948,70.421 l 0,0 C 20.539,70.227 19.917,69.987 19.606,69.01 l 0,0 c -0.312,-0.978 0.055,-1.537 0.276,-1.932 l 0,0 c 0.222,-0.393 0.472,-0.706 0.755,-1.031 l 0,0 c 0.565,-0.649 1.267,-1.313 1.972,-1.971 l 0,0 c 0.705,-0.66 1.416,-1.304 1.938,-1.814 l 0,0 c 0.24,-0.234 0.419,-0.429 0.547,-0.574 l 0,0 c -0.015,-0.192 -0.046,-0.454 -0.097,-0.782 l 0,0 c -0.113,-0.721 -0.3,-1.661 -0.471,-2.609 l 0,0 c -0.171,-0.949 -0.33,-1.903 -0.394,-2.762 l 0,0 c -0.033,-0.429 -0.044,-0.824 0.013,-1.273 l 0,0 c 0.059,-0.448 0.1,-1.112 0.934,-1.709 l 0,0 c 0.835,-0.598 1.474,-0.422 1.917,-0.332 l 0,0 c 0.444,0.088 0.815,0.226 1.212,0.394 l 0,0 c 0.794,0.337 1.646,0.793 2.491,1.259 l 0,0 c 0.846,0.467 1.684,0.942 2.332,1.281 l 0,0 c 0.297,0.155 0.535,0.268 0.713,0.346 l 0,0 c 0.179,-0.075 0.416,-0.186 0.713,-0.339 l 0,0 c 0.652,-0.33 1.495,-0.79 2.346,-1.246 l 0,0 c 0.851,-0.455 1.707,-0.906 2.504,-1.232 l 0,0 c 0.4,-0.163 0.774,-0.295 1.219,-0.381 l 0,0 c 0.446,-0.084 1.09,-0.254 1.916,0.353 l 0,0 c 0.828,0.608 0.861,1.275 0.915,1.724 l 0,0 c 0.052,0.448 0.029,0.845 -0.008,1.273 l 0,0 c -0.074,0.858 -0.246,1.807 -0.428,2.754 l 0,0 c -0.184,0.947 -0.377,1.883 -0.498,2.603 l 0,0 c -0.056,0.329 -0.094,0.596 -0.111,0.788 l 0,0 c 0.126,0.145 0.303,0.34 0.539,0.575 l 0,0 c 0.516,0.516 1.22,1.166 1.918,1.834 l 0,0 c 0.697,0.667 1.387,1.343 1.944,2 l 0,0 c 0.278,0.329 0.53,0.648 0.747,1.045 l 0,0 c 0.217,0.396 0.572,0.957 0.25,1.931 l 0,0 c -0.324,0.972 -0.945,1.202 -1.357,1.391 l 0,0 c -0.412,0.187 -0.798,0.289 -1.217,0.386 l 0,0 c -0.841,0.196 -1.797,0.331 -2.755,0.451 l 0,0 c -0.958,0.12 -1.913,0.219 -2.637,0.325 l 0,0 c -0.33,0.049 -0.592,0.096 -0.782,0.138 l 0,0 c -0.101,0.167 -0.229,0.394 -0.381,0.692 l 0,0 c -0.333,0.65 -0.742,1.52 -1.162,2.388 l 0,0 c -0.421,0.868 -0.847,1.731 -1.301,2.464 l 0,0 c -0.228,0.366 -0.45,0.702 -0.761,1.031 l 0,0 c -0.311,0.329 -0.731,0.837 -1.758,0.83 l 0,0 -0.007,0 0,0.007 c -1.027,0 -1.437,-0.525 -1.745,-0.858 M 28.021,57.667 c 0.164,0.914 0.348,1.864 0.478,2.692 l 0,0 c 0.064,0.414 0.12,0.793 0.144,1.162 l 0,0 c 0.026,0.37 0.095,0.664 -0.118,1.302 l 0,0 c -0.211,0.638 -0.442,0.832 -0.684,1.114 l 0,0 c -0.242,0.28 -0.516,0.557 -0.817,0.851 l 0,0 c -0.6,0.587 -1.314,1.241 -1.993,1.875 l 0,0 c -0.363,0.341 -0.604,0.605 -0.914,0.914 l 0,0 c 0.432,0.074 0.781,0.146 1.274,0.214 l 0,0 c 0.921,0.128 1.883,0.249 2.713,0.381 l 0,0 c 0.415,0.067 0.795,0.136 1.156,0.228 l 0,0 c 0.36,0.089 0.661,0.113 1.204,0.512 l 0,0 c 0.542,0.4 0.651,0.674 0.844,0.99 l 0,0 c 0.194,0.316 0.374,0.662 0.561,1.039 l 0,0 c 0.374,0.75 0.775,1.63 1.169,2.47 l 0,0 c 0.211,0.449 0.39,0.759 0.589,1.149 l 0,0 c 0.203,-0.387 0.385,-0.696 0.602,-1.142 l 0,0 c 0.404,-0.836 0.813,-1.71 1.197,-2.458 l 0,0 c 0.192,-0.372 0.37,-0.717 0.567,-1.03 l 0,0 c 0.198,-0.316 0.318,-0.591 0.866,-0.983 l 0,0 c 0.546,-0.391 0.842,-0.413 1.204,-0.497 l 0,0 c 0.361,-0.086 0.747,-0.148 1.163,-0.208 l 0,0 c 0.83,-0.125 1.789,-0.23 2.712,-0.347 l 0,0 c 0.493,-0.06 0.847,-0.133 1.28,-0.201 l 0,0 c -0.305,-0.311 -0.541,-0.584 -0.9,-0.927 l 0,0 c -0.67,-0.643 -1.385,-1.301 -1.979,-1.896 l 0,0 c -0.297,-0.298 -0.558,-0.573 -0.795,-0.859 l 0,0 c -0.238,-0.282 -0.468,-0.48 -0.672,-1.12 l 0,0 C 38.668,62.251 38.74,61.96 38.768,61.591 l 0,0 c 0.03,-0.37 0.089,-0.756 0.159,-1.17 l 0,0 c 0.14,-0.827 0.336,-1.767 0.513,-2.678 l 0,0 c 0.094,-0.487 0.131,-0.849 0.2,-1.28 l 0,0 c -0.392,0.194 -0.725,0.34 -1.162,0.575 l 0,0 c -0.821,0.438 -1.666,0.907 -2.416,1.287 l 0,0 c -0.374,0.187 -0.721,0.352 -1.065,0.49 l 0,0 c -0.345,0.139 -0.601,0.302 -1.274,0.298 l 0,0 c -0.674,0 -0.93,-0.166 -1.274,-0.312 l 0,0 C 32.107,58.66 31.757,58.482 31.384,58.29 l 0,0 C 30.64,57.902 29.804,57.424 28.99,56.975 l 0,0 c -0.437,-0.242 -0.771,-0.39 -1.163,-0.588 l 0,0 c 0.064,0.433 0.105,0.791 0.194,1.28"
                 style="fill:url(#linearGradient4240);stroke:none"
                 id="path4238"
                 inkscape:connector-curvature="0" /></g></g></g></g></mask><linearGradient
       inkscape:collect="always"
       xlink:href="#linearGradient46"
       id="linearGradient4264"
       gradientUnits="userSpaceOnUse"
       gradientTransform="matrix(-22.948244,39.74752,39.74752,22.948244,45.057617,45.753418)"
       spreadMethod="pad"
       x1="0"
       y1="0"
       x2="1"
       y2="0" /><mask
       maskUnits="userSpaceOnUse"
       id="mask4252"><g
         id="g4254"><g
           id="g4256"><g
             id="g4258"><g
               id="g4260"><path
                 d="m 10.63,65.625 c 0,-12.657 10.297,-22.948 22.955,-22.948 l 0,0 c 12.658,0 22.955,10.291 22.955,22.948 l 0,0 c 0,12.657 -10.297,22.955 -22.955,22.955 l 0,0 C 20.927,88.58 10.63,78.282 10.63,65.625 m 3.35,0 c 0,10.849 8.756,19.612 19.605,19.612 l 0,0 c 10.85,0 19.612,-8.763 19.612,-19.612 l 0,0 C 53.197,54.777 44.435,46.02 33.585,46.02 l 0,0 c -10.849,0 -19.606,8.757 -19.605,19.605"
                 style="fill:url(#linearGradient4264);stroke:none"
                 id="path4262"
                 inkscape:connector-curvature="0" /></g></g></g></g></mask><linearGradient
       inkscape:collect="always"
       xlink:href="#linearGradient24"
       id="linearGradient4298"
       gradientUnits="userSpaceOnUse"
       gradientTransform="matrix(-48.592293,84.164307,84.164307,48.592293,60.474609,8.1025391)"
       spreadMethod="pad"
       x1="0"
       y1="0"
       x2="1"
       y2="0" /><mask
       maskUnits="userSpaceOnUse"
       id="mask4286"><g
         id="g4288"><g
           id="g4290"><g
             id="g4292"><g
               id="g4294"><path
                 d="M 38.99,99.216 C 38.62,99.208 38.413,99.1 38.194,99.023 l 0,0 c -0.305,-0.106 -0.579,-0.23 -0.865,-0.374 l 0,0 c -0.572,-0.283 -1.188,-0.64 -1.785,-0.989 l 0,0 c -0.6,-0.347 -1.187,-0.693 -1.627,-0.928 l 0,0 c -0.113,-0.06 -0.168,-0.082 -0.256,-0.123 l 0,0 c -0.088,0.041 -0.149,0.063 -0.263,0.123 l 0,0 c -0.439,0.235 -1.021,0.58 -1.619,0.928 l 0,0 C 31.18,98.006 30.572,98.365 30,98.649 l 0,0 c -0.286,0.142 -0.56,0.27 -0.864,0.374 l 0,0 c -0.153,0.054 -0.298,0.119 -0.499,0.16 l 0,0 c -0.201,0.038 -0.458,0.051 -0.823,-0.014 l 0,0 c -0.732,-0.132 -0.942,-0.391 -1.191,-0.596 l 0,0 c -0.249,-0.205 -0.465,-0.418 -0.685,-0.65 l 0,0 C 25.497,97.458 25.047,96.915 24.602,96.38 l 0,0 c -0.445,-0.535 -0.883,-1.06 -1.217,-1.433 l 0,0 c -0.089,-0.1 -0.139,-0.14 -0.208,-0.215 l 0,0 c -0.096,0 -0.159,-0.001 -0.284,0.035 l 0,0 c -0.491,0.068 -1.154,0.184 -1.834,0.305 l 0,0 c -0.679,0.12 -1.373,0.241 -2.007,0.311 l 0,0 c -0.317,0.036 -0.618,0.067 -0.941,0.062 l 0,0 c -0.323,0 -0.649,0.051 -1.287,-0.325 l 0,0 c -0.639,-0.375 -0.742,-0.685 -0.907,-0.962 l 0,0 c -0.165,-0.276 -0.294,-0.55 -0.422,-0.844 l 0,0 c -0.257,-0.59 -0.503,-1.259 -0.74,-1.917 l 0,0 C 14.517,90.739 14.286,90.1 14.098,89.632 l 0,0 C 14.046,89.505 14.014,89.44 13.973,89.348 l 0,0 c -0.096,-0.035 -0.156,-0.054 -0.285,-0.082 l 0,0 c -0.483,-0.107 -1.154,-0.223 -1.833,-0.347 l 0,0 C 11.175,88.795 10.489,88.664 9.868,88.51 l 0,0 C 9.559,88.434 9.269,88.351 8.969,88.234 l 0,0 c -0.3,-0.117 -0.632,-0.181 -1.1,-0.747 l 0,0 C 7.407,86.925 7.403,86.598 7.343,86.283 l 0,0 C 7.281,85.968 7.253,85.67 7.232,85.349 l 0,0 C 7.189,84.706 7.193,83.993 7.19,83.293 l 0,0 c -0.002,-0.7 -0.007,-1.39 -0.028,-1.896 l 0,0 C 7.157,81.255 7.15,81.177 7.142,81.071 l 0,0 C 7.059,81.014 7.001,80.973 6.886,80.898 l 0,0 C 6.467,80.629 5.884,80.289 5.288,79.936 l 0,0 C 4.69,79.586 4.08,79.223 3.551,78.864 l 0,0 C 3.286,78.683 3.044,78.504 2.803,78.29 l 0,0 C 2.561,78.077 2.274,77.911 2.028,77.224 l 0,0 C 1.782,76.537 1.896,76.234 1.945,75.916 l 0,0 c 0.048,-0.32 0.119,-0.611 0.207,-0.921 l 0,0 c 0.177,-0.618 0.417,-1.293 0.651,-1.951 l 0,0 c 0.235,-0.658 0.465,-1.297 0.616,-1.778 l 0,0 c 0.043,-0.139 0.062,-0.216 0.09,-0.319 l 0,0 C 3.449,70.862 3.408,70.798 3.322,70.684 l 0,0 C 3.018,70.285 2.58,69.762 2.138,69.223 l 0,0 C 1.697,68.686 1.247,68.133 0.872,67.612 l 0,0 C 0.685,67.352 0.52,67.106 0.366,66.822 l 0,0 C 0.213,66.536 0,66.276 0,65.549 l 0,0 C 0,64.822 0.213,64.573 0.366,64.29 l 0,0 C 0.52,64.006 0.685,63.755 0.872,63.494 l 0,0 c 0.375,-0.521 0.825,-1.068 1.266,-1.605 l 0,0 C 2.58,61.35 3.018,60.828 3.322,60.428 l 0,0 c 0.086,-0.114 0.127,-0.171 0.187,-0.256 l 0,0 C 3.481,60.07 3.462,59.985 3.419,59.846 l 0,0 C 3.268,59.366 3.038,58.72 2.803,58.062 l 0,0 C 2.569,57.403 2.329,56.735 2.152,56.116 l 0,0 C 2.064,55.809 1.993,55.515 1.945,55.196 l 0,0 C 1.896,54.877 1.782,54.575 2.028,53.888 l 0,0 c 0.246,-0.687 0.533,-0.852 0.775,-1.066 l 0,0 C 3.044,52.61 3.286,52.429 3.551,52.248 l 0,0 C 4.08,51.888 4.69,51.534 5.288,51.183 l 0,0 C 5.884,50.832 6.467,50.49 6.886,50.221 l 0,0 c 0.116,-0.075 0.172,-0.127 0.256,-0.188 l 0,0 c 0.008,-0.105 0.015,-0.176 0.02,-0.318 l 0,0 C 7.183,49.21 7.188,48.52 7.19,47.82 l 0,0 c 0.003,-0.7 -0.001,-1.414 0.042,-2.056 l 0,0 c 0.021,-0.323 0.049,-0.618 0.111,-0.935 l 0,0 c 0.061,-0.315 0.058,-0.644 0.526,-1.211 l 0,0 c 0.468,-0.567 0.8,-0.622 1.1,-0.74 l 0,0 c 0.3,-0.117 0.59,-0.199 0.899,-0.276 l 0,0 c 0.621,-0.157 1.307,-0.288 1.987,-0.41 l 0,0 c 0.679,-0.123 1.35,-0.235 1.833,-0.346 l 0,0 c 0.127,-0.035 0.189,-0.044 0.285,-0.069 l 0,0 c 0.042,-0.095 0.071,-0.159 0.125,-0.29 l 0,0 c 0.188,-0.468 0.419,-1.114 0.657,-1.772 l 0,0 c 0.237,-0.658 0.483,-1.32 0.74,-1.91 l 0,0 c 0.128,-0.294 0.257,-0.567 0.422,-0.844 l 0,0 c 0.165,-0.276 0.268,-0.588 0.907,-0.962 l 0,0 c 0.557,-0.328 0.876,-0.326 1.163,-0.325 l 0,0 c 0.042,0 0.082,0 0.124,0 l 0,0 c 0.323,0 0.624,0.034 0.941,0.055 l 0,0 c 0.138,0.015 0.294,0.05 0.436,0.069 l 0,0 0,-33.889 C 19.486,0.858 20.337,0.004 21.389,0.002 l 0,0 c 0.352,-0.001 0.698,0.097 0.998,0.281 l 0,0 11.35,6.996 L 44.921,0.29 C 45.234,0.094 45.583,0 45.928,0 l 0,0 0.001,0 c 0.634,0 1.254,0.317 1.615,0.895 l 0,0 c 0.19,0.303 0.291,0.655 0.29,1.014 l 0,0 0,33.889 c 0.142,-0.019 0.298,-0.054 0.437,-0.069 l 0,0 c 0.316,-0.036 0.618,-0.062 0.94,-0.055 l 0,0 c 0.323,0 0.649,-0.051 1.288,0.325 l 0,0 c 0.638,0.374 0.748,0.685 0.912,0.962 l 0,0 c 0.166,0.277 0.295,0.55 0.423,0.844 l 0,0 c 0.257,0.59 0.497,1.252 0.733,1.91 l 0,0 c 0.239,0.658 0.469,1.304 0.659,1.772 l 0,0 c 0.05,0.127 0.087,0.187 0.131,0.284 l 0,0 c 0.095,0.035 0.156,0.047 0.283,0.075 l 0,0 c 0.484,0.108 1.148,0.223 1.828,0.346 l 0,0 c 0.678,0.124 1.372,0.256 1.992,0.41 l 0,0 c 0.31,0.077 0.6,0.159 0.901,0.276 l 0,0 c 0.3,0.117 0.624,0.173 1.092,0.74 l 0,0 c 0.468,0.567 0.465,0.895 0.527,1.211 l 0,0 c 0.06,0.316 0.09,0.614 0.109,0.935 l 0,0 c 0.044,0.642 0.048,1.356 0.05,2.056 l 0,0 c 10e-4,0.7 0,1.39 0.021,1.895 l 0,0 c 0.005,0.142 0.011,0.213 0.02,0.318 l 0,0 c 0.084,0.057 0.141,0.113 0.257,0.188 l 0,0 c 0.418,0.269 1.009,0.609 1.605,0.962 l 0,0 c 0.595,0.35 1.201,0.705 1.729,1.065 l 0,0 c 0.265,0.181 0.507,0.361 0.747,0.574 l 0,0 c 0.242,0.213 0.53,0.38 0.776,1.066 l 0,0 c 0.246,0.687 0.132,0.99 0.084,1.308 l 0,0 c -0.049,0.32 -0.127,0.611 -0.215,0.92 l 0,0 c -0.177,0.619 -0.41,1.287 -0.645,1.946 l 0,0 c -0.234,0.658 -0.464,1.304 -0.614,1.784 l 0,0 c -0.044,0.139 -0.063,0.224 -0.09,0.326 l 0,0 c 0.059,0.085 0.1,0.142 0.186,0.256 l 0,0 c 0.304,0.4 0.742,0.922 1.183,1.461 l 0,0 c 0.443,0.537 0.892,1.084 1.268,1.605 l 0,0 c 0.187,0.262 0.357,0.513 0.511,0.796 l 0,0 c 0.155,0.283 0.359,0.532 0.359,1.259 l 0,0 c 0,0.728 -0.204,0.984 -0.359,1.266 l 0,0 c -0.154,0.284 -0.324,0.536 -0.511,0.797 l 0,0 c -0.376,0.521 -0.825,1.067 -1.268,1.605 l 0,0 c -0.441,0.538 -0.879,1.06 -1.183,1.46 l 0,0 c -0.086,0.114 -0.127,0.178 -0.186,0.264 l 0,0 c 0.027,0.102 0.046,0.179 0.09,0.317 l 0,0 c 0.15,0.481 0.38,1.121 0.614,1.779 l 0,0 c 0.235,0.659 0.468,1.333 0.645,1.951 l 0,0 c 0.088,0.309 0.166,0.603 0.215,0.922 l 0,0 c 0.048,0.317 0.162,0.622 -0.084,1.306 l 0,0 c -0.246,0.687 -0.534,0.853 -0.776,1.067 l 0,0 c -0.24,0.212 -0.482,0.394 -0.747,0.574 l 0,0 c -0.528,0.361 -1.134,0.721 -1.729,1.073 l 0,0 c -0.596,0.35 -1.187,0.692 -1.605,0.962 l 0,0 c -0.115,0.074 -0.173,0.12 -0.257,0.179 l 0,0 c -0.009,0.106 -0.015,0.181 -0.02,0.326 l 0,0 c -0.02,0.506 -0.02,1.196 -0.021,1.896 l 0,0 c -0.002,0.7 -0.007,1.413 -0.05,2.056 l 0,0 c -0.019,0.322 -0.049,0.618 -0.109,0.934 l 0,0 c -0.061,0.315 -0.065,0.642 -0.527,1.204 l 0,0 c -0.468,0.566 -0.792,0.629 -1.092,0.747 l 0,0 c -0.301,0.117 -0.591,0.2 -0.901,0.276 l 0,0 c -0.62,0.157 -1.314,0.288 -1.992,0.409 l 0,0 c -0.68,0.124 -1.344,0.236 -1.828,0.347 l 0,0 c -0.127,0.035 -0.188,0.047 -0.283,0.076 l 0,0 c -0.043,0.092 -0.081,0.156 -0.131,0.283 l 0,0 c -0.19,0.468 -0.42,1.108 -0.659,1.765 l 0,0 c -0.236,0.658 -0.476,1.328 -0.733,1.917 l 0,0 c -0.128,0.294 -0.257,0.568 -0.423,0.845 l 0,0 c -0.164,0.276 -0.273,0.587 -0.912,0.961 l 0,0 c -0.558,0.326 -0.877,0.325 -1.164,0.325 l 0,0 c -0.042,0 -0.083,0 -0.124,10e-4 l 0,0 c -0.322,0 -0.624,-0.035 -0.94,-0.056 l 0,0 c -0.635,-0.068 -1.329,-0.191 -2.008,-0.311 l 0,0 c -0.68,-0.121 -1.343,-0.237 -1.835,-0.305 l 0,0 c -0.125,0 -0.187,-0.035 -0.282,-0.035 l 0,0 c -0.069,0.071 -0.12,0.115 -0.207,0.215 l 0,0 c -0.337,0.373 -0.767,0.898 -1.212,1.433 l 0,0 c -0.445,0.535 -0.902,1.078 -1.343,1.543 l 0,0 c -0.22,0.233 -0.436,0.447 -0.685,0.65 l 0,0 c -0.249,0.206 -0.451,0.464 -1.184,0.596 l 0,0 c -0.17,0.03 -0.316,0.045 -0.443,0.047 l 0,0 -0.082,0 z M 24.443,91.32 c 0.583,0.217 0.736,0.423 0.955,0.623 l 0,0 c 0.218,0.203 0.413,0.419 0.623,0.651 l 0,0 c 0.418,0.467 0.864,1.011 1.301,1.537 l 0,0 c 0.424,0.509 0.838,0.989 1.156,1.328 l 0,0 0,-0.014 c 0.411,-0.209 0.948,-0.513 1.515,-0.844 l 0,0 c 0.587,-0.34 1.194,-0.703 1.745,-0.996 l 0,0 c 0.275,-0.146 0.535,-0.273 0.809,-0.388 l 0,0 c 0.274,-0.114 0.49,-0.249 1.114,-0.249 l 0,0 c 0.625,0 0.84,0.135 1.114,0.249 l 0,0 c 0.275,0.113 0.534,0.241 0.81,0.388 l 0,0 c 0.551,0.294 1.157,0.654 1.744,0.996 l 0,0 c 0.566,0.33 1.112,0.63 1.521,0.838 l 0,0 c 0.319,-0.341 0.729,-0.815 1.15,-1.322 l 0,0 c 0.436,-0.526 0.883,-1.071 1.302,-1.537 l 0,0 c 0.209,-0.234 0.41,-0.449 0.629,-0.65 l 0,0 c 0.219,-0.203 0.371,-0.407 0.955,-0.623 l 0,0 c 0.583,-0.216 0.831,-0.156 1.128,-0.145 l 0,0 c 0.296,0 0.585,0.051 0.893,0.09 l 0,0 c 0.617,0.085 1.305,0.208 1.972,0.325 l 0,0 c 0.644,0.113 1.26,0.217 1.716,0.27 l 0,0 c 0.185,-0.43 0.415,-1.037 0.644,-1.668 l 0,0 c 0.233,-0.646 0.463,-1.307 0.699,-1.889 l 0,0 c 0.117,-0.291 0.237,-0.561 0.374,-0.824 l 0,0 c 0.137,-0.262 0.207,-0.512 0.678,-0.913 l 0,0 c 0.471,-0.401 0.735,-0.435 1.017,-0.526 l 0,0 c 0.283,-0.092 0.56,-0.162 0.865,-0.229 l 0,0 c 0.609,-0.134 1.299,-0.251 1.965,-0.374 l 0,0 c 0.649,-0.117 1.269,-0.243 1.716,-0.352 l 0,0 c 0.03,-0.47 0.041,-1.125 0.042,-1.799 l 0,0 c 10e-4,-0.689 -0.004,-1.393 0.021,-2.021 l 0,0 c 0.013,-0.316 0.037,-0.612 0.077,-0.907 l 0,0 c 0.039,-0.294 0.021,-0.546 0.325,-1.079 l 0,0 c 0.303,-0.534 0.533,-0.655 0.768,-0.838 l 0,0 c 0.233,-0.184 0.471,-0.351 0.733,-0.519 l 0,0 c 0.525,-0.337 1.13,-0.685 1.716,-1.031 l 0,0 c 0.576,-0.34 1.132,-0.674 1.516,-0.934 l 0,0 c -0.13,-0.453 -0.346,-1.075 -0.574,-1.716 l 0,0 c -0.231,-0.647 -0.469,-1.311 -0.658,-1.91 l 0,0 c -0.094,-0.302 -0.172,-0.583 -0.235,-0.872 l 0,0 c -0.062,-0.291 -0.16,-0.527 -0.055,-1.129 l 0,0 c 0.104,-0.601 0.279,-0.793 0.436,-1.045 l 0,0 c 0.156,-0.252 0.323,-0.49 0.512,-0.74 l 0,0 c 0.378,-0.499 0.832,-1.036 1.265,-1.564 l 0,0 c 0.431,-0.523 0.841,-1.039 1.116,-1.419 l 0,0 C 63.284,65.17 62.873,64.661 62.442,64.138 l 0,0 c -0.433,-0.529 -0.887,-1.066 -1.265,-1.565 l 0,0 c -0.189,-0.248 -0.356,-0.488 -0.512,-0.74 l 0,0 C 60.508,61.581 60.333,61.39 60.229,60.788 l 0,0 C 60.124,60.187 60.222,59.95 60.284,59.66 l 0,0 c 0.063,-0.291 0.141,-0.572 0.235,-0.872 l 0,0 c 0.189,-0.599 0.427,-1.264 0.658,-1.91 l 0,0 c 0.228,-0.642 0.444,-1.263 0.574,-1.716 l 0,0 c -0.384,-0.258 -0.94,-0.595 -1.516,-0.934 l 0,0 C 59.649,53.88 59.044,53.527 58.519,53.189 l 0,0 c -0.262,-0.169 -0.5,-0.329 -0.733,-0.512 l 0,0 C 57.551,52.493 57.32,52.372 57.018,51.84 l 0,0 c -0.304,-0.534 -0.286,-0.792 -0.325,-1.087 l 0,0 c -0.04,-0.294 -0.065,-0.585 -0.077,-0.899 l 0,0 c -0.025,-0.629 -0.02,-1.34 -0.021,-2.028 l 0,0 c -10e-4,-0.678 -0.011,-1.329 -0.042,-1.8 l 0,0 C 56.106,45.917 55.486,45.801 54.837,45.68 l 0,0 c -0.666,-0.119 -1.356,-0.236 -1.965,-0.373 l 0,0 c -0.305,-0.068 -0.583,-0.14 -0.865,-0.228 l 0,0 C 51.725,44.986 51.461,44.955 50.99,44.553 l 0,0 c -0.471,-0.401 -0.541,-0.651 -0.678,-0.914 l 0,0 c -0.137,-0.262 -0.257,-0.533 -0.374,-0.823 l 0,0 c -0.236,-0.583 -0.466,-1.25 -0.699,-1.896 l 0,0 C 49.01,40.289 48.78,39.688 48.595,39.259 l 0,0 c -0.456,0.052 -1.072,0.156 -1.716,0.269 l 0,0 c -0.667,0.118 -1.355,0.24 -1.972,0.326 l 0,0 c -0.308,0.042 -0.597,0.072 -0.893,0.083 l 0,0 c -0.297,0 -0.545,0.073 -1.128,-0.138 l 0,0 C 42.303,39.582 42.15,39.376 41.931,39.176 l 0,0 c -0.218,-0.202 -0.42,-0.411 -0.629,-0.643 l 0,0 C 40.883,38.066 40.436,37.522 40,36.995 l 0,0 c -0.423,-0.51 -0.837,-0.989 -1.155,-1.328 l 0,0 c -0.411,0.209 -0.951,0.516 -1.516,0.843 l 0,0 c -0.587,0.344 -1.193,0.705 -1.744,0.998 l 0,0 c -0.276,0.145 -0.535,0.272 -0.81,0.387 l 0,0 c -0.274,0.114 -0.49,0.256 -1.114,0.256 l 0,0 c -0.624,0 -0.84,-0.142 -1.114,-0.256 l 0,0 c -0.274,-0.113 -0.534,-0.247 -0.809,-0.394 l 0,0 C 31.187,37.207 30.58,36.853 29.993,36.51 l 0,0 c -0.567,-0.328 -1.105,-0.636 -1.515,-0.843 l 0,0 c -0.318,0.34 -0.732,0.818 -1.156,1.328 l 0,0 c -0.437,0.527 -0.883,1.071 -1.301,1.538 l 0,0 c -0.21,0.233 -0.405,0.442 -0.623,0.643 l 0,0 c -0.219,0.202 -0.371,0.414 -0.955,0.63 l 0,0 c -0.583,0.215 -0.839,0.155 -1.135,0.144 l 0,0 c -0.296,0 -0.585,-0.044 -0.893,-0.083 l 0,0 C 21.798,39.782 21.11,39.659 20.443,39.542 l 0,0 c -0.647,-0.113 -1.26,-0.216 -1.717,-0.27 l 0,0 c -0.185,0.43 -0.408,1.031 -0.636,1.662 l 0,0 c -0.234,0.645 -0.471,1.313 -0.706,1.895 l 0,0 c -0.118,0.291 -0.237,0.561 -0.373,0.825 l 0,0 c -0.137,0.261 -0.208,0.512 -0.679,0.912 l 0,0 c -0.47,0.402 -0.728,0.435 -1.01,0.527 l 0,0 c -0.282,0.091 -0.568,0.161 -0.872,0.228 l 0,0 c -0.608,0.134 -1.291,0.251 -1.958,0.373 l 0,0 c -0.653,0.118 -1.277,0.237 -1.724,0.347 l 0,0 c -0.03,0.47 -0.033,1.121 -0.034,1.799 l 0,0 c -0.002,0.688 -0.003,1.399 -0.028,2.027 l 0,0 c -0.012,0.315 -0.029,0.606 -0.069,0.9 l 0,0 c -0.039,0.295 -0.029,0.552 -0.332,1.087 l 0,0 c -0.304,0.534 -0.535,0.654 -0.769,0.837 l 0,0 c -0.233,0.184 -0.47,0.344 -0.733,0.513 l 0,0 c -0.526,0.336 -1.13,0.692 -1.716,1.037 l 0,0 c -0.576,0.34 -1.132,0.674 -1.516,0.934 l 0,0 c 0.13,0.453 0.339,1.075 0.568,1.717 l 0,0 c 0.229,0.646 0.476,1.31 0.664,1.909 l 0,0 c 0.094,0.301 0.173,0.583 0.235,0.873 l 0,0 c 0.062,0.29 0.16,0.526 0.056,1.128 l 0,0 c -0.105,0.6 -0.28,0.793 -0.437,1.045 l 0,0 C 6.501,62.098 6.328,62.331 6.139,62.58 l 0,0 c -0.38,0.499 -0.826,1.043 -1.26,1.571 l 0,0 C 4.45,64.674 4.038,65.183 3.765,65.563 l 0,0 c 0.273,0.379 0.685,0.896 1.114,1.419 l 0,0 c 0.434,0.528 0.88,1.065 1.26,1.564 l 0,0 c 0.189,0.248 0.362,0.489 0.518,0.74 l 0,0 c 0.157,0.252 0.332,0.444 0.437,1.045 l 0,0 c 0.104,0.602 0.006,0.838 -0.056,1.128 l 0,0 C 6.976,71.75 6.897,72.031 6.803,72.331 l 0,0 c -0.188,0.6 -0.435,1.264 -0.664,1.91 l 0,0 C 5.91,74.883 5.701,75.505 5.571,75.957 l 0,0 c 0.384,0.259 0.94,0.595 1.516,0.934 l 0,0 c 0.586,0.348 1.19,0.694 1.716,1.032 l 0,0 c 0.263,0.17 0.5,0.337 0.733,0.519 l 0,0 c 0.234,0.184 0.465,0.305 0.769,0.837 l 0,0 c 0.303,0.534 0.293,0.786 0.332,1.079 l 0,0 c 0.04,0.296 0.057,0.593 0.069,0.908 l 0,0 c 0.025,0.628 0.026,1.332 0.028,2.02 l 0,0 c 10e-4,0.675 0.004,1.329 0.034,1.8 l 0,0 c 0.447,0.109 1.071,0.232 1.724,0.353 l 0,0 c 0.667,0.12 1.35,0.237 1.958,0.373 l 0,0 c 0.304,0.068 0.59,0.14 0.872,0.228 l 0,0 c 0.282,0.093 0.54,0.124 1.01,0.526 l 0,0 c 0.471,0.401 0.542,0.651 0.679,0.913 l 0,0 c 0.136,0.263 0.255,0.534 0.373,0.824 l 0,0 c 0.235,0.583 0.472,1.244 0.706,1.89 l 0,0 c 0.228,0.631 0.451,1.238 0.636,1.667 l 0,0 c 0.457,-0.053 1.07,-0.156 1.717,-0.269 l 0,0 c 0.667,-0.118 1.356,-0.24 1.972,-0.326 l 0,0 c 0.308,-0.042 0.597,-0.079 0.893,-0.09 l 0,0 c 0.118,0 0.229,-0.011 0.357,-0.011 l 0,0 c 0.194,0 0.426,0.026 0.778,0.156 M 39.515,31.944 c 0.732,0.131 0.936,0.391 1.184,0.596 l 0,0 c 0.249,0.201 0.465,0.417 0.685,0.649 l 0,0 c 0.441,0.466 0.898,1.008 1.343,1.544 l 0,0 c 0.445,0.534 0.875,1.059 1.212,1.432 l 0,0 c 0.037,0.042 0.06,0.062 0.089,0.09 l 0,0 0,-30.913 -9.274,5.792 c -0.614,0.382 -1.392,0.382 -2.007,0 l 0,0 -9.452,-5.828 0,30.949 c 0.028,-0.028 0.051,-0.048 0.09,-0.09 l 0,0 c 0.334,-0.373 0.772,-0.898 1.217,-1.432 l 0,0 c 0.445,-0.536 0.895,-1.078 1.336,-1.544 l 0,0 c 0.22,-0.234 0.435,-0.447 0.685,-0.649 l 0,0 c 0.249,-0.207 0.458,-0.466 1.191,-0.596 l 0,0 c 0.732,-0.132 1.016,0.038 1.322,0.145 l 0,0 c 0.305,0.107 0.578,0.23 0.864,0.374 l 0,0 c 0.572,0.284 1.18,0.641 1.779,0.989 l 0,0 c 0.041,0.023 0.069,0.039 0.11,0.062 l 0,0 0,-15.791 3.544,0 0,15.791 c 0.04,-0.023 0.069,-0.039 0.111,-0.062 l 0,0 c 0.597,-0.346 1.213,-0.704 1.785,-0.989 l 0,0 c 0.286,-0.141 0.56,-0.27 0.865,-0.374 l 0,0 c 0.226,-0.079 0.44,-0.193 0.835,-0.193 l 0,0 c 0.137,0 0.297,0.014 0.486,0.048"
                 style="fill:url(#linearGradient4298);stroke:none"
                 id="path4296"
                 inkscape:connector-curvature="0" /></g></g></g></g></mask><linearGradient
       inkscape:collect="always"
       xlink:href="#linearGradient24"
       id="linearGradient4312"
       gradientUnits="userSpaceOnUse"
       gradientTransform="matrix(-48.592293,84.164307,84.164307,48.592293,60.474609,8.1025391)"
       spreadMethod="pad"
       x1="0"
       y1="0"
       x2="1"
       y2="0" /><mask
       maskUnits="userSpaceOnUse"
       id="mask4300"><g
         id="g4302"><g
           id="g4304"><g
             id="g4306"><g
               id="g4308"><path
                 d="M 38.99,99.216 C 38.62,99.208 38.413,99.1 38.194,99.023 l 0,0 c -0.305,-0.106 -0.579,-0.23 -0.865,-0.374 l 0,0 c -0.572,-0.283 -1.188,-0.64 -1.785,-0.989 l 0,0 c -0.6,-0.347 -1.187,-0.693 -1.627,-0.928 l 0,0 c -0.113,-0.06 -0.168,-0.082 -0.256,-0.123 l 0,0 c -0.088,0.041 -0.149,0.063 -0.263,0.123 l 0,0 c -0.439,0.235 -1.021,0.58 -1.619,0.928 l 0,0 C 31.18,98.006 30.572,98.365 30,98.649 l 0,0 c -0.286,0.142 -0.56,0.27 -0.864,0.374 l 0,0 c -0.153,0.054 -0.298,0.119 -0.499,0.16 l 0,0 c -0.201,0.038 -0.458,0.051 -0.823,-0.014 l 0,0 c -0.732,-0.132 -0.942,-0.391 -1.191,-0.596 l 0,0 c -0.249,-0.205 -0.465,-0.418 -0.685,-0.65 l 0,0 C 25.497,97.458 25.047,96.915 24.602,96.38 l 0,0 c -0.445,-0.535 -0.883,-1.06 -1.217,-1.433 l 0,0 c -0.089,-0.1 -0.139,-0.14 -0.208,-0.215 l 0,0 c -0.096,0 -0.159,-0.001 -0.284,0.035 l 0,0 c -0.491,0.068 -1.154,0.184 -1.834,0.305 l 0,0 c -0.679,0.12 -1.373,0.241 -2.007,0.311 l 0,0 c -0.317,0.036 -0.618,0.067 -0.941,0.062 l 0,0 c -0.323,0 -0.649,0.051 -1.287,-0.325 l 0,0 c -0.639,-0.375 -0.742,-0.685 -0.907,-0.962 l 0,0 c -0.165,-0.276 -0.294,-0.55 -0.422,-0.844 l 0,0 c -0.257,-0.59 -0.503,-1.259 -0.74,-1.917 l 0,0 C 14.517,90.739 14.286,90.1 14.098,89.632 l 0,0 C 14.046,89.505 14.014,89.44 13.973,89.348 l 0,0 c -0.096,-0.035 -0.156,-0.054 -0.285,-0.082 l 0,0 c -0.483,-0.107 -1.154,-0.223 -1.833,-0.347 l 0,0 C 11.175,88.795 10.489,88.664 9.868,88.51 l 0,0 C 9.559,88.434 9.269,88.351 8.969,88.234 l 0,0 c -0.3,-0.117 -0.632,-0.181 -1.1,-0.747 l 0,0 C 7.407,86.925 7.403,86.598 7.343,86.283 l 0,0 C 7.281,85.968 7.253,85.67 7.232,85.349 l 0,0 C 7.189,84.706 7.193,83.993 7.19,83.293 l 0,0 c -0.002,-0.7 -0.007,-1.39 -0.028,-1.896 l 0,0 C 7.157,81.255 7.15,81.177 7.142,81.071 l 0,0 C 7.059,81.014 7.001,80.973 6.886,80.898 l 0,0 C 6.467,80.629 5.884,80.289 5.288,79.936 l 0,0 C 4.69,79.586 4.08,79.223 3.551,78.864 l 0,0 C 3.286,78.683 3.044,78.504 2.803,78.29 l 0,0 C 2.561,78.077 2.274,77.911 2.028,77.224 l 0,0 C 1.782,76.537 1.896,76.234 1.945,75.916 l 0,0 c 0.048,-0.32 0.119,-0.611 0.207,-0.921 l 0,0 c 0.177,-0.618 0.417,-1.293 0.651,-1.951 l 0,0 c 0.235,-0.658 0.465,-1.297 0.616,-1.778 l 0,0 c 0.043,-0.139 0.062,-0.216 0.09,-0.319 l 0,0 C 3.449,70.862 3.408,70.798 3.322,70.684 l 0,0 C 3.018,70.285 2.58,69.762 2.138,69.223 l 0,0 C 1.697,68.686 1.247,68.133 0.872,67.612 l 0,0 C 0.685,67.352 0.52,67.106 0.366,66.822 l 0,0 C 0.213,66.536 0,66.276 0,65.549 l 0,0 C 0,64.822 0.213,64.573 0.366,64.29 l 0,0 C 0.52,64.006 0.685,63.755 0.872,63.494 l 0,0 c 0.375,-0.521 0.825,-1.068 1.266,-1.605 l 0,0 C 2.58,61.35 3.018,60.828 3.322,60.428 l 0,0 c 0.086,-0.114 0.127,-0.171 0.187,-0.256 l 0,0 C 3.481,60.07 3.462,59.985 3.419,59.846 l 0,0 C 3.268,59.366 3.038,58.72 2.803,58.062 l 0,0 C 2.569,57.403 2.329,56.735 2.152,56.116 l 0,0 C 2.064,55.809 1.993,55.515 1.945,55.196 l 0,0 C 1.896,54.877 1.782,54.575 2.028,53.888 l 0,0 c 0.246,-0.687 0.533,-0.852 0.775,-1.066 l 0,0 C 3.044,52.61 3.286,52.429 3.551,52.248 l 0,0 C 4.08,51.888 4.69,51.534 5.288,51.183 l 0,0 C 5.884,50.832 6.467,50.49 6.886,50.221 l 0,0 c 0.116,-0.075 0.172,-0.127 0.256,-0.188 l 0,0 c 0.008,-0.105 0.015,-0.176 0.02,-0.318 l 0,0 C 7.183,49.21 7.188,48.52 7.19,47.82 l 0,0 c 0.003,-0.7 -0.001,-1.414 0.042,-2.056 l 0,0 c 0.021,-0.323 0.049,-0.618 0.111,-0.935 l 0,0 c 0.061,-0.315 0.058,-0.644 0.526,-1.211 l 0,0 c 0.468,-0.567 0.8,-0.622 1.1,-0.74 l 0,0 c 0.3,-0.117 0.59,-0.199 0.899,-0.276 l 0,0 c 0.621,-0.157 1.307,-0.288 1.987,-0.41 l 0,0 c 0.679,-0.123 1.35,-0.235 1.833,-0.346 l 0,0 c 0.127,-0.035 0.189,-0.044 0.285,-0.069 l 0,0 c 0.042,-0.095 0.071,-0.159 0.125,-0.29 l 0,0 c 0.188,-0.468 0.419,-1.114 0.657,-1.772 l 0,0 c 0.237,-0.658 0.483,-1.32 0.74,-1.91 l 0,0 c 0.128,-0.294 0.257,-0.567 0.422,-0.844 l 0,0 c 0.165,-0.276 0.268,-0.588 0.907,-0.962 l 0,0 c 0.557,-0.328 0.876,-0.326 1.163,-0.325 l 0,0 c 0.042,0 0.082,0 0.124,0 l 0,0 c 0.323,0 0.624,0.034 0.941,0.055 l 0,0 c 0.138,0.015 0.294,0.05 0.436,0.069 l 0,0 0,-33.889 C 19.486,0.858 20.337,0.004 21.389,0.002 l 0,0 c 0.352,-0.001 0.698,0.097 0.998,0.281 l 0,0 11.35,6.996 L 44.921,0.29 C 45.234,0.094 45.583,0 45.928,0 l 0,0 0.001,0 c 0.634,0 1.254,0.317 1.615,0.895 l 0,0 c 0.19,0.303 0.291,0.655 0.29,1.014 l 0,0 0,33.889 c 0.142,-0.019 0.298,-0.054 0.437,-0.069 l 0,0 c 0.316,-0.036 0.618,-0.062 0.94,-0.055 l 0,0 c 0.323,0 0.649,-0.051 1.288,0.325 l 0,0 c 0.638,0.374 0.748,0.685 0.912,0.962 l 0,0 c 0.166,0.277 0.295,0.55 0.423,0.844 l 0,0 c 0.257,0.59 0.497,1.252 0.733,1.91 l 0,0 c 0.239,0.658 0.469,1.304 0.659,1.772 l 0,0 c 0.05,0.127 0.087,0.187 0.131,0.284 l 0,0 c 0.095,0.035 0.156,0.047 0.283,0.075 l 0,0 c 0.484,0.108 1.148,0.223 1.828,0.346 l 0,0 c 0.678,0.124 1.372,0.256 1.992,0.41 l 0,0 c 0.31,0.077 0.6,0.159 0.901,0.276 l 0,0 c 0.3,0.117 0.624,0.173 1.092,0.74 l 0,0 c 0.468,0.567 0.465,0.895 0.527,1.211 l 0,0 c 0.06,0.316 0.09,0.614 0.109,0.935 l 0,0 c 0.044,0.642 0.048,1.356 0.05,2.056 l 0,0 c 10e-4,0.7 0,1.39 0.021,1.895 l 0,0 c 0.005,0.142 0.011,0.213 0.02,0.318 l 0,0 c 0.084,0.057 0.141,0.113 0.257,0.188 l 0,0 c 0.418,0.269 1.009,0.609 1.605,0.962 l 0,0 c 0.595,0.35 1.201,0.705 1.729,1.065 l 0,0 c 0.265,0.181 0.507,0.361 0.747,0.574 l 0,0 c 0.242,0.213 0.53,0.38 0.776,1.066 l 0,0 c 0.246,0.687 0.132,0.99 0.084,1.308 l 0,0 c -0.049,0.32 -0.127,0.611 -0.215,0.92 l 0,0 c -0.177,0.619 -0.41,1.287 -0.645,1.946 l 0,0 c -0.234,0.658 -0.464,1.304 -0.614,1.784 l 0,0 c -0.044,0.139 -0.063,0.224 -0.09,0.326 l 0,0 c 0.059,0.085 0.1,0.142 0.186,0.256 l 0,0 c 0.304,0.4 0.742,0.922 1.183,1.461 l 0,0 c 0.443,0.537 0.892,1.084 1.268,1.605 l 0,0 c 0.187,0.262 0.357,0.513 0.511,0.796 l 0,0 c 0.155,0.283 0.359,0.532 0.359,1.259 l 0,0 c 0,0.728 -0.204,0.984 -0.359,1.266 l 0,0 c -0.154,0.284 -0.324,0.536 -0.511,0.797 l 0,0 c -0.376,0.521 -0.825,1.067 -1.268,1.605 l 0,0 c -0.441,0.538 -0.879,1.06 -1.183,1.46 l 0,0 c -0.086,0.114 -0.127,0.178 -0.186,0.264 l 0,0 c 0.027,0.102 0.046,0.179 0.09,0.317 l 0,0 c 0.15,0.481 0.38,1.121 0.614,1.779 l 0,0 c 0.235,0.659 0.468,1.333 0.645,1.951 l 0,0 c 0.088,0.309 0.166,0.603 0.215,0.922 l 0,0 c 0.048,0.317 0.162,0.622 -0.084,1.306 l 0,0 c -0.246,0.687 -0.534,0.853 -0.776,1.067 l 0,0 c -0.24,0.212 -0.482,0.394 -0.747,0.574 l 0,0 c -0.528,0.361 -1.134,0.721 -1.729,1.073 l 0,0 c -0.596,0.35 -1.187,0.692 -1.605,0.962 l 0,0 c -0.115,0.074 -0.173,0.12 -0.257,0.179 l 0,0 c -0.009,0.106 -0.015,0.181 -0.02,0.326 l 0,0 c -0.02,0.506 -0.02,1.196 -0.021,1.896 l 0,0 c -0.002,0.7 -0.007,1.413 -0.05,2.056 l 0,0 c -0.019,0.322 -0.049,0.618 -0.109,0.934 l 0,0 c -0.061,0.315 -0.065,0.642 -0.527,1.204 l 0,0 c -0.468,0.566 -0.792,0.629 -1.092,0.747 l 0,0 c -0.301,0.117 -0.591,0.2 -0.901,0.276 l 0,0 c -0.62,0.157 -1.314,0.288 -1.992,0.409 l 0,0 c -0.68,0.124 -1.344,0.236 -1.828,0.347 l 0,0 c -0.127,0.035 -0.188,0.047 -0.283,0.076 l 0,0 c -0.043,0.092 -0.081,0.156 -0.131,0.283 l 0,0 c -0.19,0.468 -0.42,1.108 -0.659,1.765 l 0,0 c -0.236,0.658 -0.476,1.328 -0.733,1.917 l 0,0 c -0.128,0.294 -0.257,0.568 -0.423,0.845 l 0,0 c -0.164,0.276 -0.273,0.587 -0.912,0.961 l 0,0 c -0.558,0.326 -0.877,0.325 -1.164,0.325 l 0,0 c -0.042,0 -0.083,0 -0.124,10e-4 l 0,0 c -0.322,0 -0.624,-0.035 -0.94,-0.056 l 0,0 c -0.635,-0.068 -1.329,-0.191 -2.008,-0.311 l 0,0 c -0.68,-0.121 -1.343,-0.237 -1.835,-0.305 l 0,0 c -0.125,0 -0.187,-0.035 -0.282,-0.035 l 0,0 c -0.069,0.071 -0.12,0.115 -0.207,0.215 l 0,0 c -0.337,0.373 -0.767,0.898 -1.212,1.433 l 0,0 c -0.445,0.535 -0.902,1.078 -1.343,1.543 l 0,0 c -0.22,0.233 -0.436,0.447 -0.685,0.65 l 0,0 c -0.249,0.206 -0.451,0.464 -1.184,0.596 l 0,0 c -0.17,0.03 -0.316,0.045 -0.443,0.047 l 0,0 -0.082,0 z M 24.443,91.32 c 0.583,0.217 0.736,0.423 0.955,0.623 l 0,0 c 0.218,0.203 0.413,0.419 0.623,0.651 l 0,0 c 0.418,0.467 0.864,1.011 1.301,1.537 l 0,0 c 0.424,0.509 0.838,0.989 1.156,1.328 l 0,0 0,-0.014 c 0.411,-0.209 0.948,-0.513 1.515,-0.844 l 0,0 c 0.587,-0.34 1.194,-0.703 1.745,-0.996 l 0,0 c 0.275,-0.146 0.535,-0.273 0.809,-0.388 l 0,0 c 0.274,-0.114 0.49,-0.249 1.114,-0.249 l 0,0 c 0.625,0 0.84,0.135 1.114,0.249 l 0,0 c 0.275,0.113 0.534,0.241 0.81,0.388 l 0,0 c 0.551,0.294 1.157,0.654 1.744,0.996 l 0,0 c 0.566,0.33 1.112,0.63 1.521,0.838 l 0,0 c 0.319,-0.341 0.729,-0.815 1.15,-1.322 l 0,0 c 0.436,-0.526 0.883,-1.071 1.302,-1.537 l 0,0 c 0.209,-0.234 0.41,-0.449 0.629,-0.65 l 0,0 c 0.219,-0.203 0.371,-0.407 0.955,-0.623 l 0,0 c 0.583,-0.216 0.831,-0.156 1.128,-0.145 l 0,0 c 0.296,0 0.585,0.051 0.893,0.09 l 0,0 c 0.617,0.085 1.305,0.208 1.972,0.325 l 0,0 c 0.644,0.113 1.26,0.217 1.716,0.27 l 0,0 c 0.185,-0.43 0.415,-1.037 0.644,-1.668 l 0,0 c 0.233,-0.646 0.463,-1.307 0.699,-1.889 l 0,0 c 0.117,-0.291 0.237,-0.561 0.374,-0.824 l 0,0 c 0.137,-0.262 0.207,-0.512 0.678,-0.913 l 0,0 c 0.471,-0.401 0.735,-0.435 1.017,-0.526 l 0,0 c 0.283,-0.092 0.56,-0.162 0.865,-0.229 l 0,0 c 0.609,-0.134 1.299,-0.251 1.965,-0.374 l 0,0 c 0.649,-0.117 1.269,-0.243 1.716,-0.352 l 0,0 c 0.03,-0.47 0.041,-1.125 0.042,-1.799 l 0,0 c 10e-4,-0.689 -0.004,-1.393 0.021,-2.021 l 0,0 c 0.013,-0.316 0.037,-0.612 0.077,-0.907 l 0,0 c 0.039,-0.294 0.021,-0.546 0.325,-1.079 l 0,0 c 0.303,-0.534 0.533,-0.655 0.768,-0.838 l 0,0 c 0.233,-0.184 0.471,-0.351 0.733,-0.519 l 0,0 c 0.525,-0.337 1.13,-0.685 1.716,-1.031 l 0,0 c 0.576,-0.34 1.132,-0.674 1.516,-0.934 l 0,0 c -0.13,-0.453 -0.346,-1.075 -0.574,-1.716 l 0,0 c -0.231,-0.647 -0.469,-1.311 -0.658,-1.91 l 0,0 c -0.094,-0.302 -0.172,-0.583 -0.235,-0.872 l 0,0 c -0.062,-0.291 -0.16,-0.527 -0.055,-1.129 l 0,0 c 0.104,-0.601 0.279,-0.793 0.436,-1.045 l 0,0 c 0.156,-0.252 0.323,-0.49 0.512,-0.74 l 0,0 c 0.378,-0.499 0.832,-1.036 1.265,-1.564 l 0,0 c 0.431,-0.523 0.841,-1.039 1.116,-1.419 l 0,0 C 63.284,65.17 62.873,64.661 62.442,64.138 l 0,0 c -0.433,-0.529 -0.887,-1.066 -1.265,-1.565 l 0,0 c -0.189,-0.248 -0.356,-0.488 -0.512,-0.74 l 0,0 C 60.508,61.581 60.333,61.39 60.229,60.788 l 0,0 C 60.124,60.187 60.222,59.95 60.284,59.66 l 0,0 c 0.063,-0.291 0.141,-0.572 0.235,-0.872 l 0,0 c 0.189,-0.599 0.427,-1.264 0.658,-1.91 l 0,0 c 0.228,-0.642 0.444,-1.263 0.574,-1.716 l 0,0 c -0.384,-0.258 -0.94,-0.595 -1.516,-0.934 l 0,0 C 59.649,53.88 59.044,53.527 58.519,53.189 l 0,0 c -0.262,-0.169 -0.5,-0.329 -0.733,-0.512 l 0,0 C 57.551,52.493 57.32,52.372 57.018,51.84 l 0,0 c -0.304,-0.534 -0.286,-0.792 -0.325,-1.087 l 0,0 c -0.04,-0.294 -0.065,-0.585 -0.077,-0.899 l 0,0 c -0.025,-0.629 -0.02,-1.34 -0.021,-2.028 l 0,0 c -10e-4,-0.678 -0.011,-1.329 -0.042,-1.8 l 0,0 C 56.106,45.917 55.486,45.801 54.837,45.68 l 0,0 c -0.666,-0.119 -1.356,-0.236 -1.965,-0.373 l 0,0 c -0.305,-0.068 -0.583,-0.14 -0.865,-0.228 l 0,0 C 51.725,44.986 51.461,44.955 50.99,44.553 l 0,0 c -0.471,-0.401 -0.541,-0.651 -0.678,-0.914 l 0,0 c -0.137,-0.262 -0.257,-0.533 -0.374,-0.823 l 0,0 c -0.236,-0.583 -0.466,-1.25 -0.699,-1.896 l 0,0 C 49.01,40.289 48.78,39.688 48.595,39.259 l 0,0 c -0.456,0.052 -1.072,0.156 -1.716,0.269 l 0,0 c -0.667,0.118 -1.355,0.24 -1.972,0.326 l 0,0 c -0.308,0.042 -0.597,0.072 -0.893,0.083 l 0,0 c -0.297,0 -0.545,0.073 -1.128,-0.138 l 0,0 C 42.303,39.582 42.15,39.376 41.931,39.176 l 0,0 c -0.218,-0.202 -0.42,-0.411 -0.629,-0.643 l 0,0 C 40.883,38.066 40.436,37.522 40,36.995 l 0,0 c -0.423,-0.51 -0.837,-0.989 -1.155,-1.328 l 0,0 c -0.411,0.209 -0.951,0.516 -1.516,0.843 l 0,0 c -0.587,0.344 -1.193,0.705 -1.744,0.998 l 0,0 c -0.276,0.145 -0.535,0.272 -0.81,0.387 l 0,0 c -0.274,0.114 -0.49,0.256 -1.114,0.256 l 0,0 c -0.624,0 -0.84,-0.142 -1.114,-0.256 l 0,0 c -0.274,-0.113 -0.534,-0.247 -0.809,-0.394 l 0,0 C 31.187,37.207 30.58,36.853 29.993,36.51 l 0,0 c -0.567,-0.328 -1.105,-0.636 -1.515,-0.843 l 0,0 c -0.318,0.34 -0.732,0.818 -1.156,1.328 l 0,0 c -0.437,0.527 -0.883,1.071 -1.301,1.538 l 0,0 c -0.21,0.233 -0.405,0.442 -0.623,0.643 l 0,0 c -0.219,0.202 -0.371,0.414 -0.955,0.63 l 0,0 c -0.583,0.215 -0.839,0.155 -1.135,0.144 l 0,0 c -0.296,0 -0.585,-0.044 -0.893,-0.083 l 0,0 C 21.798,39.782 21.11,39.659 20.443,39.542 l 0,0 c -0.647,-0.113 -1.26,-0.216 -1.717,-0.27 l 0,0 c -0.185,0.43 -0.408,1.031 -0.636,1.662 l 0,0 c -0.234,0.645 -0.471,1.313 -0.706,1.895 l 0,0 c -0.118,0.291 -0.237,0.561 -0.373,0.825 l 0,0 c -0.137,0.261 -0.208,0.512 -0.679,0.912 l 0,0 c -0.47,0.402 -0.728,0.435 -1.01,0.527 l 0,0 c -0.282,0.091 -0.568,0.161 -0.872,0.228 l 0,0 c -0.608,0.134 -1.291,0.251 -1.958,0.373 l 0,0 c -0.653,0.118 -1.277,0.237 -1.724,0.347 l 0,0 c -0.03,0.47 -0.033,1.121 -0.034,1.799 l 0,0 c -0.002,0.688 -0.003,1.399 -0.028,2.027 l 0,0 c -0.012,0.315 -0.029,0.606 -0.069,0.9 l 0,0 c -0.039,0.295 -0.029,0.552 -0.332,1.087 l 0,0 c -0.304,0.534 -0.535,0.654 -0.769,0.837 l 0,0 c -0.233,0.184 -0.47,0.344 -0.733,0.513 l 0,0 c -0.526,0.336 -1.13,0.692 -1.716,1.037 l 0,0 c -0.576,0.34 -1.132,0.674 -1.516,0.934 l 0,0 c 0.13,0.453 0.339,1.075 0.568,1.717 l 0,0 c 0.229,0.646 0.476,1.31 0.664,1.909 l 0,0 c 0.094,0.301 0.173,0.583 0.235,0.873 l 0,0 c 0.062,0.29 0.16,0.526 0.056,1.128 l 0,0 c -0.105,0.6 -0.28,0.793 -0.437,1.045 l 0,0 C 6.501,62.098 6.328,62.331 6.139,62.58 l 0,0 c -0.38,0.499 -0.826,1.043 -1.26,1.571 l 0,0 C 4.45,64.674 4.038,65.183 3.765,65.563 l 0,0 c 0.273,0.379 0.685,0.896 1.114,1.419 l 0,0 c 0.434,0.528 0.88,1.065 1.26,1.564 l 0,0 c 0.189,0.248 0.362,0.489 0.518,0.74 l 0,0 c 0.157,0.252 0.332,0.444 0.437,1.045 l 0,0 c 0.104,0.602 0.006,0.838 -0.056,1.128 l 0,0 C 6.976,71.75 6.897,72.031 6.803,72.331 l 0,0 c -0.188,0.6 -0.435,1.264 -0.664,1.91 l 0,0 C 5.91,74.883 5.701,75.505 5.571,75.957 l 0,0 c 0.384,0.259 0.94,0.595 1.516,0.934 l 0,0 c 0.586,0.348 1.19,0.694 1.716,1.032 l 0,0 c 0.263,0.17 0.5,0.337 0.733,0.519 l 0,0 c 0.234,0.184 0.465,0.305 0.769,0.837 l 0,0 c 0.303,0.534 0.293,0.786 0.332,1.079 l 0,0 c 0.04,0.296 0.057,0.593 0.069,0.908 l 0,0 c 0.025,0.628 0.026,1.332 0.028,2.02 l 0,0 c 10e-4,0.675 0.004,1.329 0.034,1.8 l 0,0 c 0.447,0.109 1.071,0.232 1.724,0.353 l 0,0 c 0.667,0.12 1.35,0.237 1.958,0.373 l 0,0 c 0.304,0.068 0.59,0.14 0.872,0.228 l 0,0 c 0.282,0.093 0.54,0.124 1.01,0.526 l 0,0 c 0.471,0.401 0.542,0.651 0.679,0.913 l 0,0 c 0.136,0.263 0.255,0.534 0.373,0.824 l 0,0 c 0.235,0.583 0.472,1.244 0.706,1.89 l 0,0 c 0.228,0.631 0.451,1.238 0.636,1.667 l 0,0 c 0.457,-0.053 1.07,-0.156 1.717,-0.269 l 0,0 c 0.667,-0.118 1.356,-0.24 1.972,-0.326 l 0,0 c 0.308,-0.042 0.597,-0.079 0.893,-0.09 l 0,0 c 0.118,0 0.229,-0.011 0.357,-0.011 l 0,0 c 0.194,0 0.426,0.026 0.778,0.156 M 39.515,31.944 c 0.732,0.131 0.936,0.391 1.184,0.596 l 0,0 c 0.249,0.201 0.465,0.417 0.685,0.649 l 0,0 c 0.441,0.466 0.898,1.008 1.343,1.544 l 0,0 c 0.445,0.534 0.875,1.059 1.212,1.432 l 0,0 c 0.037,0.042 0.06,0.062 0.089,0.09 l 0,0 0,-30.913 -9.274,5.792 c -0.614,0.382 -1.392,0.382 -2.007,0 l 0,0 -9.452,-5.828 0,30.949 c 0.028,-0.028 0.051,-0.048 0.09,-0.09 l 0,0 c 0.334,-0.373 0.772,-0.898 1.217,-1.432 l 0,0 c 0.445,-0.536 0.895,-1.078 1.336,-1.544 l 0,0 c 0.22,-0.234 0.435,-0.447 0.685,-0.649 l 0,0 c 0.249,-0.207 0.458,-0.466 1.191,-0.596 l 0,0 c 0.732,-0.132 1.016,0.038 1.322,0.145 l 0,0 c 0.305,0.107 0.578,0.23 0.864,0.374 l 0,0 c 0.572,0.284 1.18,0.641 1.779,0.989 l 0,0 c 0.041,0.023 0.069,0.039 0.11,0.062 l 0,0 0,-15.791 3.544,0 0,15.791 c 0.04,-0.023 0.069,-0.039 0.111,-0.062 l 0,0 c 0.597,-0.346 1.213,-0.704 1.785,-0.989 l 0,0 c 0.286,-0.141 0.56,-0.27 0.865,-0.374 l 0,0 c 0.226,-0.079 0.44,-0.193 0.835,-0.193 l 0,0 c 0.137,0 0.297,0.014 0.486,0.048"
                 style="fill:url(#linearGradient4312);stroke:none"
                 id="path4310"
                 inkscape:connector-curvature="0" /></g></g></g></g></mask><linearGradient
       inkscape:collect="always"
       xlink:href="#linearGradient24"
       id="linearGradient4326"
       gradientUnits="userSpaceOnUse"
       gradientTransform="matrix(-48.592293,84.164307,84.164307,48.592293,60.474609,8.1025391)"
       spreadMethod="pad"
       x1="0"
       y1="0"
       x2="1"
       y2="0" /><mask
       maskUnits="userSpaceOnUse"
       id="mask4314"><g
         id="g4316"><g
           id="g4318"><g
             id="g4320"><g
               id="g4322"><path
                 d="M 38.99,99.216 C 38.62,99.208 38.413,99.1 38.194,99.023 l 0,0 c -0.305,-0.106 -0.579,-0.23 -0.865,-0.374 l 0,0 c -0.572,-0.283 -1.188,-0.64 -1.785,-0.989 l 0,0 c -0.6,-0.347 -1.187,-0.693 -1.627,-0.928 l 0,0 c -0.113,-0.06 -0.168,-0.082 -0.256,-0.123 l 0,0 c -0.088,0.041 -0.149,0.063 -0.263,0.123 l 0,0 c -0.439,0.235 -1.021,0.58 -1.619,0.928 l 0,0 C 31.18,98.006 30.572,98.365 30,98.649 l 0,0 c -0.286,0.142 -0.56,0.27 -0.864,0.374 l 0,0 c -0.153,0.054 -0.298,0.119 -0.499,0.16 l 0,0 c -0.201,0.038 -0.458,0.051 -0.823,-0.014 l 0,0 c -0.732,-0.132 -0.942,-0.391 -1.191,-0.596 l 0,0 c -0.249,-0.205 -0.465,-0.418 -0.685,-0.65 l 0,0 C 25.497,97.458 25.047,96.915 24.602,96.38 l 0,0 c -0.445,-0.535 -0.883,-1.06 -1.217,-1.433 l 0,0 c -0.089,-0.1 -0.139,-0.14 -0.208,-0.215 l 0,0 c -0.096,0 -0.159,-0.001 -0.284,0.035 l 0,0 c -0.491,0.068 -1.154,0.184 -1.834,0.305 l 0,0 c -0.679,0.12 -1.373,0.241 -2.007,0.311 l 0,0 c -0.317,0.036 -0.618,0.067 -0.941,0.062 l 0,0 c -0.323,0 -0.649,0.051 -1.287,-0.325 l 0,0 c -0.639,-0.375 -0.742,-0.685 -0.907,-0.962 l 0,0 c -0.165,-0.276 -0.294,-0.55 -0.422,-0.844 l 0,0 c -0.257,-0.59 -0.503,-1.259 -0.74,-1.917 l 0,0 C 14.517,90.739 14.286,90.1 14.098,89.632 l 0,0 C 14.046,89.505 14.014,89.44 13.973,89.348 l 0,0 c -0.096,-0.035 -0.156,-0.054 -0.285,-0.082 l 0,0 c -0.483,-0.107 -1.154,-0.223 -1.833,-0.347 l 0,0 C 11.175,88.795 10.489,88.664 9.868,88.51 l 0,0 C 9.559,88.434 9.269,88.351 8.969,88.234 l 0,0 c -0.3,-0.117 -0.632,-0.181 -1.1,-0.747 l 0,0 C 7.407,86.925 7.403,86.598 7.343,86.283 l 0,0 C 7.281,85.968 7.253,85.67 7.232,85.349 l 0,0 C 7.189,84.706 7.193,83.993 7.19,83.293 l 0,0 c -0.002,-0.7 -0.007,-1.39 -0.028,-1.896 l 0,0 C 7.157,81.255 7.15,81.177 7.142,81.071 l 0,0 C 7.059,81.014 7.001,80.973 6.886,80.898 l 0,0 C 6.467,80.629 5.884,80.289 5.288,79.936 l 0,0 C 4.69,79.586 4.08,79.223 3.551,78.864 l 0,0 C 3.286,78.683 3.044,78.504 2.803,78.29 l 0,0 C 2.561,78.077 2.274,77.911 2.028,77.224 l 0,0 C 1.782,76.537 1.896,76.234 1.945,75.916 l 0,0 c 0.048,-0.32 0.119,-0.611 0.207,-0.921 l 0,0 c 0.177,-0.618 0.417,-1.293 0.651,-1.951 l 0,0 c 0.235,-0.658 0.465,-1.297 0.616,-1.778 l 0,0 c 0.043,-0.139 0.062,-0.216 0.09,-0.319 l 0,0 C 3.449,70.862 3.408,70.798 3.322,70.684 l 0,0 C 3.018,70.285 2.58,69.762 2.138,69.223 l 0,0 C 1.697,68.686 1.247,68.133 0.872,67.612 l 0,0 C 0.685,67.352 0.52,67.106 0.366,66.822 l 0,0 C 0.213,66.536 0,66.276 0,65.549 l 0,0 C 0,64.822 0.213,64.573 0.366,64.29 l 0,0 C 0.52,64.006 0.685,63.755 0.872,63.494 l 0,0 c 0.375,-0.521 0.825,-1.068 1.266,-1.605 l 0,0 C 2.58,61.35 3.018,60.828 3.322,60.428 l 0,0 c 0.086,-0.114 0.127,-0.171 0.187,-0.256 l 0,0 C 3.481,60.07 3.462,59.985 3.419,59.846 l 0,0 C 3.268,59.366 3.038,58.72 2.803,58.062 l 0,0 C 2.569,57.403 2.329,56.735 2.152,56.116 l 0,0 C 2.064,55.809 1.993,55.515 1.945,55.196 l 0,0 C 1.896,54.877 1.782,54.575 2.028,53.888 l 0,0 c 0.246,-0.687 0.533,-0.852 0.775,-1.066 l 0,0 C 3.044,52.61 3.286,52.429 3.551,52.248 l 0,0 C 4.08,51.888 4.69,51.534 5.288,51.183 l 0,0 C 5.884,50.832 6.467,50.49 6.886,50.221 l 0,0 c 0.116,-0.075 0.172,-0.127 0.256,-0.188 l 0,0 c 0.008,-0.105 0.015,-0.176 0.02,-0.318 l 0,0 C 7.183,49.21 7.188,48.52 7.19,47.82 l 0,0 c 0.003,-0.7 -0.001,-1.414 0.042,-2.056 l 0,0 c 0.021,-0.323 0.049,-0.618 0.111,-0.935 l 0,0 c 0.061,-0.315 0.058,-0.644 0.526,-1.211 l 0,0 c 0.468,-0.567 0.8,-0.622 1.1,-0.74 l 0,0 c 0.3,-0.117 0.59,-0.199 0.899,-0.276 l 0,0 c 0.621,-0.157 1.307,-0.288 1.987,-0.41 l 0,0 c 0.679,-0.123 1.35,-0.235 1.833,-0.346 l 0,0 c 0.127,-0.035 0.189,-0.044 0.285,-0.069 l 0,0 c 0.042,-0.095 0.071,-0.159 0.125,-0.29 l 0,0 c 0.188,-0.468 0.419,-1.114 0.657,-1.772 l 0,0 c 0.237,-0.658 0.483,-1.32 0.74,-1.91 l 0,0 c 0.128,-0.294 0.257,-0.567 0.422,-0.844 l 0,0 c 0.165,-0.276 0.268,-0.588 0.907,-0.962 l 0,0 c 0.557,-0.328 0.876,-0.326 1.163,-0.325 l 0,0 c 0.042,0 0.082,0 0.124,0 l 0,0 c 0.323,0 0.624,0.034 0.941,0.055 l 0,0 c 0.138,0.015 0.294,0.05 0.436,0.069 l 0,0 0,-33.889 C 19.486,0.858 20.337,0.004 21.389,0.002 l 0,0 c 0.352,-0.001 0.698,0.097 0.998,0.281 l 0,0 11.35,6.996 L 44.921,0.29 C 45.234,0.094 45.583,0 45.928,0 l 0,0 0.001,0 c 0.634,0 1.254,0.317 1.615,0.895 l 0,0 c 0.19,0.303 0.291,0.655 0.29,1.014 l 0,0 0,33.889 c 0.142,-0.019 0.298,-0.054 0.437,-0.069 l 0,0 c 0.316,-0.036 0.618,-0.062 0.94,-0.055 l 0,0 c 0.323,0 0.649,-0.051 1.288,0.325 l 0,0 c 0.638,0.374 0.748,0.685 0.912,0.962 l 0,0 c 0.166,0.277 0.295,0.55 0.423,0.844 l 0,0 c 0.257,0.59 0.497,1.252 0.733,1.91 l 0,0 c 0.239,0.658 0.469,1.304 0.659,1.772 l 0,0 c 0.05,0.127 0.087,0.187 0.131,0.284 l 0,0 c 0.095,0.035 0.156,0.047 0.283,0.075 l 0,0 c 0.484,0.108 1.148,0.223 1.828,0.346 l 0,0 c 0.678,0.124 1.372,0.256 1.992,0.41 l 0,0 c 0.31,0.077 0.6,0.159 0.901,0.276 l 0,0 c 0.3,0.117 0.624,0.173 1.092,0.74 l 0,0 c 0.468,0.567 0.465,0.895 0.527,1.211 l 0,0 c 0.06,0.316 0.09,0.614 0.109,0.935 l 0,0 c 0.044,0.642 0.048,1.356 0.05,2.056 l 0,0 c 10e-4,0.7 0,1.39 0.021,1.895 l 0,0 c 0.005,0.142 0.011,0.213 0.02,0.318 l 0,0 c 0.084,0.057 0.141,0.113 0.257,0.188 l 0,0 c 0.418,0.269 1.009,0.609 1.605,0.962 l 0,0 c 0.595,0.35 1.201,0.705 1.729,1.065 l 0,0 c 0.265,0.181 0.507,0.361 0.747,0.574 l 0,0 c 0.242,0.213 0.53,0.38 0.776,1.066 l 0,0 c 0.246,0.687 0.132,0.99 0.084,1.308 l 0,0 c -0.049,0.32 -0.127,0.611 -0.215,0.92 l 0,0 c -0.177,0.619 -0.41,1.287 -0.645,1.946 l 0,0 c -0.234,0.658 -0.464,1.304 -0.614,1.784 l 0,0 c -0.044,0.139 -0.063,0.224 -0.09,0.326 l 0,0 c 0.059,0.085 0.1,0.142 0.186,0.256 l 0,0 c 0.304,0.4 0.742,0.922 1.183,1.461 l 0,0 c 0.443,0.537 0.892,1.084 1.268,1.605 l 0,0 c 0.187,0.262 0.357,0.513 0.511,0.796 l 0,0 c 0.155,0.283 0.359,0.532 0.359,1.259 l 0,0 c 0,0.728 -0.204,0.984 -0.359,1.266 l 0,0 c -0.154,0.284 -0.324,0.536 -0.511,0.797 l 0,0 c -0.376,0.521 -0.825,1.067 -1.268,1.605 l 0,0 c -0.441,0.538 -0.879,1.06 -1.183,1.46 l 0,0 c -0.086,0.114 -0.127,0.178 -0.186,0.264 l 0,0 c 0.027,0.102 0.046,0.179 0.09,0.317 l 0,0 c 0.15,0.481 0.38,1.121 0.614,1.779 l 0,0 c 0.235,0.659 0.468,1.333 0.645,1.951 l 0,0 c 0.088,0.309 0.166,0.603 0.215,0.922 l 0,0 c 0.048,0.317 0.162,0.622 -0.084,1.306 l 0,0 c -0.246,0.687 -0.534,0.853 -0.776,1.067 l 0,0 c -0.24,0.212 -0.482,0.394 -0.747,0.574 l 0,0 c -0.528,0.361 -1.134,0.721 -1.729,1.073 l 0,0 c -0.596,0.35 -1.187,0.692 -1.605,0.962 l 0,0 c -0.115,0.074 -0.173,0.12 -0.257,0.179 l 0,0 c -0.009,0.106 -0.015,0.181 -0.02,0.326 l 0,0 c -0.02,0.506 -0.02,1.196 -0.021,1.896 l 0,0 c -0.002,0.7 -0.007,1.413 -0.05,2.056 l 0,0 c -0.019,0.322 -0.049,0.618 -0.109,0.934 l 0,0 c -0.061,0.315 -0.065,0.642 -0.527,1.204 l 0,0 c -0.468,0.566 -0.792,0.629 -1.092,0.747 l 0,0 c -0.301,0.117 -0.591,0.2 -0.901,0.276 l 0,0 c -0.62,0.157 -1.314,0.288 -1.992,0.409 l 0,0 c -0.68,0.124 -1.344,0.236 -1.828,0.347 l 0,0 c -0.127,0.035 -0.188,0.047 -0.283,0.076 l 0,0 c -0.043,0.092 -0.081,0.156 -0.131,0.283 l 0,0 c -0.19,0.468 -0.42,1.108 -0.659,1.765 l 0,0 c -0.236,0.658 -0.476,1.328 -0.733,1.917 l 0,0 c -0.128,0.294 -0.257,0.568 -0.423,0.845 l 0,0 c -0.164,0.276 -0.273,0.587 -0.912,0.961 l 0,0 c -0.558,0.326 -0.877,0.325 -1.164,0.325 l 0,0 c -0.042,0 -0.083,0 -0.124,10e-4 l 0,0 c -0.322,0 -0.624,-0.035 -0.94,-0.056 l 0,0 c -0.635,-0.068 -1.329,-0.191 -2.008,-0.311 l 0,0 c -0.68,-0.121 -1.343,-0.237 -1.835,-0.305 l 0,0 c -0.125,0 -0.187,-0.035 -0.282,-0.035 l 0,0 c -0.069,0.071 -0.12,0.115 -0.207,0.215 l 0,0 c -0.337,0.373 -0.767,0.898 -1.212,1.433 l 0,0 c -0.445,0.535 -0.902,1.078 -1.343,1.543 l 0,0 c -0.22,0.233 -0.436,0.447 -0.685,0.65 l 0,0 c -0.249,0.206 -0.451,0.464 -1.184,0.596 l 0,0 c -0.17,0.03 -0.316,0.045 -0.443,0.047 l 0,0 -0.082,0 z M 24.443,91.32 c 0.583,0.217 0.736,0.423 0.955,0.623 l 0,0 c 0.218,0.203 0.413,0.419 0.623,0.651 l 0,0 c 0.418,0.467 0.864,1.011 1.301,1.537 l 0,0 c 0.424,0.509 0.838,0.989 1.156,1.328 l 0,0 0,-0.014 c 0.411,-0.209 0.948,-0.513 1.515,-0.844 l 0,0 c 0.587,-0.34 1.194,-0.703 1.745,-0.996 l 0,0 c 0.275,-0.146 0.535,-0.273 0.809,-0.388 l 0,0 c 0.274,-0.114 0.49,-0.249 1.114,-0.249 l 0,0 c 0.625,0 0.84,0.135 1.114,0.249 l 0,0 c 0.275,0.113 0.534,0.241 0.81,0.388 l 0,0 c 0.551,0.294 1.157,0.654 1.744,0.996 l 0,0 c 0.566,0.33 1.112,0.63 1.521,0.838 l 0,0 c 0.319,-0.341 0.729,-0.815 1.15,-1.322 l 0,0 c 0.436,-0.526 0.883,-1.071 1.302,-1.537 l 0,0 c 0.209,-0.234 0.41,-0.449 0.629,-0.65 l 0,0 c 0.219,-0.203 0.371,-0.407 0.955,-0.623 l 0,0 c 0.583,-0.216 0.831,-0.156 1.128,-0.145 l 0,0 c 0.296,0 0.585,0.051 0.893,0.09 l 0,0 c 0.617,0.085 1.305,0.208 1.972,0.325 l 0,0 c 0.644,0.113 1.26,0.217 1.716,0.27 l 0,0 c 0.185,-0.43 0.415,-1.037 0.644,-1.668 l 0,0 c 0.233,-0.646 0.463,-1.307 0.699,-1.889 l 0,0 c 0.117,-0.291 0.237,-0.561 0.374,-0.824 l 0,0 c 0.137,-0.262 0.207,-0.512 0.678,-0.913 l 0,0 c 0.471,-0.401 0.735,-0.435 1.017,-0.526 l 0,0 c 0.283,-0.092 0.56,-0.162 0.865,-0.229 l 0,0 c 0.609,-0.134 1.299,-0.251 1.965,-0.374 l 0,0 c 0.649,-0.117 1.269,-0.243 1.716,-0.352 l 0,0 c 0.03,-0.47 0.041,-1.125 0.042,-1.799 l 0,0 c 10e-4,-0.689 -0.004,-1.393 0.021,-2.021 l 0,0 c 0.013,-0.316 0.037,-0.612 0.077,-0.907 l 0,0 c 0.039,-0.294 0.021,-0.546 0.325,-1.079 l 0,0 c 0.303,-0.534 0.533,-0.655 0.768,-0.838 l 0,0 c 0.233,-0.184 0.471,-0.351 0.733,-0.519 l 0,0 c 0.525,-0.337 1.13,-0.685 1.716,-1.031 l 0,0 c 0.576,-0.34 1.132,-0.674 1.516,-0.934 l 0,0 c -0.13,-0.453 -0.346,-1.075 -0.574,-1.716 l 0,0 c -0.231,-0.647 -0.469,-1.311 -0.658,-1.91 l 0,0 c -0.094,-0.302 -0.172,-0.583 -0.235,-0.872 l 0,0 c -0.062,-0.291 -0.16,-0.527 -0.055,-1.129 l 0,0 c 0.104,-0.601 0.279,-0.793 0.436,-1.045 l 0,0 c 0.156,-0.252 0.323,-0.49 0.512,-0.74 l 0,0 c 0.378,-0.499 0.832,-1.036 1.265,-1.564 l 0,0 c 0.431,-0.523 0.841,-1.039 1.116,-1.419 l 0,0 C 63.284,65.17 62.873,64.661 62.442,64.138 l 0,0 c -0.433,-0.529 -0.887,-1.066 -1.265,-1.565 l 0,0 c -0.189,-0.248 -0.356,-0.488 -0.512,-0.74 l 0,0 C 60.508,61.581 60.333,61.39 60.229,60.788 l 0,0 C 60.124,60.187 60.222,59.95 60.284,59.66 l 0,0 c 0.063,-0.291 0.141,-0.572 0.235,-0.872 l 0,0 c 0.189,-0.599 0.427,-1.264 0.658,-1.91 l 0,0 c 0.228,-0.642 0.444,-1.263 0.574,-1.716 l 0,0 c -0.384,-0.258 -0.94,-0.595 -1.516,-0.934 l 0,0 C 59.649,53.88 59.044,53.527 58.519,53.189 l 0,0 c -0.262,-0.169 -0.5,-0.329 -0.733,-0.512 l 0,0 C 57.551,52.493 57.32,52.372 57.018,51.84 l 0,0 c -0.304,-0.534 -0.286,-0.792 -0.325,-1.087 l 0,0 c -0.04,-0.294 -0.065,-0.585 -0.077,-0.899 l 0,0 c -0.025,-0.629 -0.02,-1.34 -0.021,-2.028 l 0,0 c -10e-4,-0.678 -0.011,-1.329 -0.042,-1.8 l 0,0 C 56.106,45.917 55.486,45.801 54.837,45.68 l 0,0 c -0.666,-0.119 -1.356,-0.236 -1.965,-0.373 l 0,0 c -0.305,-0.068 -0.583,-0.14 -0.865,-0.228 l 0,0 C 51.725,44.986 51.461,44.955 50.99,44.553 l 0,0 c -0.471,-0.401 -0.541,-0.651 -0.678,-0.914 l 0,0 c -0.137,-0.262 -0.257,-0.533 -0.374,-0.823 l 0,0 c -0.236,-0.583 -0.466,-1.25 -0.699,-1.896 l 0,0 C 49.01,40.289 48.78,39.688 48.595,39.259 l 0,0 c -0.456,0.052 -1.072,0.156 -1.716,0.269 l 0,0 c -0.667,0.118 -1.355,0.24 -1.972,0.326 l 0,0 c -0.308,0.042 -0.597,0.072 -0.893,0.083 l 0,0 c -0.297,0 -0.545,0.073 -1.128,-0.138 l 0,0 C 42.303,39.582 42.15,39.376 41.931,39.176 l 0,0 c -0.218,-0.202 -0.42,-0.411 -0.629,-0.643 l 0,0 C 40.883,38.066 40.436,37.522 40,36.995 l 0,0 c -0.423,-0.51 -0.837,-0.989 -1.155,-1.328 l 0,0 c -0.411,0.209 -0.951,0.516 -1.516,0.843 l 0,0 c -0.587,0.344 -1.193,0.705 -1.744,0.998 l 0,0 c -0.276,0.145 -0.535,0.272 -0.81,0.387 l 0,0 c -0.274,0.114 -0.49,0.256 -1.114,0.256 l 0,0 c -0.624,0 -0.84,-0.142 -1.114,-0.256 l 0,0 c -0.274,-0.113 -0.534,-0.247 -0.809,-0.394 l 0,0 C 31.187,37.207 30.58,36.853 29.993,36.51 l 0,0 c -0.567,-0.328 -1.105,-0.636 -1.515,-0.843 l 0,0 c -0.318,0.34 -0.732,0.818 -1.156,1.328 l 0,0 c -0.437,0.527 -0.883,1.071 -1.301,1.538 l 0,0 c -0.21,0.233 -0.405,0.442 -0.623,0.643 l 0,0 c -0.219,0.202 -0.371,0.414 -0.955,0.63 l 0,0 c -0.583,0.215 -0.839,0.155 -1.135,0.144 l 0,0 c -0.296,0 -0.585,-0.044 -0.893,-0.083 l 0,0 C 21.798,39.782 21.11,39.659 20.443,39.542 l 0,0 c -0.647,-0.113 -1.26,-0.216 -1.717,-0.27 l 0,0 c -0.185,0.43 -0.408,1.031 -0.636,1.662 l 0,0 c -0.234,0.645 -0.471,1.313 -0.706,1.895 l 0,0 c -0.118,0.291 -0.237,0.561 -0.373,0.825 l 0,0 c -0.137,0.261 -0.208,0.512 -0.679,0.912 l 0,0 c -0.47,0.402 -0.728,0.435 -1.01,0.527 l 0,0 c -0.282,0.091 -0.568,0.161 -0.872,0.228 l 0,0 c -0.608,0.134 -1.291,0.251 -1.958,0.373 l 0,0 c -0.653,0.118 -1.277,0.237 -1.724,0.347 l 0,0 c -0.03,0.47 -0.033,1.121 -0.034,1.799 l 0,0 c -0.002,0.688 -0.003,1.399 -0.028,2.027 l 0,0 c -0.012,0.315 -0.029,0.606 -0.069,0.9 l 0,0 c -0.039,0.295 -0.029,0.552 -0.332,1.087 l 0,0 c -0.304,0.534 -0.535,0.654 -0.769,0.837 l 0,0 c -0.233,0.184 -0.47,0.344 -0.733,0.513 l 0,0 c -0.526,0.336 -1.13,0.692 -1.716,1.037 l 0,0 c -0.576,0.34 -1.132,0.674 -1.516,0.934 l 0,0 c 0.13,0.453 0.339,1.075 0.568,1.717 l 0,0 c 0.229,0.646 0.476,1.31 0.664,1.909 l 0,0 c 0.094,0.301 0.173,0.583 0.235,0.873 l 0,0 c 0.062,0.29 0.16,0.526 0.056,1.128 l 0,0 c -0.105,0.6 -0.28,0.793 -0.437,1.045 l 0,0 C 6.501,62.098 6.328,62.331 6.139,62.58 l 0,0 c -0.38,0.499 -0.826,1.043 -1.26,1.571 l 0,0 C 4.45,64.674 4.038,65.183 3.765,65.563 l 0,0 c 0.273,0.379 0.685,0.896 1.114,1.419 l 0,0 c 0.434,0.528 0.88,1.065 1.26,1.564 l 0,0 c 0.189,0.248 0.362,0.489 0.518,0.74 l 0,0 c 0.157,0.252 0.332,0.444 0.437,1.045 l 0,0 c 0.104,0.602 0.006,0.838 -0.056,1.128 l 0,0 C 6.976,71.75 6.897,72.031 6.803,72.331 l 0,0 c -0.188,0.6 -0.435,1.264 -0.664,1.91 l 0,0 C 5.91,74.883 5.701,75.505 5.571,75.957 l 0,0 c 0.384,0.259 0.94,0.595 1.516,0.934 l 0,0 c 0.586,0.348 1.19,0.694 1.716,1.032 l 0,0 c 0.263,0.17 0.5,0.337 0.733,0.519 l 0,0 c 0.234,0.184 0.465,0.305 0.769,0.837 l 0,0 c 0.303,0.534 0.293,0.786 0.332,1.079 l 0,0 c 0.04,0.296 0.057,0.593 0.069,0.908 l 0,0 c 0.025,0.628 0.026,1.332 0.028,2.02 l 0,0 c 10e-4,0.675 0.004,1.329 0.034,1.8 l 0,0 c 0.447,0.109 1.071,0.232 1.724,0.353 l 0,0 c 0.667,0.12 1.35,0.237 1.958,0.373 l 0,0 c 0.304,0.068 0.59,0.14 0.872,0.228 l 0,0 c 0.282,0.093 0.54,0.124 1.01,0.526 l 0,0 c 0.471,0.401 0.542,0.651 0.679,0.913 l 0,0 c 0.136,0.263 0.255,0.534 0.373,0.824 l 0,0 c 0.235,0.583 0.472,1.244 0.706,1.89 l 0,0 c 0.228,0.631 0.451,1.238 0.636,1.667 l 0,0 c 0.457,-0.053 1.07,-0.156 1.717,-0.269 l 0,0 c 0.667,-0.118 1.356,-0.24 1.972,-0.326 l 0,0 c 0.308,-0.042 0.597,-0.079 0.893,-0.09 l 0,0 c 0.118,0 0.229,-0.011 0.357,-0.011 l 0,0 c 0.194,0 0.426,0.026 0.778,0.156 M 39.515,31.944 c 0.732,0.131 0.936,0.391 1.184,0.596 l 0,0 c 0.249,0.201 0.465,0.417 0.685,0.649 l 0,0 c 0.441,0.466 0.898,1.008 1.343,1.544 l 0,0 c 0.445,0.534 0.875,1.059 1.212,1.432 l 0,0 c 0.037,0.042 0.06,0.062 0.089,0.09 l 0,0 0,-30.913 -9.274,5.792 c -0.614,0.382 -1.392,0.382 -2.007,0 l 0,0 -9.452,-5.828 0,30.949 c 0.028,-0.028 0.051,-0.048 0.09,-0.09 l 0,0 c 0.334,-0.373 0.772,-0.898 1.217,-1.432 l 0,0 c 0.445,-0.536 0.895,-1.078 1.336,-1.544 l 0,0 c 0.22,-0.234 0.435,-0.447 0.685,-0.649 l 0,0 c 0.249,-0.207 0.458,-0.466 1.191,-0.596 l 0,0 c 0.732,-0.132 1.016,0.038 1.322,0.145 l 0,0 c 0.305,0.107 0.578,0.23 0.864,0.374 l 0,0 c 0.572,0.284 1.18,0.641 1.779,0.989 l 0,0 c 0.041,0.023 0.069,0.039 0.11,0.062 l 0,0 0,-15.791 3.544,0 0,15.791 c 0.04,-0.023 0.069,-0.039 0.111,-0.062 l 0,0 c 0.597,-0.346 1.213,-0.704 1.785,-0.989 l 0,0 c 0.286,-0.141 0.56,-0.27 0.865,-0.374 l 0,0 c 0.226,-0.079 0.44,-0.193 0.835,-0.193 l 0,0 c 0.137,0 0.297,0.014 0.486,0.048"
                 style="fill:url(#linearGradient4326);stroke:none"
                 id="path4324"
                 inkscape:connector-curvature="0" /></g></g></g></g></mask><linearGradient
       inkscape:collect="always"
       xlink:href="#linearGradient68"
       id="linearGradient4374"
       x1="2.8984034"
       y1="97.783562"
       x2="61.692951"
       y2="2.6560791"
       gradientUnits="userSpaceOnUse" /><linearGradient
       inkscape:collect="always"
       xlink:href="#linearGradient68"
       id="linearGradient4376"
       x1="2.8984034"
       y1="97.783562"
       x2="61.692951"
       y2="2.6560791"
       gradientUnits="userSpaceOnUse" /><linearGradient
       inkscape:collect="always"
       xlink:href="#linearGradient68"
       id="linearGradient4378"
       x1="2.8984034"
       y1="97.783562"
       x2="61.692951"
       y2="2.6560791"
       gradientUnits="userSpaceOnUse" /><linearGradient
       inkscape:collect="always"
       xlink:href="#linearGradient68"
       id="linearGradient4380"
       x1="2.8984034"
       y1="97.783562"
       x2="61.692951"
       y2="2.6560791"
       gradientUnits="userSpaceOnUse" /><linearGradient
       inkscape:collect="always"
       xlink:href="#linearGradient68"
       id="linearGradient4382"
       x1="2.8984034"
       y1="97.783562"
       x2="61.692951"
       y2="2.6560791"
       gradientUnits="userSpaceOnUse" /></defs><sodipodi:namedview
     pagecolor="#ffffff"
     bordercolor="#666666"
     borderopacity="1"
     objecttolerance="10"
     gridtolerance="10"
     guidetolerance="10"
     inkscape:pageopacity="0"
     inkscape:pageshadow="2"
     inkscape:window-width="1366"
     inkscape:window-height="705"
     id="namedview4"
     showgrid="false"
     inkscape:zoom="2.6911255"
     inkscape:cx="19.73186"
     inkscape:cy="65.932675"
     inkscape:window-x="-8"
     inkscape:window-y="-8"
     inkscape:window-maximized="1"
     inkscape:current-layer="g10" /><g
     id="g10"
     inkscape:groupmode="layer"
     inkscape:label=" -2"
     transform="matrix(1.25,0,0,-1.25,0,124.02038)"><path
       style="fill:none;fill-rule:evenodd;stroke:url(#linearGradient4382);stroke-width:4.48000002;stroke-linecap:butt;stroke-linejoin:miter;stroke-miterlimit:4;stroke-dasharray:none;stroke-opacity:1"
       d="m 33.814848,35.024164 0,-17.485036"
       id="path4284"
       inkscape:connector-curvature="0"
       mask="url(#mask4314)"
       sodipodi:nodetypes="cc" /><path
       style="fill:none;fill-rule:evenodd;stroke:url(#linearGradient4380);stroke-width:4.23999977;stroke-linecap:butt;stroke-linejoin:miter;stroke-miterlimit:4;stroke-dasharray:none;stroke-opacity:1"
       d="M 21.53957,36.630571 21.255047,1.93228 33.963485,9.512752 45.928739,1.93228 45.854419,36.96391"
       id="path4282"
       inkscape:connector-curvature="0"
       sodipodi:nodetypes="ccccc"
       mask="url(#mask4300)" /><path
       style="fill:none;fill-rule:evenodd;stroke:url(#linearGradient4378);stroke-width:4.15999985;stroke-linecap:butt;stroke-linejoin:miter;stroke-miterlimit:4;stroke-dasharray:none;stroke-opacity:1"
       d="M 32.698527,95.022385 28.389609,97.654311 23.633234,92.897936 17.98504,93.789756 15.160943,87.695652 9.1448917,86.366938 9.0668384,80.115181 3.5057134,76.977324 5.350921,70.305158 1.5208853,65.635854 5.350921,60.3465 3.6543501,54.339465 9.2154752,50.536478 8.9527202,44.703582 15.30958,42.956006 l 2.264068,-5.490541 6.146656,1.27771 4.372031,-4.959109 5.613677,2.974281 5.447006,-3.0088 4.326951,4.975595 6.016051,-1.268693 2.824097,5.796831 5.648194,1.635003 0.777702,6.44393 5.07168,3.199423 -1.984827,6.40941 3.715916,4.459101 -3.73395,5.481525 1.801674,5.814865 -5.184252,3.513183 -0.463943,6.445475 -5.796831,1.337731 -2.684477,5.771328 -5.639177,-0.866318 -4.589706,4.415566 -8.386769,-3.891603"
       id="path4266"
       inkscape:connector-curvature="0"
       sodipodi:nodetypes="ccccccccccccccccccccccccccccccccccccc"
       mask="url(#mask4286)" /><path
       style="fill:none;fill-rule:evenodd;stroke:url(#linearGradient4376);stroke-width:4.72;stroke-linecap:butt;stroke-linejoin:miter;stroke-opacity:1;stroke-miterlimit:4;stroke-dasharray:none"
       d="m 34.18644,86.655195 -8.026382,-1.040457 -6.094104,-3.715917 -4.161828,-4.459101 -2.824096,-6.540014 -0.891821,-8.175019 1.932277,-6.094105 2.67546,-4.4591 5.648195,-4.905012 6.837288,-2.526823 8.472292,-0.148637 8.175018,3.418644 4.756375,5.053648 2.67546,5.648194 1.635004,5.053648 -0.297274,6.540014 -2.378187,6.094105 -2.972734,3.567281 -3.864554,3.567281 -5.648195,2.67546 z"
       id="path4246"
       inkscape:connector-curvature="0"
       mask="url(#mask4252)" /><path
       style="fill:none;fill-rule:evenodd;stroke:url(#linearGradient4374);stroke-width:4.23999977;stroke-linecap:butt;stroke-linejoin:miter;stroke-miterlimit:4;stroke-dasharray:none;stroke-opacity:1"
       d="m 33.74053,79.966545 -4.384783,-9.438431 -8.249337,-1.78364 5.648196,-6.540016 -0.817503,-8.175017 7.803427,3.344325 7.580471,-3.121371 -0.594547,8.249337 5.202285,6.019786 -8.249337,2.006596 -5.350921,9.735703"
       id="path4204"
       inkscape:connector-curvature="0"
       sodipodi:nodetypes="ccccccccccc"
       mask="url(#mask4228)" /></g></svg>