<?xml version="1.0" encoding="UTF-8" standalone="no"?>
<!-- Created with Inkscape (http://www.inkscape.org/) -->

<svg
   xmlns:dc="http://purl.org/dc/elements/1.1/"
   xmlns:cc="http://creativecommons.org/ns#"
   xmlns:rdf="http://www.w3.org/1999/02/22-rdf-syntax-ns#"
   xmlns:svg="http://www.w3.org/2000/svg"
   xmlns="http://www.w3.org/2000/svg"
   xmlns:xlink="http://www.w3.org/1999/xlink"
   xmlns:sodipodi="http://sodipodi.sourceforge.net/DTD/sodipodi-0.dtd"
   xmlns:inkscape="http://www.inkscape.org/namespaces/inkscape"
   id="svg2"
   version="1.1"
   inkscape:version="0.91 r13725"
   xml:space="preserve"
   width="88.833"
   height="48.784126"
   viewBox="0 0 88.833 48.784126"
   sodipodi:docname="monetu-new.svg"><metadata
     id="metadata8"><rdf:RDF><cc:Work
         rdf:about=""><dc:format>image/svg+xml</dc:format><dc:type
           rdf:resource="http://purl.org/dc/dcmitype/StillImage" /></cc:Work></rdf:RDF></metadata><defs
     id="defs6"><linearGradient
       x1="0"
       y1="0"
       x2="1"
       y2="0"
       gradientUnits="userSpaceOnUse"
       gradientTransform="matrix(-11.10254,19.230162,19.230162,11.10254,56.710937,10.202637)"
       spreadMethod="pad"
       id="linearGradient24"><stop
         style="stop-opacity:1;stop-color:#f4d7d1"
         offset="0"
         id="stop26" /><stop
         style="stop-opacity:1;stop-color:#e3d4bd"
         offset="0.526501"
         id="stop28" /><stop
         style="stop-opacity:1;stop-color:#f4d7d1"
         offset="1"
         id="stop30" /></linearGradient><linearGradient
       x1="0"
       y1="0"
       x2="1"
       y2="0"
       gradientUnits="userSpaceOnUse"
       gradientTransform="matrix(-27.51807,47.662689,47.662689,27.51807,49.292481,-4.3173828)"
       spreadMethod="pad"
       id="linearGradient46"><stop
         style="stop-opacity:1;stop-color:#f4d7d1"
         offset="0"
         id="stop48" /><stop
         style="stop-opacity:1;stop-color:#e3d4bd"
         offset="0.526501"
         id="stop50" /><stop
         style="stop-opacity:1;stop-color:#f4d7d1"
         offset="1"
         id="stop52" /></linearGradient><linearGradient
       x1="0"
       y1="0"
       x2="1"
       y2="0"
       gradientUnits="userSpaceOnUse"
       gradientTransform="matrix(-13.967775,24.192892,24.192892,13.967775,25.136719,5.7104492)"
       spreadMethod="pad"
       id="linearGradient68"><stop
         style="stop-opacity:1;stop-color:#f4d7d1"
         offset="0"
         id="stop70" /><stop
         style="stop-opacity:1;stop-color:#e3d4bd"
         offset="0.526501"
         id="stop72" /><stop
         style="stop-opacity:1;stop-color:#f4d7d1"
         offset="1"
         id="stop74" /></linearGradient><clipPath
       clipPathUnits="userSpaceOnUse"
       id="clipPath4782"><g
         id="g4784"
         transform="matrix(1,0,0,1.0416098,0,-0.37803544)"><g
           id="g4786"><path
             d="m 50.469,31.616 0,-2.265734 c -3.745,-0.276108 -5.455,-2.581285 -5.455,-4.667228 l 0,0 c 0,-3.127996 2.955,-3.991177 5.455,-4.63237 l 0,0 0,-7.072392 c -2.33,0.253175 -3.766,1.506208 -4.432,2.257478 l 0,0 -0.329,0.371507 -1.45,-1.17598 0.29,-0.339401 c 1.365,-1.606195 3.508,-2.611557 5.921,-2.791348 l 0,0 0,-2.215282 1.869,0 0,2.247388 c 4.134,0.351326 5.619,2.74273 5.619,4.909396 l 0,0 c 0,3.255501 -2.736,4.35351 -5.619,5.147893 l 0,0 0,6.241317 c 1.517,-0.208227 2.739,-0.850338 3.638,-1.909821 l 0,0 0.334,-0.39444 1.423,1.201665 -0.295,0.335732 c -1.235,1.396133 -2.993,2.238215 -5.1,2.449194 l 0,0 0,2.302426 -1.869,0 z m -3.505,-6.932962 c 0,1.518134 1.481,2.757407 3.505,2.990402 l 0,0 0,-5.782667 c -2.325,0.674217 -3.505,1.338343 -3.505,2.792265 m 5.374,-5.130465 c 2.384,-0.710909 3.669,-1.501622 3.669,-3.310539 l 0,0 c 0,-0.874188 -0.368,-2.888582 -3.669,-3.258255 l 0,0 0,6.568794 z"
             style="fill:url(#linearGradient4790);stroke:none"
             id="path4788"
             inkscape:connector-curvature="0" /></g></g></clipPath><linearGradient
       inkscape:collect="always"
       xlink:href="#linearGradient24"
       id="linearGradient4790"
       gradientUnits="userSpaceOnUse"
       gradientTransform="matrix(-11.10254,17.639849,19.230162,10.184372,56.710937,11.400185)"
       spreadMethod="pad"
       x1="0"
       y1="0"
       x2="1"
       y2="0" /><clipPath
       clipPathUnits="userSpaceOnUse"
       id="clipPath4792"><g
         id="g4794"
         transform="matrix(1,0,0,1.0416098,0,-0.37803544)"><g
           id="g4796"><path
             d="m 50.469,31.616 0,-2.265734 c -3.745,-0.276108 -5.455,-2.581285 -5.455,-4.667228 l 0,0 c 0,-3.127996 2.955,-3.991177 5.455,-4.63237 l 0,0 0,-7.072392 c -2.33,0.253175 -3.766,1.506208 -4.432,2.257478 l 0,0 -0.329,0.371507 -1.45,-1.17598 0.29,-0.339401 c 1.365,-1.606195 3.508,-2.611557 5.921,-2.791348 l 0,0 0,-2.215282 1.869,0 0,2.247388 c 4.134,0.351326 5.619,2.74273 5.619,4.909396 l 0,0 c 0,3.255501 -2.736,4.35351 -5.619,5.147893 l 0,0 0,6.241317 c 1.517,-0.208227 2.739,-0.850338 3.638,-1.909821 l 0,0 0.334,-0.39444 1.423,1.201665 -0.295,0.335732 c -1.235,1.396133 -2.993,2.238215 -5.1,2.449194 l 0,0 0,2.302426 -1.869,0 z m -3.505,-6.932962 c 0,1.518134 1.481,2.757407 3.505,2.990402 l 0,0 0,-5.782667 c -2.325,0.674217 -3.505,1.338343 -3.505,2.792265 m 5.374,-5.130465 c 2.384,-0.710909 3.669,-1.501622 3.669,-3.310539 l 0,0 c 0,-0.874188 -0.368,-2.888582 -3.669,-3.258255 l 0,0 0,6.568794 z"
             style="fill:url(#linearGradient4800);stroke:none"
             id="path4798"
             inkscape:connector-curvature="0" /></g></g></clipPath><linearGradient
       inkscape:collect="always"
       xlink:href="#linearGradient24"
       id="linearGradient4800"
       gradientUnits="userSpaceOnUse"
       gradientTransform="matrix(-11.10254,17.639849,19.230162,10.184372,56.710937,11.400185)"
       spreadMethod="pad"
       x1="0"
       y1="0"
       x2="1"
       y2="0" /><clipPath
       clipPathUnits="userSpaceOnUse"
       id="clipPath4802"><g
         id="g4804"><g
           id="g4806"><path
             d="m 51.555,39.028 c -6.403,0 -12.346,-3.132 -16.009,-8.407 l 0,0 c -3.661,5.273 -9.612,8.403 -16.034,8.403 l 0,0 C 8.753,39.024 0,30.271 0,19.513 l 0,0 C 0,8.753 8.753,0 19.512,0 l 0,0 c 6.422,0 12.375,3.132 16.035,8.406 l 0,0 C 39.209,3.133 45.152,0.003 51.555,0.003 l 0,0 c 10.758,0 19.512,8.753 19.512,19.513 l 0,0 c 0,10.758 -8.754,19.512 -19.512,19.512 z M 36.558,10.024 c 1.614,2.89 2.465,6.165 2.465,9.489 l 0,0 c 0,3.321 -0.85,6.593 -2.461,9.481 l 0,0 c 3.288,5.191 8.877,8.283 14.993,8.283 l 0,0 c 9.793,0 17.761,-7.968 17.761,-17.761 l 0,0 C 69.316,9.721 61.348,1.753 51.555,1.753 l 0,0 c -6.119,0 -11.709,3.087 -14.997,8.271 M 1.75,19.513 c 0,9.794 7.968,17.761 17.762,17.761 l 0,0 c 9.794,0 17.761,-7.967 17.761,-17.761 l 0,0 C 37.273,9.718 29.306,1.75 19.512,1.75 l 0,0 C 9.718,1.75 1.75,9.718 1.75,19.513"
             style="fill:url(#linearGradient4810);stroke:none"
             id="path4808"
             inkscape:connector-curvature="0" /></g></g></clipPath><linearGradient
       inkscape:collect="always"
       xlink:href="#linearGradient46"
       id="linearGradient4810"
       gradientUnits="userSpaceOnUse"
       gradientTransform="matrix(-27.51807,47.662689,47.662689,27.51807,49.292481,-4.3173828)"
       spreadMethod="pad"
       x1="0"
       y1="0"
       x2="1"
       y2="0" /><clipPath
       clipPathUnits="userSpaceOnUse"
       id="clipPath4812"><g
         id="g4814"><g
           id="g4816"><path
             d="m 51.555,39.028 c -6.403,0 -12.346,-3.132 -16.009,-8.407 l 0,0 c -3.661,5.273 -9.612,8.403 -16.034,8.403 l 0,0 C 8.753,39.024 0,30.271 0,19.513 l 0,0 C 0,8.753 8.753,0 19.512,0 l 0,0 c 6.422,0 12.375,3.132 16.035,8.406 l 0,0 C 39.209,3.133 45.152,0.003 51.555,0.003 l 0,0 c 10.758,0 19.512,8.753 19.512,19.513 l 0,0 c 0,10.758 -8.754,19.512 -19.512,19.512 z M 36.558,10.024 c 1.614,2.89 2.465,6.165 2.465,9.489 l 0,0 c 0,3.321 -0.85,6.593 -2.461,9.481 l 0,0 c 3.288,5.191 8.877,8.283 14.993,8.283 l 0,0 c 9.793,0 17.761,-7.968 17.761,-17.761 l 0,0 C 69.316,9.721 61.348,1.753 51.555,1.753 l 0,0 c -6.119,0 -11.709,3.087 -14.997,8.271 M 1.75,19.513 c 0,9.794 7.968,17.761 17.762,17.761 l 0,0 c 9.794,0 17.761,-7.967 17.761,-17.761 l 0,0 C 37.273,9.718 29.306,1.75 19.512,1.75 l 0,0 C 9.718,1.75 1.75,9.718 1.75,19.513"
             style="fill:url(#linearGradient4820);stroke:none"
             id="path4818"
             inkscape:connector-curvature="0" /></g></g></clipPath><linearGradient
       inkscape:collect="always"
       xlink:href="#linearGradient46"
       id="linearGradient4820"
       gradientUnits="userSpaceOnUse"
       gradientTransform="matrix(-27.51807,47.662689,47.662689,27.51807,49.292481,-4.3173828)"
       spreadMethod="pad"
       x1="0"
       y1="0"
       x2="1"
       y2="0" /><linearGradient
       inkscape:collect="always"
       xlink:href="#linearGradient24"
       id="linearGradient4860"
       x1="-7.9359822"
       y1="33.071873"
       x2="27.824471"
       y2="-28.690619"
       gradientUnits="userSpaceOnUse" /><linearGradient
       inkscape:collect="always"
       xlink:href="#linearGradient24"
       id="linearGradient4862"
       x1="16.679197"
       y1="43.736656"
       x2="45.082329"
       y2="-5.3188772"
       gradientUnits="userSpaceOnUse" /><linearGradient
       inkscape:collect="always"
       xlink:href="#linearGradient24"
       id="linearGradient4864"
       x1="16.679197"
       y1="43.736656"
       x2="45.082329"
       y2="-5.3188772"
       gradientUnits="userSpaceOnUse" /><linearGradient
       inkscape:collect="always"
       xlink:href="#linearGradient24"
       id="linearGradient4866"
       x1="16.679197"
       y1="43.736656"
       x2="45.082329"
       y2="-5.3188772"
       gradientUnits="userSpaceOnUse" /><linearGradient
       inkscape:collect="always"
       xlink:href="#linearGradient24"
       id="linearGradient4868"
       x1="16.679197"
       y1="43.736656"
       x2="45.082329"
       y2="-5.3188772"
       gradientUnits="userSpaceOnUse" /><linearGradient
       inkscape:collect="always"
       xlink:href="#linearGradient24"
       id="linearGradient4870"
       gradientUnits="userSpaceOnUse"
       x1="-7.9359822"
       y1="33.071873"
       x2="27.824471"
       y2="-28.690619" /></defs><sodipodi:namedview
     pagecolor="#ffffff"
     bordercolor="#666666"
     borderopacity="1"
     objecttolerance="10"
     gridtolerance="10"
     guidetolerance="10"
     inkscape:pageopacity="0"
     inkscape:pageshadow="2"
     inkscape:window-width="1366"
     inkscape:window-height="705"
     id="namedview4"
     showgrid="false"
     showguides="true"
     inkscape:guide-bbox="true"
     inkscape:zoom="3.6203867"
     inkscape:cx="53.166732"
     inkscape:cy="5.2411321"
     inkscape:window-x="-8"
     inkscape:window-y="-8"
     inkscape:window-maximized="1"
     inkscape:current-layer="g10" /><g
     id="g10"
     inkscape:groupmode="layer"
     inkscape:label="Векторный смарт-объект6"
     transform="matrix(1.25,0,0,-1.25,0,48.784125)"><path
       style="fill:none;fill-rule:evenodd;stroke:url(#linearGradient4868);stroke-width:2.8;stroke-linecap:butt;stroke-linejoin:miter;stroke-miterlimit:4;stroke-dasharray:none;stroke-opacity:1"
       d="m 57.203834,26.406018 -1.077233,1.187719 -1.712524,1.104853 -1.933495,0.497185 -2.485923,0.08286 -2.126844,-0.801019 -1.491553,-1.21534 -0.359079,-1.767767 0.19335,-1.795388 1.132476,-1.049612 2.568786,-1.077233 5.386165,-1.795388 1.491554,-1.657282 0.165728,-2.209708 -0.856262,-1.961117 -1.546796,-1.187719 -2.071602,-0.469562 -2.734515,-0.02762 -2.016359,0.690534 -1.43631,1.049612 -1.574418,1.519174"
       id="path4234"
       inkscape:connector-curvature="0"
       sodipodi:nodetypes="ccccccccccccccccccccc"
       clip-path="url(#clipPath4792)" /><path
       style="fill:none;fill-rule:evenodd;stroke:url(#linearGradient4866);stroke-width:1.91999996;stroke-linecap:butt;stroke-linejoin:miter;stroke-miterlimit:4;stroke-dasharray:none;stroke-opacity:1"
       d="M 51.400428,32.653473 51.403,8.9306211"
       id="path4232"
       inkscape:connector-curvature="0"
       sodipodi:nodetypes="cc"
       clip-path="url(#clipPath4782)" /><path
       style="fill:none;fill-rule:evenodd;stroke:url(#linearGradient4864);stroke-width:2.07999992;stroke-linecap:butt;stroke-linejoin:miter;stroke-miterlimit:4;stroke-dasharray:none;stroke-opacity:1"
       d="m 35.507813,29.335937 1.679687,2.070312 2.382813,2.382813 2.421875,1.757812 3.125,1.5625 3.320312,0.859375 2.96875,0.15625 3.007813,-0.273437 3.320312,-0.703125 2.656251,-1.289063 2.851562,-1.835937 2.109375,-1.992188 2.03125,-2.617187 1.445313,-2.65625 0.898437,-2.65625 0.46875,-3.125 L 70.078126,18.164061 69.804688,15.156249 68.59375,11.640624 66.640626,8.5546864 64.414063,5.9765616 61.601563,3.7499992 58.359375,2.0312488 55.351563,1.1328112 51.289062,0.7421864 l -3.359374,0.3125 -3.945313,1.3671872 -2.695313,1.4453128 -2.382812,1.9140624 -1.953124,2.0703128 -1.406251,1.9921872"
       id="path4230"
       inkscape:connector-curvature="0"
       sodipodi:nodetypes="ccccccccccccccccccccccccccccccc"
       clip-path="url(#clipPath4812)" /><path
       style="fill:none;fill-rule:evenodd;stroke:url(#linearGradient4862);stroke-width:2.24000001;stroke-linecap:butt;stroke-linejoin:miter;stroke-miterlimit:4;stroke-dasharray:none;stroke-opacity:1"
       d="m 34.425692,30.415854 -1.556275,2.177348 -2.651651,2.209709 -3.535533,1.988738 -3.148835,0.883883 L 20.218834,38.22796 17.014757,37.951746 13.534466,37.178348 10.330388,35.742037 8.0654368,34.195241 5.7452426,32.096018 3.6298391,29.304297 2.4306796,26.737474 1.160097,22.925726 0.88388352,19.058737 1.3810679,15.136503 2.7621358,11.103786 4.8061164,8.065436 7.5682523,5.137572 11.159029,2.8173776 14.915534,1.325824 l 3.922232,-0.4419416 4.640389,0.331456 4.087961,1.381068 2.872622,1.6020392 2.983106,2.927864 1.26388,1.9792596 1.247701,1.9820358 1.631623,3.441229 0.578085,3.756504 -0.136143,3.977476 -0.883884,3.590777 -1.313572,2.239293 z"
       id="path4228"
       inkscape:connector-curvature="0"
       sodipodi:nodetypes="cccccccccccccccccccccccccccccccccc"
       clip-path="url(#clipPath4802)" /><g
       id="g50"
       transform="matrix(0.7168205,0,0,0.7168205,22.64836,17.832505)"
       style="stroke:url(#linearGradient4860);stroke-width:1.9066782;stroke-miterlimit:4;stroke-dasharray:none;stroke-opacity:1"><path
         d="M 0,0 C -5.394,0 -8.22,-0.619 -10.326,-1.762 L -4.386,9.68 0.706,0 0,0 Z m -3.712,17.444 c -1.202,0.71 -2.76,0.605 -2.76,0.605 l -2.301,0 1.715,-3.277 -12.504,-23.444 5.445,0 0.519,0.887 c 1.874,1.6 6.745,3.099 13.648,3.046 l 3.127,0 2.066,-3.933 5.698,0 -12.514,23.684 c 0,0 -0.936,1.723 -2.139,2.432"
         style="fill:#ffffff;fill-opacity:1;fill-rule:nonzero;stroke:url(#linearGradient4870);stroke-width:1.9066782;stroke-miterlimit:4;stroke-dasharray:none;stroke-opacity:1"
         id="path52"
         inkscape:connector-curvature="0" /></g></g></svg>