<?xml version="1.0" encoding="UTF-8" standalone="no"?>
<!-- Created with Inkscape (http://www.inkscape.org/) -->

<svg
   xmlns:dc="http://purl.org/dc/elements/1.1/"
   xmlns:cc="http://creativecommons.org/ns#"
   xmlns:rdf="http://www.w3.org/1999/02/22-rdf-syntax-ns#"
   xmlns:svg="http://www.w3.org/2000/svg"
   xmlns="http://www.w3.org/2000/svg"
   xmlns:sodipodi="http://sodipodi.sourceforge.net/DTD/sodipodi-0.dtd"
   xmlns:inkscape="http://www.inkscape.org/namespaces/inkscape"
   id="svg2"
   version="1.1"
   inkscape:version="0.91 r13725"
   xml:space="preserve"
   width="59.502625"
   height="70.389999"
   viewBox="0 0 59.502625 70.389999"
   sodipodi:docname="moneta2.svg"><metadata
     id="metadata8"><rdf:RDF><cc:Work
         rdf:about=""><dc:format>image/svg+xml</dc:format><dc:type
           rdf:resource="http://purl.org/dc/dcmitype/StillImage" /><dc:title></dc:title></cc:Work></rdf:RDF></metadata><defs
     id="defs6"><linearGradient
       x1="0"
       y1="0"
       x2="1"
       y2="0"
       gradientUnits="userSpaceOnUse"
       gradientTransform="matrix(47.602051,0,0,-47.602051,0,11.869141)"
       spreadMethod="pad"
       id="linearGradient24"><stop
         style="stop-opacity:1;stop-color:#f5d1ca"
         offset="0"
         id="stop26" /><stop
         style="stop-opacity:1;stop-color:#e0cfb3"
         offset="0.526501"
         id="stop28" /><stop
         style="stop-opacity:1;stop-color:#f5d1ca"
         offset="1"
         id="stop30" /></linearGradient><linearGradient
       x1="0"
       y1="0"
       x2="1"
       y2="0"
       gradientUnits="userSpaceOnUse"
       gradientTransform="matrix(-14.117678,24.452532,24.452532,14.117678,33.859375,29.970215)"
       spreadMethod="pad"
       id="linearGradient46"><stop
         style="stop-opacity:1;stop-color:#f5d1ca"
         offset="0"
         id="stop48" /><stop
         style="stop-opacity:1;stop-color:#e0cfb3"
         offset="0.526501"
         id="stop50" /><stop
         style="stop-opacity:1;stop-color:#f5d1ca"
         offset="1"
         id="stop52" /></linearGradient></defs><sodipodi:namedview
     pagecolor="#ffffff"
     bordercolor="#666666"
     borderopacity="1"
     objecttolerance="10"
     gridtolerance="10"
     guidetolerance="10"
     inkscape:pageopacity="0"
     inkscape:pageshadow="2"
     inkscape:window-width="1366"
     inkscape:window-height="705"
     id="namedview4"
     showgrid="false"
     inkscape:zoom="9.4830062"
     inkscape:cx="36.898782"
     inkscape:cy="48.34534"
     inkscape:window-x="-8"
     inkscape:window-y="-8"
     inkscape:window-maximized="1"
     inkscape:current-layer="g10" /><g
     id="g10"
     inkscape:groupmode="layer"
     inkscape:label="Векторный смарт-объект5"
     transform="matrix(1.25,0,0,-1.25,0,70.39)"><ellipse
       style="opacity:1;fill:none;fill-opacity:1;stroke:#fb0000;stroke-width:14.1420145;stroke-miterlimit:4;stroke-dasharray:none;stroke-opacity:1"
       id="path4182"
       transform="scale(1,-1)"
       cx="26.749746"
       cy="-42.194359"
       rx="7.0489931"
       ry="7.0389929" /><g
       id="g12"><g
         id="g14"><g
           id="g20"><g
             id="g22"><path
               d="M 0.31,23.472 C 0.113,23.286 0,23.023 0,22.749 l 0,0 L 0,4.897 C 0,4.349 0.444,3.911 0.991,3.911 l 0,0 5.951,0 c 0.426,0 0.807,0.274 0.941,0.678 l 0,0 c 0.024,0.077 0.159,0.493 0.365,1.14 l 0,0 14.211,-4.732 C 24.124,0.361 25.274,0 26.566,0 l 0,0 c 2.01,0 4.364,0.877 9.546,3.001 l 0,0 10.909,4.962 c 0.241,0.109 0.438,0.306 0.526,0.569 l 0,0 c 0.086,0.252 0.071,0.537 -0.05,0.767 l 0,0 c -1.38,2.761 -4.43,4.162 -7.415,3.418 l 0,0 -6.424,-1.611 c -0.285,2.476 -1.753,3.944 -4.687,4.677 l 0,0 -17.202,3.824 c 0.054,0.371 0.096,0.733 0.126,1.071 l 0,0 c 0.025,0.297 -0.085,0.593 -0.307,0.801 l 0,0 C 9.89,23.089 3.094,23.615 1.051,23.736 l 0,0 c -0.025,0.002 -0.049,0.002 -0.074,0.002 l 0,0 c -0.253,0 -0.485,-0.096 -0.667,-0.266 m 1.669,-1.786 c 3.188,-0.252 6.63,-0.798 7.879,-1.413 l 0,0 C 9.332,15.936 6.955,8.215 6.215,5.893 l 0,0 -4.236,0 0,15.793 z M 23.121,2.859 8.831,7.623 c 0.816,2.706 1.952,6.703 2.601,10.022 l 0,0 17.079,-3.8 c 2.201,-0.538 3.083,-1.413 3.203,-3.221 l 0,0 -1.901,-0.471 C 29.102,9.967 28.352,9.957 27.634,10.099 l 0,0 -8.601,1.72 c -0.536,0.109 -1.059,-0.242 -1.166,-0.778 l 0,0 c -0.106,-0.537 0.238,-1.063 0.777,-1.173 l 0,0 8.607,-1.719 c 0.443,-0.088 0.897,-0.132 1.357,-0.132 l 0,0 c 0.571,0 1.14,0.066 1.688,0.209 l 0,0 2.661,0.668 0.011,0 7.597,1.895 c 1.735,0.427 3.498,-0.175 4.588,-1.501 l 0,0 -9.83,-4.468 C 30.301,2.762 28.197,1.983 26.539,1.983 l 0,0 c -1.096,0 -1.997,0.34 -3.418,0.876"
               style="fill:url(#linearGradient24);stroke:none"
               id="path32"
               inkscape:connector-curvature="0" /></g></g></g></g><g
       id="g34"><g
         id="g36"><g
           id="g42"><g
             id="g44"><path
               d="m 26.801,56.312 c -7.798,0 -14.115,-6.321 -14.115,-14.114 l 0,0 c 0,-7.796 6.317,-14.115 14.115,-14.115 l 0,0 c 7.797,0 14.116,6.319 14.116,14.115 l 0,0 c 0,7.793 -6.319,14.114 -14.116,14.114 z m -1.423,-4.575 4.137,0 4.675,-17.02 -4.404,0 -4.408,17.02 z m -5.959,-16.98 c -0.016,0.04 0.008,0.056 0.032,0.12 l 0,0 c 0.463,1.426 0.975,3.652 1.155,4.236 l 0,0 c 0.22,0.726 0.828,1.574 1.527,2.046 l 0,0 c 0.699,0.472 1.698,0.615 1.954,0.624 l 0,0 c 0.26,0.016 3.037,0 3.037,0 l 0,0 c 0.144,0 0.229,-0.017 0.229,-0.089 l 0,0 c 0,-0.044 -0.016,-0.071 -0.216,-0.136 l 0,0 c -0.205,-0.071 -0.54,-0.243 -0.54,-0.243 l 0,0 c -0.88,-0.387 -1.339,-1.191 -1.635,-1.73 l 0,0 C 24.674,39.041 24.471,37.562 23.684,36.26 l 0,0 c -0.788,-1.308 -1.731,-1.44 -2.162,-1.503 l 0,0 c -0.408,-0.056 -1.511,-0.04 -1.815,-0.04 l 0,0 c -0.049,0 -0.094,-0.002 -0.133,-0.002 l 0,0 c -0.087,0 -0.144,0.006 -0.155,0.042"
               style="fill:url(#linearGradient46);stroke:none"
               id="path54"
               inkscape:connector-curvature="0" /></g></g></g></g></g></svg>