<?xml version="1.0" encoding="UTF-8" standalone="no"?>
<!-- Created with Inkscape (http://www.inkscape.org/) -->

<svg
   xmlns:dc="http://purl.org/dc/elements/1.1/"
   xmlns:cc="http://creativecommons.org/ns#"
   xmlns:rdf="http://www.w3.org/1999/02/22-rdf-syntax-ns#"
   xmlns:svg="http://www.w3.org/2000/svg"
   xmlns="http://www.w3.org/2000/svg"
   xmlns:xlink="http://www.w3.org/1999/xlink"
   xmlns:sodipodi="http://sodipodi.sourceforge.net/DTD/sodipodi-0.dtd"
   xmlns:inkscape="http://www.inkscape.org/namespaces/inkscape"
   id="svg2"
   version="1.1"
   inkscape:version="0.91 r13725"
   xml:space="preserve"
   width="59.502625"
   height="70.389999"
   viewBox="0 0 59.502625 70.389999"
   sodipodi:docname="moneta-new.svg"><metadata
     id="metadata8"><rdf:RDF><cc:Work
         rdf:about=""><dc:format>image/svg+xml</dc:format><dc:type
           rdf:resource="http://purl.org/dc/dcmitype/StillImage" /><dc:title></dc:title></cc:Work></rdf:RDF></metadata><defs
     id="defs6"><linearGradient
       x1="0"
       y1="0"
       x2="1"
       y2="0"
       gradientUnits="userSpaceOnUse"
       gradientTransform="matrix(47.602051,0,0,-47.602051,0,11.869141)"
       spreadMethod="pad"
       id="linearGradient24"><stop
         style="stop-opacity:1;stop-color:#f5d1ca"
         offset="0"
         id="stop26" /><stop
         style="stop-opacity:1;stop-color:#e0cfb3"
         offset="0.526501"
         id="stop28" /><stop
         style="stop-opacity:1;stop-color:#f5d1ca"
         offset="1"
         id="stop30" /></linearGradient><linearGradient
       x1="0"
       y1="0"
       x2="1"
       y2="0"
       gradientUnits="userSpaceOnUse"
       gradientTransform="matrix(-14.117678,24.452532,24.452532,14.117678,33.859375,29.970215)"
       spreadMethod="pad"
       id="linearGradient46"><stop
         style="stop-opacity:1;stop-color:#f5d1ca"
         offset="0"
         id="stop48" /><stop
         style="stop-opacity:1;stop-color:#e0cfb3"
         offset="0.526501"
         id="stop50" /><stop
         style="stop-opacity:1;stop-color:#f5d1ca"
         offset="1"
         id="stop52" /></linearGradient><linearGradient
       inkscape:collect="always"
       xlink:href="#linearGradient46"
       id="linearGradient4212"
       gradientUnits="userSpaceOnUse"
       gradientTransform="matrix(-14.117678,24.452532,24.452532,14.117678,33.859375,29.970215)"
       spreadMethod="pad"
       x1="0"
       y1="0"
       x2="1"
       y2="0" /><mask
       maskUnits="userSpaceOnUse"
       id="mask4202"><g
         id="g4204"
         transform="scale(1,-1)"><g
           id="g4206"><g
             id="g4208"><path
               inkscape:connector-curvature="0"
               id="path4210"
               style="fill:url(#linearGradient4212);stroke:none"
               d="m 26.801,56.312 c -7.798,0 -14.115,-6.321 -14.115,-14.114 l 0,0 c 0,-7.796 6.317,-14.115 14.115,-14.115 l 0,0 c 7.797,0 14.116,6.319 14.116,14.115 l 0,0 c 0,7.793 -6.319,14.114 -14.116,14.114 z m -1.423,-4.575 4.137,0 4.675,-17.02 -4.404,0 -4.408,17.02 z m -5.959,-16.98 c -0.016,0.04 0.008,0.056 0.032,0.12 l 0,0 c 0.463,1.426 0.975,3.652 1.155,4.236 l 0,0 c 0.22,0.726 0.828,1.574 1.527,2.046 l 0,0 c 0.699,0.472 1.698,0.615 1.954,0.624 l 0,0 c 0.26,0.016 3.037,0 3.037,0 l 0,0 c 0.144,0 0.229,-0.017 0.229,-0.089 l 0,0 c 0,-0.044 -0.016,-0.071 -0.216,-0.136 l 0,0 c -0.205,-0.071 -0.54,-0.243 -0.54,-0.243 l 0,0 c -0.88,-0.387 -1.339,-1.191 -1.635,-1.73 l 0,0 C 24.674,39.041 24.471,37.562 23.684,36.26 l 0,0 c -0.788,-1.308 -1.731,-1.44 -2.162,-1.503 l 0,0 c -0.408,-0.056 -1.511,-0.04 -1.815,-0.04 l 0,0 c -0.049,0 -0.094,-0.002 -0.133,-0.002 l 0,0 c -0.087,0 -0.144,0.006 -0.155,0.042" /></g></g></g></mask><linearGradient
       inkscape:collect="always"
       xlink:href="#linearGradient24"
       id="linearGradient4230"
       gradientUnits="userSpaceOnUse"
       gradientTransform="matrix(47.602051,0,0,-47.602051,0,11.869141)"
       spreadMethod="pad"
       x1="0"
       y1="0"
       x2="1"
       y2="0" /><mask
       maskUnits="userSpaceOnUse"
       id="mask4220"><g
         id="g4222"><g
           id="g4224"><g
             id="g4226"><path
               inkscape:connector-curvature="0"
               id="path4228"
               style="fill:url(#linearGradient4230);stroke:none"
               d="M 0.31,23.472 C 0.113,23.286 0,23.023 0,22.749 l 0,0 L 0,4.897 C 0,4.349 0.444,3.911 0.991,3.911 l 0,0 5.951,0 c 0.426,0 0.807,0.274 0.941,0.678 l 0,0 c 0.024,0.077 0.159,0.493 0.365,1.14 l 0,0 14.211,-4.732 C 24.124,0.361 25.274,0 26.566,0 l 0,0 c 2.01,0 4.364,0.877 9.546,3.001 l 0,0 10.909,4.962 c 0.241,0.109 0.438,0.306 0.526,0.569 l 0,0 c 0.086,0.252 0.071,0.537 -0.05,0.767 l 0,0 c -1.38,2.761 -4.43,4.162 -7.415,3.418 l 0,0 -6.424,-1.611 c -0.285,2.476 -1.753,3.944 -4.687,4.677 l 0,0 -17.202,3.824 c 0.054,0.371 0.096,0.733 0.126,1.071 l 0,0 c 0.025,0.297 -0.085,0.593 -0.307,0.801 l 0,0 C 9.89,23.089 3.094,23.615 1.051,23.736 l 0,0 c -0.025,0.002 -0.049,0.002 -0.074,0.002 l 0,0 c -0.253,0 -0.485,-0.096 -0.667,-0.266 m 1.669,-1.786 c 3.188,-0.252 6.63,-0.798 7.879,-1.413 l 0,0 C 9.332,15.936 6.955,8.215 6.215,5.893 l 0,0 -4.236,0 0,15.793 z M 23.121,2.859 8.831,7.623 c 0.816,2.706 1.952,6.703 2.601,10.022 l 0,0 17.079,-3.8 c 2.201,-0.538 3.083,-1.413 3.203,-3.221 l 0,0 -1.901,-0.471 C 29.102,9.967 28.352,9.957 27.634,10.099 l 0,0 -8.601,1.72 c -0.536,0.109 -1.059,-0.242 -1.166,-0.778 l 0,0 c -0.106,-0.537 0.238,-1.063 0.777,-1.173 l 0,0 8.607,-1.719 c 0.443,-0.088 0.897,-0.132 1.357,-0.132 l 0,0 c 0.571,0 1.14,0.066 1.688,0.209 l 0,0 2.661,0.668 0.011,0 7.597,1.895 c 1.735,0.427 3.498,-0.175 4.588,-1.501 l 0,0 -9.83,-4.468 C 30.301,2.762 28.197,1.983 26.539,1.983 l 0,0 c -1.096,0 -1.997,0.34 -3.418,0.876" /></g></g></g></mask><linearGradient
       inkscape:collect="always"
       xlink:href="#linearGradient24"
       id="linearGradient4242"
       gradientUnits="userSpaceOnUse"
       gradientTransform="matrix(47.602051,0,0,-47.602051,0,11.869141)"
       spreadMethod="pad"
       x1="0"
       y1="0"
       x2="1"
       y2="0" /><mask
       maskUnits="userSpaceOnUse"
       id="mask4232"><g
         id="g4234"><g
           id="g4236"><g
             id="g4238"><path
               inkscape:connector-curvature="0"
               id="path4240"
               style="fill:url(#linearGradient4242);stroke:none"
               d="M 0.31,23.472 C 0.113,23.286 0,23.023 0,22.749 l 0,0 L 0,4.897 C 0,4.349 0.444,3.911 0.991,3.911 l 0,0 5.951,0 c 0.426,0 0.807,0.274 0.941,0.678 l 0,0 c 0.024,0.077 0.159,0.493 0.365,1.14 l 0,0 14.211,-4.732 C 24.124,0.361 25.274,0 26.566,0 l 0,0 c 2.01,0 4.364,0.877 9.546,3.001 l 0,0 10.909,4.962 c 0.241,0.109 0.438,0.306 0.526,0.569 l 0,0 c 0.086,0.252 0.071,0.537 -0.05,0.767 l 0,0 c -1.38,2.761 -4.43,4.162 -7.415,3.418 l 0,0 -6.424,-1.611 c -0.285,2.476 -1.753,3.944 -4.687,4.677 l 0,0 -17.202,3.824 c 0.054,0.371 0.096,0.733 0.126,1.071 l 0,0 c 0.025,0.297 -0.085,0.593 -0.307,0.801 l 0,0 C 9.89,23.089 3.094,23.615 1.051,23.736 l 0,0 c -0.025,0.002 -0.049,0.002 -0.074,0.002 l 0,0 c -0.253,0 -0.485,-0.096 -0.667,-0.266 m 1.669,-1.786 c 3.188,-0.252 6.63,-0.798 7.879,-1.413 l 0,0 C 9.332,15.936 6.955,8.215 6.215,5.893 l 0,0 -4.236,0 0,15.793 z M 23.121,2.859 8.831,7.623 c 0.816,2.706 1.952,6.703 2.601,10.022 l 0,0 17.079,-3.8 c 2.201,-0.538 3.083,-1.413 3.203,-3.221 l 0,0 -1.901,-0.471 C 29.102,9.967 28.352,9.957 27.634,10.099 l 0,0 -8.601,1.72 c -0.536,0.109 -1.059,-0.242 -1.166,-0.778 l 0,0 c -0.106,-0.537 0.238,-1.063 0.777,-1.173 l 0,0 8.607,-1.719 c 0.443,-0.088 0.897,-0.132 1.357,-0.132 l 0,0 c 0.571,0 1.14,0.066 1.688,0.209 l 0,0 2.661,0.668 0.011,0 7.597,1.895 c 1.735,0.427 3.498,-0.175 4.588,-1.501 l 0,0 -9.83,-4.468 C 30.301,2.762 28.197,1.983 26.539,1.983 l 0,0 c -1.096,0 -1.997,0.34 -3.418,0.876" /></g></g></g></mask><linearGradient
       inkscape:collect="always"
       xlink:href="#linearGradient24"
       id="linearGradient4254"
       gradientUnits="userSpaceOnUse"
       gradientTransform="matrix(47.602051,0,0,-47.602051,0,11.869141)"
       spreadMethod="pad"
       x1="0"
       y1="0"
       x2="1"
       y2="0" /><mask
       maskUnits="userSpaceOnUse"
       id="mask4244"><g
         id="g4246"><g
           id="g4248"><g
             id="g4250"><path
               inkscape:connector-curvature="0"
               id="path4252"
               style="fill:url(#linearGradient4254);stroke:none"
               d="M 0.31,23.472 C 0.113,23.286 0,23.023 0,22.749 l 0,0 L 0,4.897 C 0,4.349 0.444,3.911 0.991,3.911 l 0,0 5.951,0 c 0.426,0 0.807,0.274 0.941,0.678 l 0,0 c 0.024,0.077 0.159,0.493 0.365,1.14 l 0,0 14.211,-4.732 C 24.124,0.361 25.274,0 26.566,0 l 0,0 c 2.01,0 4.364,0.877 9.546,3.001 l 0,0 10.909,4.962 c 0.241,0.109 0.438,0.306 0.526,0.569 l 0,0 c 0.086,0.252 0.071,0.537 -0.05,0.767 l 0,0 c -1.38,2.761 -4.43,4.162 -7.415,3.418 l 0,0 -6.424,-1.611 c -0.285,2.476 -1.753,3.944 -4.687,4.677 l 0,0 -17.202,3.824 c 0.054,0.371 0.096,0.733 0.126,1.071 l 0,0 c 0.025,0.297 -0.085,0.593 -0.307,0.801 l 0,0 C 9.89,23.089 3.094,23.615 1.051,23.736 l 0,0 c -0.025,0.002 -0.049,0.002 -0.074,0.002 l 0,0 c -0.253,0 -0.485,-0.096 -0.667,-0.266 m 1.669,-1.786 c 3.188,-0.252 6.63,-0.798 7.879,-1.413 l 0,0 C 9.332,15.936 6.955,8.215 6.215,5.893 l 0,0 -4.236,0 0,15.793 z M 23.121,2.859 8.831,7.623 c 0.816,2.706 1.952,6.703 2.601,10.022 l 0,0 17.079,-3.8 c 2.201,-0.538 3.083,-1.413 3.203,-3.221 l 0,0 -1.901,-0.471 C 29.102,9.967 28.352,9.957 27.634,10.099 l 0,0 -8.601,1.72 c -0.536,0.109 -1.059,-0.242 -1.166,-0.778 l 0,0 c -0.106,-0.537 0.238,-1.063 0.777,-1.173 l 0,0 8.607,-1.719 c 0.443,-0.088 0.897,-0.132 1.357,-0.132 l 0,0 c 0.571,0 1.14,0.066 1.688,0.209 l 0,0 2.661,0.668 0.011,0 7.597,1.895 c 1.735,0.427 3.498,-0.175 4.588,-1.501 l 0,0 -9.83,-4.468 C 30.301,2.762 28.197,1.983 26.539,1.983 l 0,0 c -1.096,0 -1.997,0.34 -3.418,0.876" /></g></g></g></mask><linearGradient
       inkscape:collect="always"
       xlink:href="#linearGradient46"
       id="linearGradient4294"
       x1="2.5329497"
       y1="-59.711292"
       x2="43.829369"
       y2="1.3663851"
       gradientUnits="userSpaceOnUse" /><linearGradient
       inkscape:collect="always"
       xlink:href="#linearGradient46"
       id="linearGradient4296"
       x1="2.5329497"
       y1="59.711292"
       x2="43.829369"
       y2="-1.3663851"
       gradientUnits="userSpaceOnUse" /><linearGradient
       inkscape:collect="always"
       xlink:href="#linearGradient46"
       id="linearGradient4298"
       x1="2.5329497"
       y1="59.711292"
       x2="43.829369"
       y2="-1.3663851"
       gradientUnits="userSpaceOnUse" /><linearGradient
       inkscape:collect="always"
       xlink:href="#linearGradient46"
       id="linearGradient4300"
       x1="2.5329497"
       y1="59.711292"
       x2="43.829369"
       y2="-1.3663851"
       gradientUnits="userSpaceOnUse" /><linearGradient
       inkscape:collect="always"
       xlink:href="#linearGradient46"
       id="linearGradient5400"
       gradientUnits="userSpaceOnUse"
       gradientTransform="matrix(-14.117678,24.452532,24.452532,14.117678,33.859375,29.970215)"
       spreadMethod="pad"
       x1="0"
       y1="0"
       x2="1"
       y2="0" /></defs><sodipodi:namedview
     pagecolor="#ffffff"
     bordercolor="#666666"
     borderopacity="1"
     objecttolerance="10"
     gridtolerance="10"
     guidetolerance="10"
     inkscape:pageopacity="0"
     inkscape:pageshadow="2"
     inkscape:window-width="1366"
     inkscape:window-height="705"
     id="namedview4"
     showgrid="false"
     showguides="false"
     inkscape:zoom="9.4830062"
     inkscape:cx="37.399126"
     inkscape:cy="45.488512"
     inkscape:window-x="-8"
     inkscape:window-y="-8"
     inkscape:window-maximized="1"
     inkscape:current-layer="g10" /><g
     id="g10"
     inkscape:groupmode="layer"
     inkscape:label="Векторный смарт-объект5"
     transform="matrix(1.25,0,0,-1.25,0,70.39)"><path
       style="fill:none;fill-rule:evenodd;stroke:url(#linearGradient4300);stroke-width:2.31999993;stroke-linecap:butt;stroke-linejoin:miter;stroke-miterlimit:4;stroke-dasharray:none;stroke-opacity:1"
       d="m 32.757165,10.884525 -0.278013,1.094799 -0.843614,1.645048 -2.109036,1.096698 -5.441312,1.13888 -11.515336,2.530843 -0.991247,0.158178"
       id="path4218"
       inkscape:connector-curvature="0"
       sodipodi:nodetypes="ccccccc"
       mask="url(#mask4244)" /><path
       style="fill:none;fill-rule:evenodd;stroke:url(#linearGradient4298);stroke-width:2.4000001;stroke-linecap:butt;stroke-linejoin:miter;stroke-miterlimit:4;stroke-dasharray:none;stroke-opacity:1"
       d="M 8.5004872,6.6512592 9.2530709,6.4195757 25.531288,0.9842672 l 2.23697,0 4.584352,1.546576 8.436144,3.501 5.989661,3.0370112 -1.518505,1.6028676 -1.982495,0.970156 -2.182852,0.189814 -3.734803,-0.8302 -1.558073,-0.57214 -5.358458,-1.3440798 -1.211992,-0.016418 -1.645048,-0.042184 -10.039011,2.0668556"
       id="path4216"
       inkscape:connector-curvature="0"
       sodipodi:nodetypes="cccccccccccccccc"
       mask="url(#mask4232)" /><path
       style="fill:none;fill-rule:evenodd;stroke:url(#linearGradient4296);stroke-width:2.4000001;stroke-linecap:butt;stroke-linejoin:miter;stroke-miterlimit:4;stroke-dasharray:none;stroke-opacity:1"
       d="M 1.0140932,22.787271 0.9544404,4.9511616 6.7705633,4.936245 l 1.0439193,3.3852815 0.3542999,0.5157227 1.9721495,8.2830278 0.624232,3.723166 -4.2798312,1.374534 z"
       id="path4214"
       inkscape:connector-curvature="0"
       sodipodi:nodetypes="ccccccccc"
       mask="url(#mask4220)" /><path
       style="opacity:1;fill:none;fill-opacity:1;stroke:url(#linearGradient4294);stroke-width:18.5688;stroke-miterlimit:4;stroke-dasharray:none;stroke-opacity:1"
       id="path4192"
       transform="scale(1,-1)"
       r="9.3391342"
       cy="-41.995392"
       cx="26.724339"
       mask="url(#mask4202)" /><g
       transform="translate(2.3875565,-0.01678226)"
       id="g34"><g
         id="g36"><g
           id="g42"><g
             id="g44"><path
               d="m 26.801,56.312 c -7.798,0 -14.115,-6.321 -14.115,-14.114 l 0,0 c 0,-7.796 6.317,-14.115 14.115,-14.115 l 0,0 c 7.797,0 14.116,6.319 14.116,14.115 l 0,0 c 0,7.793 -6.319,14.114 -14.116,14.114 z"
               style="fill:url(#linearGradient5400);stroke:none"
               id="path54"
               inkscape:connector-curvature="0"
               sodipodi:nodetypes="sccccccs" /></g></g></g></g><g
       id="g50"
       transform="matrix(0.59873695,0,0,0.59873694,32.022996,40.974766)"><path
         d="M 0,0 C -5.394,0 -8.22,-0.619 -10.326,-1.762 L -4.386,9.68 0.706,0 0,0 Z m -3.712,17.444 c -1.202,0.71 -2.76,0.605 -2.76,0.605 l -2.301,0 1.715,-3.277 -12.504,-23.444 5.445,0 0.519,0.887 c 1.874,1.6 6.745,3.099 13.648,3.046 l 3.127,0 2.066,-3.933 5.698,0 -12.514,23.684 c 0,0 -0.936,1.723 -2.139,2.432"
         style="fill:#ffffff;fill-opacity:1;fill-rule:nonzero;stroke:none"
         id="path52"
         inkscape:connector-curvature="0" /></g></g></svg>