<?xml version="1.0" encoding="utf-8"?>
<!-- Generator: Adobe Illustrator 17.1.0, SVG Export Plug-In . SVG Version: 6.00 Build 0)  -->
<!DOCTYPE svg PUBLIC "-//W3C//DTD SVG 1.1//EN" "http://www.w3.org/Graphics/SVG/1.1/DTD/svg11.dtd">
<svg version="1.1" id="Layer_1" xmlns="http://www.w3.org/2000/svg" xmlns:xlink="http://www.w3.org/1999/xlink" x="0px" y="0px"
	 viewBox="0 0 72 72" enable-background="new 0 0 72 72" xml:space="preserve">
<path fill="#76654F" d="M71.667,37.099c0.031-0.047,0.053-0.098,0.08-0.146c0.035-0.064,0.073-0.126,0.102-0.194
	c0.025-0.065,0.042-0.131,0.061-0.197c0.018-0.059,0.04-0.114,0.052-0.174c0.051-0.256,0.051-0.521,0-0.776
	c-0.012-0.061-0.034-0.116-0.052-0.174c-0.019-0.065-0.035-0.133-0.061-0.197c-0.028-0.068-0.066-0.131-0.102-0.195
	c-0.027-0.049-0.049-0.1-0.08-0.146c-0.074-0.109-0.156-0.212-0.25-0.305L59.991,23.168c-0.775-0.775-2.029-0.775-2.806,0
	c-0.775,0.774-0.775,2.032,0,2.807l8.04,8.04h-27.24V6.774l8.04,8.04c0.775,0.775,2.03,0.775,2.806,0
	c0.775-0.774,0.775-2.032,0-2.807L37.405,0.581c-0.092-0.092-0.192-0.174-0.3-0.246C37.073,0.314,37.038,0.3,37.005,0.28
	c-0.078-0.046-0.156-0.093-0.24-0.129c-0.045-0.019-0.092-0.027-0.138-0.043c-0.077-0.026-0.152-0.055-0.234-0.071
	c-0.128-0.024-0.259-0.038-0.392-0.038c-0.133,0-0.264,0.014-0.392,0.04c-0.081,0.016-0.157,0.046-0.234,0.071
	c-0.045,0.015-0.093,0.024-0.137,0.043c-0.085,0.035-0.162,0.083-0.241,0.13c-0.033,0.019-0.068,0.032-0.1,0.054
	c-0.107,0.073-0.208,0.154-0.299,0.246L23.17,12.008c-0.775,0.774-0.775,2.032,0,2.807c0.388,0.388,0.896,0.581,1.403,0.581
	c0.507,0,1.016-0.193,1.402-0.581l8.04-8.04v27.24H6.776l8.04-8.04c0.775-0.774,0.775-2.032,0-2.807
	c-0.775-0.775-2.031-0.775-2.806,0L0.583,34.595c-0.092,0.092-0.173,0.192-0.246,0.301c-0.019,0.029-0.033,0.063-0.051,0.094
	c-0.047,0.081-0.095,0.16-0.131,0.248c-0.018,0.043-0.026,0.089-0.041,0.134c-0.026,0.078-0.056,0.155-0.073,0.236
	c-0.026,0.127-0.039,0.259-0.039,0.392c0,0.133,0.014,0.264,0.039,0.393c0.017,0.082,0.045,0.158,0.073,0.236
	c0.015,0.044,0.024,0.091,0.041,0.134c0.036,0.088,0.084,0.167,0.131,0.247c0.018,0.031,0.031,0.064,0.051,0.095
	c0.072,0.107,0.154,0.208,0.246,0.3L12.01,48.83c0.388,0.389,0.896,0.582,1.402,0.582c0.507,0,1.016-0.193,1.403-0.582
	c0.775-0.775,0.775-2.03,0-2.806l-8.041-8.04h27.242v27.241l-8.04-8.04c-0.775-0.775-2.032-0.775-2.806,0
	c-0.775,0.775-0.775,2.031,0,2.807l11.426,11.426c0.093,0.093,0.195,0.177,0.305,0.249c0.046,0.031,0.096,0.051,0.144,0.078
	c0.065,0.036,0.129,0.075,0.198,0.104c0.063,0.026,0.13,0.042,0.197,0.062c0.058,0.017,0.113,0.039,0.173,0.051
	c0.128,0.025,0.258,0.039,0.388,0.039c0.129,0,0.26-0.014,0.388-0.039c0.06-0.013,0.116-0.034,0.173-0.051
	c0.067-0.02,0.133-0.035,0.198-0.062c0.069-0.028,0.132-0.068,0.197-0.104c0.048-0.025,0.097-0.047,0.143-0.078
	c0.11-0.073,0.213-0.156,0.305-0.249l11.426-11.426c0.775-0.775,0.775-2.031,0-2.807c-0.775-0.775-2.03-0.775-2.806,0l-8.04,8.04
	V37.983h27.24l-8.04,8.04c-0.775,0.775-0.775,2.03,0,2.806c0.388,0.388,0.894,0.582,1.403,0.582c0.508,0,1.016-0.194,1.402-0.582
	l11.426-11.426C71.511,37.311,71.593,37.209,71.667,37.099z"/>
</svg>
