<?xml version="1.0" encoding="utf-8"?>
<!-- Generator: Adobe Illustrator 17.1.0, SVG Export Plug-In . SVG Version: 6.00 Build 0)  -->
<!DOCTYPE svg PUBLIC "-//W3C//DTD SVG 1.1//EN" "http://www.w3.org/Graphics/SVG/1.1/DTD/svg11.dtd">
<svg version="1.1" id="Layer_1" xmlns="http://www.w3.org/2000/svg" xmlns:xlink="http://www.w3.org/1999/xlink" x="0px" y="0px"
	 viewBox="0 0 500 250" enable-background="new 0 0 500 250" xml:space="preserve">
<g>
	<path fill="none" stroke="#FFFFFF" stroke-width="50" stroke-miterlimit="10" d="M-27.247,48.82
		C2.36,22.127,25.547,9.825,28.996,9.128C32.563,8.432,88.449,7.62,88.449,7.62l-90.607,75.67l1.07,41.201L129.709,14.467
		l50.416-1.973L0.934,179.502l11.058,46.191L213.301,5.647l56.362-11.838L55.274,242.521l60.405,0.928L303.907,17.368l39.239-0.928
		L175.013,245.423h57.432L383.456,20.386l41.261-1.973l-134.84,225.965l57.313,4.874L455.989,20.386l35.196,0.928L391.542,247.28
		l44.233,3.018L499.271,68.55l-4.043,111.996l-19.144,80.544"/>
</g>
</svg>
