<?xml version="1.0" encoding="utf-8"?>
<!-- Generator: Adobe Illustrator 17.1.0, SVG Export Plug-In . SVG Version: 6.00 Build 0)  -->
<!DOCTYPE svg PUBLIC "-//W3C//DTD SVG 1.1//EN" "http://www.w3.org/Graphics/SVG/1.1/DTD/svg11.dtd">
<svg version="1.1" id="Layer_1" xmlns="http://www.w3.org/2000/svg" xmlns:xlink="http://www.w3.org/1999/xlink" x="0px" y="0px"
	 viewBox="0 0 109 109" enable-background="new 0 0 109 109" xml:space="preserve">
<path fill="#76654F" d="M46.762,0.33c1.72,0,3.44,0,5.159,0c0,1.719,0,3.44,0,5.159c1.719,0,3.44,0,5.159,0c0-1.72,0-3.44,0-5.159
	c3.439,0,6.878,0,10.317,0c0,1.719,0,3.44,0,5.159c-1.72,0-3.438,0-5.158,0c0,1.719,0,3.438,0,5.159c1.72,0,3.438,0,5.158,0
	c0,1.72,0,3.438,0,5.158c-1.72,0-3.438,0-5.158,0c0,1.721,0,3.44,0,5.159c-1.721,0-3.441,0-5.159,0c0-3.438,0-6.879,0-10.317
	c-1.72,0-3.44,0-5.159,0c0,3.438,0,6.879,0,10.317c-1.719,0-3.44,0-5.159,0c0-1.719,0-3.438,0-5.159c-1.719,0-3.439,0-5.159,0
	c0-1.72,0-3.438,0-5.158c1.72,0,3.44,0,5.159,0C46.762,7.209,46.762,3.769,46.762,0.33z"/>
<path fill="#76654F" d="M0.331,0.33c0,12.037,0,24.076,0,36.113c12.037,0,24.076,0,36.113,0c0-12.037,0-24.076,0-36.113
	C24.407,0.33,12.368,0.33,0.331,0.33z M31.285,31.284c-8.598,0-17.198,0-25.795,0c0-8.598,0-17.198,0-25.795
	c8.597,0,17.197,0,25.795,0C31.285,14.086,31.285,22.686,31.285,31.284z"/>
<path fill="#76654F" d="M72.556,0.33c0,12.037,0,24.076,0,36.113c12.037,0,24.077,0,36.114,0c0-12.037,0-24.076,0-36.113
	C96.633,0.33,84.593,0.33,72.556,0.33z M103.51,31.284c-8.597,0-17.197,0-25.795,0c0-8.598,0-17.198,0-25.795
	c8.598,0,17.198,0,25.795,0C103.51,14.086,103.51,22.686,103.51,31.284z"/>
<path fill="#76654F" d="M10.649,10.648c5.159,0,10.318,0,15.477,0c0,5.158,0,10.317,0,15.477c-5.159,0-10.318,0-15.477,0
	C10.649,20.965,10.649,15.806,10.649,10.648z"/>
<path fill="#76654F" d="M82.874,10.648c5.157,0,10.317,0,15.476,0c0,5.158,0,10.317,0,15.477c-5.159,0-10.318,0-15.476,0
	C82.874,20.965,82.874,15.806,82.874,10.648z"/>
<path fill="#76654F" d="M51.92,20.965c1.719,0,3.44,0,5.159,0c0,1.721,0,3.44,0,5.159c-1.72,0-3.44,0-5.159,0
	C51.92,24.406,51.92,22.684,51.92,20.965z"/>
<path fill="#76654F" d="M62.239,20.965c1.72,0,3.438,0,5.158,0c0,6.878,0,13.758,0,20.636c-1.72,0-3.438,0-5.158,0
	c0,1.721,0,3.44,0,5.159c-3.44,0-6.879,0-10.318,0c0,1.72,0,3.44,0,5.159c1.719,0,3.44,0,5.159,0c0,3.438,0,6.879,0,10.318
	c-3.439,0-6.879,0-10.319,0c0-1.721,0-3.44,0-5.159c-5.158,0-10.318,0-15.476,0c0-1.721,0-3.44,0-5.159c5.158,0,10.318,0,15.476,0
	c0-1.719,0-3.44,0-5.159c-6.878,0-13.758,0-20.636,0c0,3.439,0,6.879,0,10.319c1.719,0,3.44,0,5.159,0c0,1.719,0,3.438,0,5.159
	c3.438,0,6.879,0,10.318,0c0,1.72,0,3.438,0,5.158c-5.159,0-10.319,0-15.477,0c0-1.72,0-3.438,0-5.158c-1.719,0-3.44,0-5.159,0
	c0,1.72,0,3.438,0,5.158c-1.719,0-3.439,0-5.159,0c0-3.438,0-6.877,0-10.317c1.72,0,3.44,0,5.159,0c0-1.72,0-3.44,0-5.159
	c-3.439,0-6.879,0-10.318,0c0-1.719,0-3.44,0-5.159c-1.72,0-3.44,0-5.159,0c0,1.721,0,3.44,0,5.159c1.719,0,3.439,0,5.159,0
	c0,1.719,0,3.44,0,5.159c-3.439,0-6.879,0-10.318,0c0-5.159,0-10.319,0-15.477c5.158,0,10.318,0,15.477,0c0,1.72,0,3.44,0,5.158
	c1.72,0,3.44,0,5.159,0c0-1.719,0-3.438,0-5.158c6.878,0,13.758,0,20.636,0c0-3.439,0-6.88,0-10.318c1.72,0,3.44,0,5.159,0
	c0,1.719,0,3.439,0,5.159c1.72,0,3.44,0,5.159,0c0,1.72,0,3.438,0,5.159c1.719,0,3.44,0,5.159,0c0-1.721,0-3.439,0-5.159
	c1.719,0,3.438,0,5.158,0C62.239,31.284,62.239,26.125,62.239,20.965z"/>
<path fill="#76654F" d="M51.92,31.284c1.719,0,3.44,0,5.159,0c0,1.719,0,3.439,0,5.159c-1.72,0-3.44,0-5.159,0
	C51.92,34.723,51.92,33.003,51.92,31.284z"/>
<path fill="#76654F" d="M67.397,41.601c3.439,0,6.879,0,10.318,0c0,1.721,0,3.44,0,5.159c1.721,0,3.439,0,5.16,0
	c0,1.72,0,3.44,0,5.159c-3.439,0-6.879,0-10.319,0c0-1.719,0-3.44,0-5.159c-1.72,0-3.438,0-5.159,0
	C67.397,45.042,67.397,43.322,67.397,41.601z"/>
<path fill="#76654F" d="M93.192,41.601c1.721,0,3.439,0,5.159,0c0,1.721,0,3.44,0,5.159c-1.72,0-3.438,0-5.159,0
	C93.192,45.042,93.192,43.322,93.192,41.601z"/>
<path fill="#76654F" d="M103.51,46.76c1.721,0,3.439,0,5.16,0c0,3.439,0,6.879,0,10.319c-1.721,0-3.439,0-5.16,0
	c0,1.719,0,3.438,0,5.159c-1.719,0-3.439,0-5.159,0c0-1.721,0-3.44,0-5.159c-1.72,0-3.438,0-5.159,0c0-1.72,0-3.44,0-5.159
	c3.439,0,6.879,0,10.318,0C103.51,50.201,103.51,48.479,103.51,46.76z"/>
<path fill="#76654F" d="M62.239,51.919c1.72,0,3.438,0,5.158,0c0,1.719,0,3.44,0,5.159c-1.72,0-3.438,0-5.158,0
	C62.239,55.36,62.239,53.638,62.239,51.919z"/>
<path fill="#76654F" d="M82.874,51.919c1.719,0,3.438,0,5.159,0c0,3.438,0,6.879,0,10.318c-1.721,0-3.44,0-5.159,0
	C82.874,58.798,82.874,55.358,82.874,51.919z"/>
<path fill="#76654F" d="M72.556,57.079c1.72,0,3.44,0,5.159,0c0,1.719,0,3.438,0,5.159c1.721,0,3.439,0,5.16,0
	c0,1.72,0,3.439,0,5.158c1.719,0,3.439,0,5.159,0c0,5.159,0,10.319,0,15.478c-1.72,0-3.44,0-5.159,0c0-3.439,0-6.879,0-10.319
	c-1.721,0-3.439,0-5.16,0c0-1.72,0-3.439,0-5.159c-1.719,0-3.439,0-5.159,0C72.556,63.957,72.556,60.518,72.556,57.079z"/>
<path fill="#76654F" d="M0.331,62.238c1.719,0,3.44,0,5.159,0c0,1.72,0,3.439,0,5.158c-1.72,0-3.44,0-5.159,0
	C0.331,65.676,0.331,63.957,0.331,62.238z"/>
<path fill="#76654F" d="M62.239,62.238c1.72,0,3.438,0,5.158,0c0,1.72,0,3.439,0,5.158c-1.72,0-3.438,0-5.158,0
	C62.239,65.676,62.239,63.957,62.239,62.238z"/>
<path fill="#76654F" d="M88.034,62.238c1.72,0,3.438,0,5.158,0c0,1.72,0,3.439,0,5.158c-1.72,0-3.439,0-5.158,0
	C88.034,65.676,88.034,63.957,88.034,62.238z"/>
<path fill="#76654F" d="M41.603,67.396c1.72,0,3.44,0,5.159,0c0,3.439,0,6.879,0,10.318c1.72,0,3.44,0,5.159,0c0,1.72,0,3.44,0,5.16
	c-1.719,0-3.44,0-5.159,0c0,1.719,0,3.438,0,5.159c-1.719,0-3.439,0-5.159,0C41.603,81.155,41.603,74.274,41.603,67.396z"/>
<path fill="#76654F" d="M57.08,67.396c1.719,0,3.439,0,5.159,0c0,3.439,0,6.879,0,10.318c1.72,0,3.438,0,5.158,0
	c0-3.438,0-6.878,0-10.318c1.721,0,3.439,0,5.159,0c0,1.721,0,3.439,0,5.159c1.72,0,3.44,0,5.159,0c0,1.72,0,3.44,0,5.159
	c-1.719,0-3.439,0-5.159,0c0,1.72,0,3.44,0,5.16c3.438,0,6.88,0,10.319,0c0,1.719,0,3.438,0,5.159c1.719,0,3.439,0,5.159,0
	c0-1.721,0-3.44,0-5.159c1.72,0,3.438,0,5.159,0c0,3.438,0,6.878,0,10.317c-1.721,0-3.44,0-5.159,0c0,1.721,0,3.44,0,5.159
	c1.72,0,3.438,0,5.159,0c0,3.439,0,6.879,0,10.319c-1.721,0-3.44,0-5.159,0c0-1.72,0-3.44,0-5.16c-3.438,0-6.88,0-10.319,0
	c0,1.72,0,3.44,0,5.16c-1.719,0-3.439,0-5.159,0c0-3.439,0-6.879,0-10.319c3.438,0,6.88,0,10.319,0c0-1.72,0-3.438,0-5.159
	c-3.439,0-6.879,0-10.319,0c0-1.72,0-3.438,0-5.158c-1.72,0-3.438,0-5.159,0c0-1.721,0-3.44,0-5.159c-1.72,0-3.438,0-5.158,0
	c0,1.719,0,3.438,0,5.159c-1.721,0-3.441,0-5.159,0c0,5.158,0,10.318,0,15.476c-3.439,0-6.879,0-10.319,0c0,1.72,0,3.439,0,5.16
	c-1.719,0-3.439,0-5.159,0c0-5.159,0-10.319,0-15.478c1.72,0,3.44,0,5.159,0c0,1.721,0,3.44,0,5.159c1.72,0,3.44,0,5.159,0
	c0-1.72,0-3.438,0-5.159c-1.719,0-3.44,0-5.159,0c0-1.72,0-3.438,0-5.158c1.72,0,3.44,0,5.159,0c0-1.721,0-3.44,0-5.159
	c1.719,0,3.44,0,5.159,0c0-1.72,0-3.44,0-5.16c-1.72,0-3.44,0-5.159,0c0-1.719,0-3.44,0-5.159c1.719,0,3.44,0,5.159,0
	C57.08,70.835,57.08,69.117,57.08,67.396z"/>
<path fill="#76654F" d="M98.351,67.396c3.438,0,6.88,0,10.319,0c0,6.878,0,13.759,0,20.636c-1.721,0-3.439,0-5.16,0
	c0,1.721,0,3.439,0,5.159c-1.719,0-3.439,0-5.159,0c0-3.438,0-6.878,0-10.317c1.72,0,3.44,0,5.159,0c0-1.721,0-3.44,0-5.16
	c-3.438,0-6.878,0-10.318,0c0-1.719,0-3.44,0-5.159c1.721,0,3.439,0,5.159,0C98.351,70.835,98.351,69.117,98.351,67.396z"/>
<path fill="#76654F" d="M0.331,72.555c0,12.037,0,24.077,0,36.114c12.037,0,24.076,0,36.113,0c0-12.036,0-24.076,0-36.114
	C24.407,72.555,12.368,72.555,0.331,72.555z M31.285,103.509c-8.598,0-17.198,0-25.795,0c0-8.597,0-17.197,0-25.795
	c8.597,0,17.197,0,25.795,0C31.285,86.312,31.285,94.913,31.285,103.509z"/>
<path fill="#76654F" d="M10.649,82.874c5.159,0,10.318,0,15.477,0c0,5.157,0,10.317,0,15.476c-5.159,0-10.318,0-15.477,0
	C10.649,93.191,10.649,88.031,10.649,82.874z"/>
<path fill="#76654F" d="M62.239,93.191c1.72,0,3.438,0,5.158,0c0,1.721,0,3.44,0,5.159c-1.72,0-3.438,0-5.158,0
	C62.239,96.63,62.239,94.912,62.239,93.191z"/>
<path fill="#76654F" d="M93.192,93.191c1.721,0,3.439,0,5.159,0c0,1.721,0,3.44,0,5.159c-1.72,0-3.438,0-5.159,0
	C93.192,96.63,93.192,94.912,93.192,93.191z"/>
<path fill="#76654F" d="M103.51,93.191c1.721,0,3.439,0,5.16,0c0,1.721,0,3.44,0,5.159c-1.721,0-3.439,0-5.16,0
	C103.51,96.63,103.51,94.912,103.51,93.191z"/>
<path fill="#76654F" d="M98.351,98.35c1.72,0,3.44,0,5.159,0c0,1.72,0,3.44,0,5.159c1.721,0,3.439,0,5.16,0c0,1.72,0,3.439,0,5.16
	c-3.439,0-6.879,0-10.319,0C98.351,105.229,98.351,101.79,98.351,98.35z"/>
<path fill="#76654F" d="M62.239,103.509c1.72,0,3.438,0,5.158,0c0,1.72,0,3.439,0,5.16c-1.72,0-3.438,0-5.158,0
	C62.239,106.949,62.239,105.228,62.239,103.509z"/>
</svg>
