<?xml version="1.0" encoding="utf-8"?>
<!-- Generator: Adobe Illustrator 17.1.0, SVG Export Plug-In . SVG Version: 6.00 Build 0)  -->
<!DOCTYPE svg PUBLIC "-//W3C//DTD SVG 1.1//EN" "http://www.w3.org/Graphics/SVG/1.1/DTD/svg11.dtd">
<svg version="1.1" id="Layer_1" xmlns="http://www.w3.org/2000/svg" xmlns:xlink="http://www.w3.org/1999/xlink" x="0px" y="0px"
	 viewBox="0 0 136 101" enable-background="new 0 0 136 101" xml:space="preserve">
<path fill="#010101" d="M124.102,100.696H11.898c-6.522,0-11.811-5.288-11.811-11.812v-76.77c0-6.523,5.288-11.811,11.811-11.811
	h112.203c6.522,0,11.81,5.288,11.81,11.811v76.77C135.912,95.408,130.624,100.696,124.102,100.696z M130.007,12.115
	c0-3.26-2.645-5.906-5.905-5.906H11.898c-3.26,0-5.905,2.647-5.905,5.906v76.77c0,3.26,2.645,5.906,5.905,5.906h112.203
	c3.26,0,5.905-2.646,5.905-5.906V12.115z M119.182,82.139L100.48,63.435L89.794,74.122l9.845,9.844c1.125,1.125,1.125,2.95,0,4.078
	c-1.129,1.125-2.953,1.125-4.078,0L53.236,45.72L16.818,82.139c-1.125,1.125-2.95,1.125-4.078,0c-1.125-1.128-1.125-2.953,0-4.078
	l38.104-38.104c0.095-0.142,0.157-0.299,0.281-0.426c0.582-0.581,1.349-0.847,2.111-0.829c0.762-0.018,1.53,0.248,2.111,0.829
	c0.124,0.127,0.183,0.284,0.28,0.426l30.089,30.088l12.371-12.372c0.098-0.139,0.156-0.298,0.281-0.425
	c0.581-0.579,1.349-0.848,2.111-0.83c0.762-0.018,1.529,0.251,2.11,0.83c0.124,0.127,0.183,0.286,0.28,0.425l20.389,20.389
	c1.125,1.125,1.125,2.95,0,4.078C122.132,83.264,120.307,83.264,119.182,82.139z M82.764,35.736c-6.523,0-11.811-5.288-11.811-11.81
	c0-6.522,5.288-11.811,11.811-11.811c6.522,0,11.81,5.288,11.81,11.811C94.574,30.448,89.286,35.736,82.764,35.736z M82.764,18.021
	c-3.26,0-5.906,2.645-5.906,5.905c0,3.26,2.646,5.905,5.906,5.905c3.26,0,5.905-2.646,5.905-5.905
	C88.669,20.666,86.023,18.021,82.764,18.021z"/>
</svg>
