<?xml version="1.0" encoding="UTF-8" standalone="no"?>
<!-- Created with Inkscape (http://www.inkscape.org/) -->

<svg
   xmlns:dc="http://purl.org/dc/elements/1.1/"
   xmlns:cc="http://creativecommons.org/ns#"
   xmlns:rdf="http://www.w3.org/1999/02/22-rdf-syntax-ns#"
   xmlns:svg="http://www.w3.org/2000/svg"
   xmlns="http://www.w3.org/2000/svg"
   xmlns:xlink="http://www.w3.org/1999/xlink"
   xmlns:sodipodi="http://sodipodi.sourceforge.net/DTD/sodipodi-0.dtd"
   xmlns:inkscape="http://www.inkscape.org/namespaces/inkscape"
   id="svg2"
   version="1.1"
   inkscape:version="0.91 r13725"
   xml:space="preserve"
   width="60"
   height="81.624748"
   viewBox="0 0 60 81.624748"
   sodipodi:docname="shild_new_mask.svg"><metadata
     id="metadata8"><rdf:RDF><cc:Work
         rdf:about=""><dc:format>image/svg+xml</dc:format><dc:type
           rdf:resource="http://purl.org/dc/dcmitype/StillImage" /><dc:title></dc:title></cc:Work></rdf:RDF></metadata><defs
     id="defs6"><linearGradient
       x1="0"
       y1="0"
       x2="1"
       y2="0"
       gradientUnits="userSpaceOnUse"
       gradientTransform="matrix(-29.46973,51.043064,51.043064,29.46973,41.206055,9.9335938)"
       spreadMethod="pad"
       id="linearGradient24"><stop
         style="stop-opacity:1;stop-color:#f5d1ca"
         offset="0"
         id="stop26" /><stop
         style="stop-opacity:1;stop-color:#e0cfb3"
         offset="0.526501"
         id="stop28" /><stop
         style="stop-opacity:1;stop-color:#f5d1ca"
         offset="1"
         id="stop30" /></linearGradient><linearGradient
       inkscape:collect="always"
       xlink:href="#linearGradient24"
       id="linearGradient5012"
       gradientUnits="userSpaceOnUse"
       gradientTransform="matrix(0.6663762,0,0,0.6663762,8.5219738,11.954369)"
       x1="-2.1825004"
       y1="80.260635"
       x2="56.970818"
       y2="-18.146978" /><linearGradient
       inkscape:collect="always"
       xlink:href="#linearGradient24"
       id="linearGradient5018"
       gradientUnits="userSpaceOnUse"
       gradientTransform="matrix(0.6663762,0,0,0.6663762,8.5219738,11.954369)"
       x1="-2.1825004"
       y1="80.260635"
       x2="56.970818"
       y2="-18.146978" /><linearGradient
       inkscape:collect="always"
       xlink:href="#linearGradient24"
       id="linearGradient5205"
       gradientUnits="userSpaceOnUse"
       gradientTransform="matrix(-29.46973,51.043064,51.043064,29.46973,41.206055,9.9335938)"
       spreadMethod="pad"
       x1="0"
       y1="0"
       x2="1"
       y2="0" /><linearGradient
       inkscape:collect="always"
       xlink:href="#linearGradient24"
       id="linearGradient5213"
       x1="10.312123"
       y1="65.31398"
       x2="43.054977"
       y2="0.0069388924"
       gradientUnits="userSpaceOnUse" /><linearGradient
       inkscape:collect="always"
       xlink:href="#linearGradient24"
       id="linearGradient5215"
       x1="10.312123"
       y1="65.31398"
       x2="43.054977"
       y2="0.0069388924"
       gradientUnits="userSpaceOnUse" /><linearGradient
       inkscape:collect="always"
       xlink:href="#linearGradient24"
       id="linearGradient5217"
       x1="10.312123"
       y1="65.31398"
       x2="43.054977"
       y2="0.0069388924"
       gradientUnits="userSpaceOnUse" /><linearGradient
       inkscape:collect="always"
       xlink:href="#linearGradient24"
       id="linearGradient5219"
       x1="10.312123"
       y1="65.31398"
       x2="43.054977"
       y2="0.0069388924"
       gradientUnits="userSpaceOnUse" /><linearGradient
       inkscape:collect="always"
       xlink:href="#linearGradient24"
       id="linearGradient5221"
       x1="10.312123"
       y1="65.31398"
       x2="43.054977"
       y2="0.0069388924"
       gradientUnits="userSpaceOnUse" /><linearGradient
       inkscape:collect="always"
       xlink:href="#linearGradient24"
       id="linearGradient5294"
       gradientUnits="userSpaceOnUse"
       gradientTransform="matrix(0.6663762,0,0,0.6663762,8.0311198,11.954369)"
       x1="-2.1825004"
       y1="80.260635"
       x2="56.970818"
       y2="-18.146978" /><mask
       maskUnits="userSpaceOnUse"
       id="mask5290"><path
         d="m 26.944797,32.705755 c -3.594433,0 -5.477612,-0.412488 -6.881,-1.174156 l 3.958275,7.624677 3.393188,-6.450521 -0.470463,0 z m -2.473588,11.624266 c -0.800984,0.473127 -1.839198,0.403158 -1.839198,0.403158 l -1.533332,0 1.142835,-2.183715 -8.332368,-15.622524 3.628419,0 0.345849,0.591076 c 1.248789,1.066202 4.494707,2.0651 9.094703,2.029782 l 2.083758,0 1.376733,-2.620858 3.797012,0 -8.339032,15.782454 c 0,0 -0.623728,1.148166 -1.425379,1.620627"
         style="fill:url(#linearGradient5294);fill-opacity:1;fill-rule:nonzero;stroke:none"
         id="path5292"
         inkscape:connector-curvature="0" /></mask><linearGradient
       inkscape:collect="always"
       xlink:href="#linearGradient24"
       id="linearGradient5300"
       gradientUnits="userSpaceOnUse"
       gradientTransform="matrix(0.6663762,0,0,0.6663762,8.5219738,11.954369)"
       x1="-2.1825004"
       y1="80.260635"
       x2="56.970818"
       y2="-18.146978" /><mask
       maskUnits="userSpaceOnUse"
       id="mask5296"><path
         d="m 27.435651,32.705755 c -3.594433,0 -5.477612,-0.412488 -6.881,-1.174156 l 3.958275,7.624677 3.393188,-6.450521 -0.470463,0 z m -2.473588,11.624266 c -0.800984,0.473127 -1.839198,0.403158 -1.839198,0.403158 l -1.533332,0 1.142835,-2.183715 L 14.4,26.92694 l 3.628419,0 0.345849,0.591076 c 1.248789,1.066202 4.494707,2.0651 9.094703,2.029782 l 2.083758,0 1.376733,-2.620858 3.797012,0 -8.339032,15.782454 c 0,0 -0.623728,1.148166 -1.425379,1.620627"
         style="fill:url(#linearGradient5300);fill-opacity:1;fill-rule:nonzero;stroke:none"
         id="path5298"
         inkscape:connector-curvature="0" /></mask><linearGradient
       inkscape:collect="always"
       xlink:href="#linearGradient24"
       id="linearGradient5306"
       gradientUnits="userSpaceOnUse"
       gradientTransform="matrix(0.6663762,0,0,0.6663762,8.0311198,11.954369)"
       x1="-2.1825004"
       y1="80.260635"
       x2="56.970818"
       y2="-18.146978" /><mask
       maskUnits="userSpaceOnUse"
       id="mask5302"><path
         d="m 26.944797,32.705755 c -3.594433,0 -5.477612,-0.412488 -6.881,-1.174156 l 3.958275,7.624677 3.393188,-6.450521 -0.470463,0 z m -2.473588,11.624266 c -0.800984,0.473127 -1.839198,0.403158 -1.839198,0.403158 l -1.533332,0 1.142835,-2.183715 -8.332368,-15.622524 3.628419,0 0.345849,0.591076 c 1.248789,1.066202 4.494707,2.0651 9.094703,2.029782 l 2.083758,0 1.376733,-2.620858 3.797012,0 -8.339032,15.782454 c 0,0 -0.623728,1.148166 -1.425379,1.620627"
         style="fill:url(#linearGradient5306);fill-opacity:1;fill-rule:nonzero;stroke:none"
         id="path5304"
         inkscape:connector-curvature="0" /></mask><linearGradient
       inkscape:collect="always"
       xlink:href="#linearGradient24"
       id="linearGradient5312"
       gradientUnits="userSpaceOnUse"
       gradientTransform="matrix(0.6663762,0,0,0.6663762,8.5219738,11.954369)"
       x1="-2.1825004"
       y1="80.260635"
       x2="56.970818"
       y2="-18.146978" /><mask
       maskUnits="userSpaceOnUse"
       id="mask5308"><path
         d="m 27.435651,32.705755 c -3.594433,0 -5.477612,-0.412488 -6.881,-1.174156 l 3.958275,7.624677 3.393188,-6.450521 -0.470463,0 z m -2.473588,11.624266 c -0.800984,0.473127 -1.839198,0.403158 -1.839198,0.403158 l -1.533332,0 1.142835,-2.183715 L 14.4,26.92694 l 3.628419,0 0.345849,0.591076 c 1.248789,1.066202 4.494707,2.0651 9.094703,2.029782 l 2.083758,0 1.376733,-2.620858 3.797012,0 -8.339032,15.782454 c 0,0 -0.623728,1.148166 -1.425379,1.620627"
         style="fill:url(#linearGradient5312);fill-opacity:1;fill-rule:nonzero;stroke:none"
         id="path5310"
         inkscape:connector-curvature="0" /></mask><linearGradient
       inkscape:collect="always"
       xlink:href="#linearGradient24"
       id="linearGradient5318"
       gradientUnits="userSpaceOnUse"
       gradientTransform="matrix(0.6663762,0,0,0.6663762,8.0311198,11.954369)"
       x1="-2.1825004"
       y1="80.260635"
       x2="56.970818"
       y2="-18.146978" /><mask
       maskUnits="userSpaceOnUse"
       id="mask5314"><path
         d="m 26.944797,32.705755 c -3.594433,0 -5.477612,-0.412488 -6.881,-1.174156 l 3.958275,7.624677 3.393188,-6.450521 -0.470463,0 z m -2.473588,11.624266 c -0.800984,0.473127 -1.839198,0.403158 -1.839198,0.403158 l -1.533332,0 1.142835,-2.183715 -8.332368,-15.622524 3.628419,0 0.345849,0.591076 c 1.248789,1.066202 4.494707,2.0651 9.094703,2.029782 l 2.083758,0 1.376733,-2.620858 3.797012,0 -8.339032,15.782454 c 0,0 -0.623728,1.148166 -1.425379,1.620627"
         style="fill:url(#linearGradient5318);fill-opacity:1;fill-rule:nonzero;stroke:none"
         id="path5316"
         inkscape:connector-curvature="0" /></mask><linearGradient
       inkscape:collect="always"
       xlink:href="#linearGradient24"
       id="linearGradient5324"
       gradientUnits="userSpaceOnUse"
       gradientTransform="matrix(-29.46973,51.043064,51.043064,29.46973,41.206055,9.9335938)"
       spreadMethod="pad"
       x1="0"
       y1="0"
       x2="1"
       y2="0" /><mask
       maskUnits="userSpaceOnUse"
       id="mask5320"><path
         sodipodi:nodetypes="ccccscccccccccccccccccccsccccccccccsccccccccccccccccccccccccccscccc"
         inkscape:connector-curvature="0"
         id="path5322"
         style="fill:url(#linearGradient5324);stroke:none"
         d="M 23,65.299 C 23,57.9 7.1,54.8 0.9,54.3 l 0,0 L 0,54.2 0,33.3 C 0,24.099 4.1,15.6 11.4,9.9 l 0,0 L 24,0 36.599,9.9 C 43.9,15.6 48,24.099 48,33.3 l 0,0 0,20.9 -0.9,0.1 C 40.9,54.8 25,57.9 25,65.299 l 0,0 z M 12.6,11.5 C 5.9,16.799 2,24.701 2,33.3 l 0,0 0,19.1 c 3.8,0.399 18.1,2.5 22,9.2 l 0,0 c 3.9,-6.7 18.2,-8.801 22,-9.2 l 0,0 0,-19.1 C 46,24.701 42.099,16.799 35.401,11.5 l 0,0 L 24,2.599 Z M 23.3,57.7 C 21,55.6 17.6,53.9 13.3,52.6 l 0,0 C 10.1,51.6 6.9,51 4.8,50.701 l 0,0 L 4,50.6 4,33.3 C 4,25.3 7.6,18 13.9,13 l 0,0 L 24,5.099 34.099,13.1 C 40.4,18 44,25.401 44,33.3 l 0,0 0,17.3 -0.8,0.101 C 41.099,51 37.901,51.6 34.7,52.6 l 0,0 c -4.401,1.3 -7.7,3.1 -9.999,5.1 l 0,0 L 24,58.3 Z M 15.1,14.701 C 9.3,19.201 6,26 6,33.3 l 0,0 0,15.6 c 2.1,0.4 5,1 8,1.801 l 0,0 C 18.2,52 21.5,53.6 24,55.6 l 0,0 c 2.401,-2 5.8,-3.6 10,-4.899 l 0,0 C 37,49.8 39.901,49.3 42,48.9 l 0,0 0,-15.6 C 42,25.9 38.7,19.1 32.9,14.701 l 0,0 L 24,7.7 Z" /></mask><linearGradient
       inkscape:collect="always"
       xlink:href="#linearGradient24"
       id="linearGradient5330"
       gradientUnits="userSpaceOnUse"
       gradientTransform="matrix(-29.46973,51.043064,51.043064,29.46973,41.206055,9.9335938)"
       spreadMethod="pad"
       x1="0"
       y1="0"
       x2="1"
       y2="0" /><mask
       maskUnits="userSpaceOnUse"
       id="mask5326"><path
         sodipodi:nodetypes="ccccscccccccccccccccccccsccccccccccsccccccccccccccccccccccccccscccc"
         inkscape:connector-curvature="0"
         id="path5328"
         style="fill:url(#linearGradient5330);stroke:none"
         d="M 23,65.299 C 23,57.9 7.1,54.8 0.9,54.3 l 0,0 L 0,54.2 0,33.3 C 0,24.099 4.1,15.6 11.4,9.9 l 0,0 L 24,0 36.599,9.9 C 43.9,15.6 48,24.099 48,33.3 l 0,0 0,20.9 -0.9,0.1 C 40.9,54.8 25,57.9 25,65.299 l 0,0 z M 12.6,11.5 C 5.9,16.799 2,24.701 2,33.3 l 0,0 0,19.1 c 3.8,0.399 18.1,2.5 22,9.2 l 0,0 c 3.9,-6.7 18.2,-8.801 22,-9.2 l 0,0 0,-19.1 C 46,24.701 42.099,16.799 35.401,11.5 l 0,0 L 24,2.599 Z M 23.3,57.7 C 21,55.6 17.6,53.9 13.3,52.6 l 0,0 C 10.1,51.6 6.9,51 4.8,50.701 l 0,0 L 4,50.6 4,33.3 C 4,25.3 7.6,18 13.9,13 l 0,0 L 24,5.099 34.099,13.1 C 40.4,18 44,25.401 44,33.3 l 0,0 0,17.3 -0.8,0.101 C 41.099,51 37.901,51.6 34.7,52.6 l 0,0 c -4.401,1.3 -7.7,3.1 -9.999,5.1 l 0,0 L 24,58.3 Z M 15.1,14.701 C 9.3,19.201 6,26 6,33.3 l 0,0 0,15.6 c 2.1,0.4 5,1 8,1.801 l 0,0 C 18.2,52 21.5,53.6 24,55.6 l 0,0 c 2.401,-2 5.8,-3.6 10,-4.899 l 0,0 C 37,49.8 39.901,49.3 42,48.9 l 0,0 0,-15.6 C 42,25.9 38.7,19.1 32.9,14.701 l 0,0 L 24,7.7 Z" /></mask><linearGradient
       inkscape:collect="always"
       xlink:href="#linearGradient24"
       id="linearGradient5336"
       gradientUnits="userSpaceOnUse"
       gradientTransform="matrix(-29.46973,51.043064,51.043064,29.46973,41.206055,9.9335938)"
       spreadMethod="pad"
       x1="0"
       y1="0"
       x2="1"
       y2="0" /><mask
       maskUnits="userSpaceOnUse"
       id="mask5332"><path
         sodipodi:nodetypes="ccccscccccccccccccccccccsccccccccccsccccccccccccccccccccccccccscccc"
         inkscape:connector-curvature="0"
         id="path5334"
         style="fill:url(#linearGradient5336);stroke:none"
         d="M 23,65.299 C 23,57.9 7.1,54.8 0.9,54.3 l 0,0 L 0,54.2 0,33.3 C 0,24.099 4.1,15.6 11.4,9.9 l 0,0 L 24,0 36.599,9.9 C 43.9,15.6 48,24.099 48,33.3 l 0,0 0,20.9 -0.9,0.1 C 40.9,54.8 25,57.9 25,65.299 l 0,0 z M 12.6,11.5 C 5.9,16.799 2,24.701 2,33.3 l 0,0 0,19.1 c 3.8,0.399 18.1,2.5 22,9.2 l 0,0 c 3.9,-6.7 18.2,-8.801 22,-9.2 l 0,0 0,-19.1 C 46,24.701 42.099,16.799 35.401,11.5 l 0,0 L 24,2.599 Z M 23.3,57.7 C 21,55.6 17.6,53.9 13.3,52.6 l 0,0 C 10.1,51.6 6.9,51 4.8,50.701 l 0,0 L 4,50.6 4,33.3 C 4,25.3 7.6,18 13.9,13 l 0,0 L 24,5.099 34.099,13.1 C 40.4,18 44,25.401 44,33.3 l 0,0 0,17.3 -0.8,0.101 C 41.099,51 37.901,51.6 34.7,52.6 l 0,0 c -4.401,1.3 -7.7,3.1 -9.999,5.1 l 0,0 L 24,58.3 Z M 15.1,14.701 C 9.3,19.201 6,26 6,33.3 l 0,0 0,15.6 c 2.1,0.4 5,1 8,1.801 l 0,0 C 18.2,52 21.5,53.6 24,55.6 l 0,0 c 2.401,-2 5.8,-3.6 10,-4.899 l 0,0 C 37,49.8 39.901,49.3 42,48.9 l 0,0 0,-15.6 C 42,25.9 38.7,19.1 32.9,14.701 l 0,0 L 24,7.7 Z" /></mask></defs><sodipodi:namedview
     pagecolor="#ffffff"
     bordercolor="#666666"
     borderopacity="1"
     objecttolerance="10"
     gridtolerance="10"
     guidetolerance="10"
     inkscape:pageopacity="0"
     inkscape:pageshadow="2"
     inkscape:window-width="1366"
     inkscape:window-height="705"
     id="namedview4"
     showgrid="false"
     inkscape:zoom="5.7825599"
     inkscape:cx="27.062266"
     inkscape:cy="43.051688"
     inkscape:window-x="-8"
     inkscape:window-y="-8"
     inkscape:window-maximized="1"
     inkscape:current-layer="g10" /><g
     id="g10"
     inkscape:groupmode="layer"
     inkscape:label="Векторный смарт-объект12"
     transform="matrix(1.25,0,0,-1.25,0,81.62475)"><path
       style="fill:none;fill-rule:evenodd;stroke:url(#linearGradient5221);stroke-width:4.07999992;stroke-linecap:butt;stroke-linejoin:miter;stroke-miterlimit:4;stroke-dasharray:none;stroke-opacity:1"
       d="m 17.293379,28.637837 3.597023,1.763925 3.043634,0.518801 3.147395,0.138347 1.53093,0.362112"
       id="path4189"
       inkscape:connector-curvature="0"
       clip-path="none"
       sodipodi:nodetypes="ccccc"
       transform="translate(-0.06253435,0.96842919)"
       mask="url(#mask5314)" /><path
       d="m 27.435651,32.705755 c -3.594433,0 -5.477612,-0.412488 -6.881,-1.174156 l 3.958275,7.624677 3.393188,-6.450521 -0.470463,0 z m -2.473588,11.624266 c -0.800984,0.473127 -1.839198,0.403158 -1.839198,0.403158 l -1.533332,0 1.142835,-2.183715 L 14.4,26.92694 l 3.628419,0 0.345849,0.591076 c 1.248789,1.066202 4.494707,2.0651 9.094703,2.029782 l 2.083758,0 1.376733,-2.620858 3.797012,0 -8.339032,15.782454 c 0,0 -0.623728,1.148166 -1.425379,1.620627"
       style="fill:url(#linearGradient5018);fill-opacity:1;fill-rule:nonzero;stroke:none"
       id="path5016"
       inkscape:connector-curvature="0"
       mask="url(#mask5308)"
       transform="translate(-0.55338835,0.96842919)" /><path
       style="fill:none;fill-rule:evenodd;stroke:url(#linearGradient5219);stroke-width:4.07999992;stroke-linecap:butt;stroke-linejoin:miter;stroke-miterlimit:4;stroke-dasharray:none;stroke-opacity:1"
       d="M 23.588169,41.884565 15.321933,26.04383"
       id="path4187"
       inkscape:connector-curvature="0"
       sodipodi:nodetypes="cc"
       clip-path="none"
       transform="translate(-0.06253435,0.96842919)"
       mask="url(#mask5302)" /><path
       d="m 27.435651,32.705755 c -3.594433,0 -5.477612,-0.412488 -6.881,-1.174156 l 3.958275,7.624677 3.393188,-6.450521 -0.470463,0 z m -2.473588,11.624266 c -0.800984,0.473127 -1.839198,0.403158 -1.839198,0.403158 l -1.533332,0 1.142835,-2.183715 L 14.4,26.92694 l 3.628419,0 0.345849,0.591076 c 1.248789,1.066202 4.494707,2.0651 9.094703,2.029782 l 2.083758,0 1.376733,-2.620858 3.797012,0 -8.339032,15.782454 c 0,0 -0.623728,1.148166 -1.425379,1.620627"
       style="fill:url(#linearGradient5012);fill-opacity:1;fill-rule:nonzero;stroke:none"
       id="path5010"
       inkscape:connector-curvature="0"
       mask="url(#mask5296)"
       transform="translate(-0.55338835,0.96842919)" /><path
       style="fill:none;fill-rule:evenodd;stroke:url(#linearGradient5217);stroke-width:3.44000006;stroke-linecap:butt;stroke-linejoin:miter;stroke-miterlimit:4;stroke-dasharray:none;stroke-opacity:1"
       d="M 22.377632,46.000389 32.822833,26.043831"
       id="path4185"
       inkscape:connector-curvature="0"
       sodipodi:nodetypes="cc"
       clip-path="none"
       transform="translate(-0.06253435,0.96842919)"
       mask="url(#mask5290)" /><path
       style="fill:none;fill-rule:evenodd;stroke:url(#linearGradient5215);stroke-width:2.48000002;stroke-linecap:butt;stroke-linejoin:miter;stroke-miterlimit:4;stroke-dasharray:none;stroke-opacity:1"
       d="M 24.764118,57.898234 22.7235,56.13431 18.330981,53.194435 14.664786,51.983898 8.8196232,50.323734 4.9459064,49.701172 5.0496666,32.061926 l 0.726322,-4.427105 1.3488835,-4.288758 1.5218175,-3.112809 2.4902464,-3.216568 3.63161,-3.424088 9.269251,-7.1594596 12.58958,10.1685066 2.386485,3.354916 1.798512,3.147395 1.487231,4.012063 0.760909,5.153427 -0.03458,17.535487 -4.115824,0.622561 -4.461692,1.141364 -4.427105,1.521816 -3.009048,1.590992 -4.254172,3.354915"
       id="path4183"
       inkscape:connector-curvature="0"
       sodipodi:nodetypes="cccccccccccccccccccccccc"
       clip-path="none"
       mask="url(#mask5332)" /><path
       sodipodi:nodetypes="ccccscccccccccccccccccccsccccccccccsccccccccccccccccccccccccccscccc"
       inkscape:connector-curvature="0"
       id="path5203"
       style="fill:url(#linearGradient5205);stroke:none"
       d="M 23,65.299 C 23,57.9 7.1,54.8 0.9,54.3 l 0,0 L 0,54.2 0,33.3 C 0,24.099 4.1,15.6 11.4,9.9 l 0,0 L 24,0 36.599,9.9 C 43.9,15.6 48,24.099 48,33.3 l 0,0 0,20.9 -0.9,0.1 C 40.9,54.8 25,57.9 25,65.299 l 0,0 z M 12.6,11.5 C 5.9,16.799 2,24.701 2,33.3 l 0,0 0,19.1 c 3.8,0.399 18.1,2.5 22,9.2 l 0,0 c 3.9,-6.7 18.2,-8.801 22,-9.2 l 0,0 0,-19.1 C 46,24.701 42.099,16.799 35.401,11.5 l 0,0 L 24,2.599 Z M 23.3,57.7 C 21,55.6 17.6,53.9 13.3,52.6 l 0,0 C 10.1,51.6 6.9,51 4.8,50.701 l 0,0 L 4,50.6 4,33.3 C 4,25.3 7.6,18 13.9,13 l 0,0 L 24,5.099 34.099,13.1 C 40.4,18 44,25.401 44,33.3 l 0,0 0,17.3 -0.8,0.101 C 41.099,51 37.901,51.6 34.7,52.6 l 0,0 c -4.401,1.3 -7.7,3.1 -9.999,5.1 l 0,0 L 24,58.3 Z M 15.1,14.701 C 9.3,19.201 6,26 6,33.3 l 0,0 0,15.6 c 2.1,0.4 5,1 8,1.801 l 0,0 C 18.2,52 21.5,53.6 24,55.6 l 0,0 c 2.401,-2 5.8,-3.6 10,-4.899 l 0,0 C 37,49.8 39.901,49.3 42,48.9 l 0,0 0,-15.6 C 42,25.9 38.7,19.1 32.9,14.701 l 0,0 L 24,7.7 Z"
       mask="url(#mask5326)" /><path
       style="fill:none;fill-rule:evenodd;stroke:url(#linearGradient5213);stroke-width:2.31999993;stroke-linecap:butt;stroke-linejoin:miter;stroke-miterlimit:4;stroke-dasharray:none;stroke-opacity:1"
       d="m 23.918487,66.032635 -0.538044,-3.179349 -1.125,-1.907609 -1.663044,-1.809784 -3.277175,-1.76087 L 12.864135,55.663066 7.6793507,54.342414 0.92934816,53.266326 1.0271743,31.989144 1.3206526,28.56523 2.1032617,25.336967 3.5217405,21.37501 5.4293498,17.755443 8.2895353,14.023724 11.739135,10.956527 24.016314,1.41848 l 15.016309,11.788048 3.472828,4.695654 2.641305,5.233698 1.565218,5.331523 0.391304,5.331524 0,19.565225 -3.472827,0.293478 -2.543479,0.440218 -3.717393,0.880435 -4.353262,1.369566 -4.108698,2.054348 -2.934783,2.201088 -1.27174,1.76087 -0.782609,3.277175"
       id="path4181"
       inkscape:connector-curvature="0"
       sodipodi:nodetypes="cccccccccccccccccccccccccccccc"
       clip-path="none"
       mask="url(#mask5320)" /></g></svg>