<?xml version="1.0" encoding="UTF-8" standalone="no"?>
<!-- Created with Inkscape (http://www.inkscape.org/) -->

<svg
   xmlns:dc="http://purl.org/dc/elements/1.1/"
   xmlns:cc="http://creativecommons.org/ns#"
   xmlns:rdf="http://www.w3.org/1999/02/22-rdf-syntax-ns#"
   xmlns:svg="http://www.w3.org/2000/svg"
   xmlns="http://www.w3.org/2000/svg"
   xmlns:xlink="http://www.w3.org/1999/xlink"
   xmlns:sodipodi="http://sodipodi.sourceforge.net/DTD/sodipodi-0.dtd"
   xmlns:inkscape="http://www.inkscape.org/namespaces/inkscape"
   id="svg2"
   version="1.1"
   inkscape:version="0.91 r13725"
   xml:space="preserve"
   width="60"
   height="81.624748"
   viewBox="0 0 60 81.624748"
   sodipodi:docname="shild.svg"><metadata
     id="metadata8"><rdf:RDF><cc:Work
         rdf:about=""><dc:format>image/svg+xml</dc:format><dc:type
           rdf:resource="http://purl.org/dc/dcmitype/StillImage" /></cc:Work></rdf:RDF></metadata><defs
     id="defs6"><linearGradient
       x1="0"
       y1="0"
       x2="1"
       y2="0"
       gradientUnits="userSpaceOnUse"
       gradientTransform="matrix(-29.46973,51.043064,51.043064,29.46973,41.206055,9.9335938)"
       spreadMethod="pad"
       id="linearGradient24"><stop
         style="stop-opacity:1;stop-color:#f5d1ca"
         offset="0"
         id="stop26" /><stop
         style="stop-opacity:1;stop-color:#e0cfb3"
         offset="0.526501"
         id="stop28" /><stop
         style="stop-opacity:1;stop-color:#f5d1ca"
         offset="1"
         id="stop30" /></linearGradient><linearGradient
       inkscape:collect="always"
       xlink:href="#linearGradient24"
       id="linearGradient4228"
       gradientUnits="userSpaceOnUse"
       gradientTransform="matrix(-29.46973,51.043064,51.043064,29.46973,41.206055,9.9335938)"
       spreadMethod="pad"
       x1="0"
       y1="0"
       x2="1"
       y2="0" /><mask
       maskUnits="userSpaceOnUse"
       id="mask4218"><g
         id="g4220"><g
           id="g4222"><g
             id="g4224"><path
               inkscape:connector-curvature="0"
               id="path4226"
               style="fill:url(#linearGradient4228);stroke:none"
               d="M 23,65.299 C 23,57.9 7.1,54.8 0.9,54.3 l 0,0 L 0,54.2 0,33.3 C 0,24.099 4.1,15.6 11.4,9.9 l 0,0 L 24,0 36.599,9.9 C 43.9,15.6 48,24.099 48,33.3 l 0,0 0,20.9 -0.9,0.1 C 40.9,54.8 25,57.9 25,65.299 l 0,0 -2,0 z M 12.6,11.5 C 5.9,16.799 2,24.701 2,33.3 l 0,0 0,19.1 c 3.8,0.399 18.1,2.5 22,9.2 l 0,0 c 3.9,-6.7 18.2,-8.801 22,-9.2 l 0,0 0,-19.1 C 46,24.701 42.099,16.799 35.401,11.5 l 0,0 L 24,2.599 12.6,11.5 Z M 23.3,57.7 C 21,55.6 17.6,53.9 13.3,52.6 l 0,0 C 10.1,51.6 6.9,51 4.8,50.701 l 0,0 L 4,50.6 4,33.3 C 4,25.3 7.6,18 13.9,13 l 0,0 L 24,5.099 34.099,13.1 C 40.4,18 44,25.401 44,33.3 l 0,0 0,17.3 -0.8,0.101 C 41.099,51 37.901,51.6 34.7,52.6 l 0,0 c -4.401,1.3 -7.7,3.1 -9.999,5.1 l 0,0 L 24,58.3 23.3,57.7 Z M 15.1,14.701 C 9.3,19.201 6,26 6,33.3 l 0,0 0,15.6 c 2.1,0.4 5,1 8,1.801 l 0,0 C 18.2,52 21.5,53.6 24,55.6 l 0,0 c 2.401,-2 5.8,-3.6 10,-4.899 l 0,0 C 37,49.8 39.901,49.3 42,48.9 l 0,0 0,-15.6 C 42,25.9 38.7,19.1 32.9,14.701 l 0,0 L 24,7.7 15.1,14.701 Z m 7.548,28.189 4.327,-16.715 4.326,0 -4.592,16.715 -4.061,0 z m -1.266,-9.769 c -0.254,-0.012 -1.235,-0.154 -1.92,-0.619 l 0,0 c -0.684,-0.463 -1.285,-1.296 -1.5,-2.008 l 0,0 C 17.788,29.919 17.285,27.735 16.83,26.339 l 0,0 c -0.023,-0.063 -0.047,-0.087 -0.035,-0.118 l 0,0 c 0.017,-0.053 0.13,-0.045 0.284,-0.045 l 0,0 c 0.298,0 1.381,-0.016 1.781,0.042 l 0,0 c 0.426,0.06 1.352,0.194 2.125,1.473 l 0,0 c 0.773,1.281 0.971,2.737 1.258,3.267 l 0,0 c 0.288,0.529 0.734,1.319 1.601,1.699 l 0,0 c 0,0 0.331,0.171 0.53,0.236 l 0,0 c 0.197,0.068 0.214,0.096 0.214,0.138 l 0,0 c 0,0.074 -0.081,0.09 -0.226,0.09 l 0,0 c 0,0 -1.211,0.005 -2.094,0.005 l 0,0 c -0.442,0 -0.801,-0.002 -0.886,-0.005" /></g></g></g></mask><linearGradient
       inkscape:collect="always"
       xlink:href="#linearGradient24"
       id="linearGradient4240"
       gradientUnits="userSpaceOnUse"
       gradientTransform="matrix(-29.46973,51.043064,51.043064,29.46973,41.206055,9.9335938)"
       spreadMethod="pad"
       x1="0"
       y1="0"
       x2="1"
       y2="0" /><mask
       maskUnits="userSpaceOnUse"
       id="mask4230"><g
         id="g4232"><g
           id="g4234"><g
             id="g4236"><path
               inkscape:connector-curvature="0"
               id="path4238"
               style="fill:url(#linearGradient4240);stroke:none"
               d="M 23,65.299 C 23,57.9 7.1,54.8 0.9,54.3 l 0,0 L 0,54.2 0,33.3 C 0,24.099 4.1,15.6 11.4,9.9 l 0,0 L 24,0 36.599,9.9 C 43.9,15.6 48,24.099 48,33.3 l 0,0 0,20.9 -0.9,0.1 C 40.9,54.8 25,57.9 25,65.299 l 0,0 -2,0 z M 12.6,11.5 C 5.9,16.799 2,24.701 2,33.3 l 0,0 0,19.1 c 3.8,0.399 18.1,2.5 22,9.2 l 0,0 c 3.9,-6.7 18.2,-8.801 22,-9.2 l 0,0 0,-19.1 C 46,24.701 42.099,16.799 35.401,11.5 l 0,0 L 24,2.599 12.6,11.5 Z M 23.3,57.7 C 21,55.6 17.6,53.9 13.3,52.6 l 0,0 C 10.1,51.6 6.9,51 4.8,50.701 l 0,0 L 4,50.6 4,33.3 C 4,25.3 7.6,18 13.9,13 l 0,0 L 24,5.099 34.099,13.1 C 40.4,18 44,25.401 44,33.3 l 0,0 0,17.3 -0.8,0.101 C 41.099,51 37.901,51.6 34.7,52.6 l 0,0 c -4.401,1.3 -7.7,3.1 -9.999,5.1 l 0,0 L 24,58.3 23.3,57.7 Z M 15.1,14.701 C 9.3,19.201 6,26 6,33.3 l 0,0 0,15.6 c 2.1,0.4 5,1 8,1.801 l 0,0 C 18.2,52 21.5,53.6 24,55.6 l 0,0 c 2.401,-2 5.8,-3.6 10,-4.899 l 0,0 C 37,49.8 39.901,49.3 42,48.9 l 0,0 0,-15.6 C 42,25.9 38.7,19.1 32.9,14.701 l 0,0 L 24,7.7 15.1,14.701 Z m 7.548,28.189 4.327,-16.715 4.326,0 -4.592,16.715 -4.061,0 z m -1.266,-9.769 c -0.254,-0.012 -1.235,-0.154 -1.92,-0.619 l 0,0 c -0.684,-0.463 -1.285,-1.296 -1.5,-2.008 l 0,0 C 17.788,29.919 17.285,27.735 16.83,26.339 l 0,0 c -0.023,-0.063 -0.047,-0.087 -0.035,-0.118 l 0,0 c 0.017,-0.053 0.13,-0.045 0.284,-0.045 l 0,0 c 0.298,0 1.381,-0.016 1.781,0.042 l 0,0 c 0.426,0.06 1.352,0.194 2.125,1.473 l 0,0 c 0.773,1.281 0.971,2.737 1.258,3.267 l 0,0 c 0.288,0.529 0.734,1.319 1.601,1.699 l 0,0 c 0,0 0.331,0.171 0.53,0.236 l 0,0 c 0.197,0.068 0.214,0.096 0.214,0.138 l 0,0 c 0,0.074 -0.081,0.09 -0.226,0.09 l 0,0 c 0,0 -1.211,0.005 -2.094,0.005 l 0,0 c -0.442,0 -0.801,-0.002 -0.886,-0.005" /></g></g></g></mask><linearGradient
       inkscape:collect="always"
       xlink:href="#linearGradient24"
       id="linearGradient4252"
       gradientUnits="userSpaceOnUse"
       gradientTransform="matrix(-29.46973,51.043064,51.043064,29.46973,41.206055,9.9335938)"
       spreadMethod="pad"
       x1="0"
       y1="0"
       x2="1"
       y2="0" /><mask
       maskUnits="userSpaceOnUse"
       id="mask4242"><g
         id="g4244"><g
           id="g4246"><g
             id="g4248"><path
               inkscape:connector-curvature="0"
               id="path4250"
               style="fill:url(#linearGradient4252);stroke:none"
               d="M 23,65.299 C 23,57.9 7.1,54.8 0.9,54.3 l 0,0 L 0,54.2 0,33.3 C 0,24.099 4.1,15.6 11.4,9.9 l 0,0 L 24,0 36.599,9.9 C 43.9,15.6 48,24.099 48,33.3 l 0,0 0,20.9 -0.9,0.1 C 40.9,54.8 25,57.9 25,65.299 l 0,0 -2,0 z M 12.6,11.5 C 5.9,16.799 2,24.701 2,33.3 l 0,0 0,19.1 c 3.8,0.399 18.1,2.5 22,9.2 l 0,0 c 3.9,-6.7 18.2,-8.801 22,-9.2 l 0,0 0,-19.1 C 46,24.701 42.099,16.799 35.401,11.5 l 0,0 L 24,2.599 12.6,11.5 Z M 23.3,57.7 C 21,55.6 17.6,53.9 13.3,52.6 l 0,0 C 10.1,51.6 6.9,51 4.8,50.701 l 0,0 L 4,50.6 4,33.3 C 4,25.3 7.6,18 13.9,13 l 0,0 L 24,5.099 34.099,13.1 C 40.4,18 44,25.401 44,33.3 l 0,0 0,17.3 -0.8,0.101 C 41.099,51 37.901,51.6 34.7,52.6 l 0,0 c -4.401,1.3 -7.7,3.1 -9.999,5.1 l 0,0 L 24,58.3 23.3,57.7 Z M 15.1,14.701 C 9.3,19.201 6,26 6,33.3 l 0,0 0,15.6 c 2.1,0.4 5,1 8,1.801 l 0,0 C 18.2,52 21.5,53.6 24,55.6 l 0,0 c 2.401,-2 5.8,-3.6 10,-4.899 l 0,0 C 37,49.8 39.901,49.3 42,48.9 l 0,0 0,-15.6 C 42,25.9 38.7,19.1 32.9,14.701 l 0,0 L 24,7.7 15.1,14.701 Z m 7.548,28.189 4.327,-16.715 4.326,0 -4.592,16.715 -4.061,0 z m -1.266,-9.769 c -0.254,-0.012 -1.235,-0.154 -1.92,-0.619 l 0,0 c -0.684,-0.463 -1.285,-1.296 -1.5,-2.008 l 0,0 C 17.788,29.919 17.285,27.735 16.83,26.339 l 0,0 c -0.023,-0.063 -0.047,-0.087 -0.035,-0.118 l 0,0 c 0.017,-0.053 0.13,-0.045 0.284,-0.045 l 0,0 c 0.298,0 1.381,-0.016 1.781,0.042 l 0,0 c 0.426,0.06 1.352,0.194 2.125,1.473 l 0,0 c 0.773,1.281 0.971,2.737 1.258,3.267 l 0,0 c 0.288,0.529 0.734,1.319 1.601,1.699 l 0,0 c 0,0 0.331,0.171 0.53,0.236 l 0,0 c 0.197,0.068 0.214,0.096 0.214,0.138 l 0,0 c 0,0.074 -0.081,0.09 -0.226,0.09 l 0,0 c 0,0 -1.211,0.005 -2.094,0.005 l 0,0 c -0.442,0 -0.801,-0.002 -0.886,-0.005" /></g></g></g></mask><linearGradient
       inkscape:collect="always"
       xlink:href="#linearGradient24"
       id="linearGradient4264"
       gradientUnits="userSpaceOnUse"
       gradientTransform="matrix(-29.46973,51.043064,51.043064,29.46973,41.206055,9.9335938)"
       spreadMethod="pad"
       x1="0"
       y1="0"
       x2="1"
       y2="0" /><mask
       maskUnits="userSpaceOnUse"
       id="mask4254"><g
         id="g4256"><g
           id="g4258"><g
             id="g4260"><path
               inkscape:connector-curvature="0"
               id="path4262"
               style="fill:url(#linearGradient4264);stroke:none"
               d="M 23,65.299 C 23,57.9 7.1,54.8 0.9,54.3 l 0,0 L 0,54.2 0,33.3 C 0,24.099 4.1,15.6 11.4,9.9 l 0,0 L 24,0 36.599,9.9 C 43.9,15.6 48,24.099 48,33.3 l 0,0 0,20.9 -0.9,0.1 C 40.9,54.8 25,57.9 25,65.299 l 0,0 -2,0 z M 12.6,11.5 C 5.9,16.799 2,24.701 2,33.3 l 0,0 0,19.1 c 3.8,0.399 18.1,2.5 22,9.2 l 0,0 c 3.9,-6.7 18.2,-8.801 22,-9.2 l 0,0 0,-19.1 C 46,24.701 42.099,16.799 35.401,11.5 l 0,0 L 24,2.599 12.6,11.5 Z M 23.3,57.7 C 21,55.6 17.6,53.9 13.3,52.6 l 0,0 C 10.1,51.6 6.9,51 4.8,50.701 l 0,0 L 4,50.6 4,33.3 C 4,25.3 7.6,18 13.9,13 l 0,0 L 24,5.099 34.099,13.1 C 40.4,18 44,25.401 44,33.3 l 0,0 0,17.3 -0.8,0.101 C 41.099,51 37.901,51.6 34.7,52.6 l 0,0 c -4.401,1.3 -7.7,3.1 -9.999,5.1 l 0,0 L 24,58.3 23.3,57.7 Z M 15.1,14.701 C 9.3,19.201 6,26 6,33.3 l 0,0 0,15.6 c 2.1,0.4 5,1 8,1.801 l 0,0 C 18.2,52 21.5,53.6 24,55.6 l 0,0 c 2.401,-2 5.8,-3.6 10,-4.899 l 0,0 C 37,49.8 39.901,49.3 42,48.9 l 0,0 0,-15.6 C 42,25.9 38.7,19.1 32.9,14.701 l 0,0 L 24,7.7 15.1,14.701 Z m 7.548,28.189 4.327,-16.715 4.326,0 -4.592,16.715 -4.061,0 z m -1.266,-9.769 c -0.254,-0.012 -1.235,-0.154 -1.92,-0.619 l 0,0 c -0.684,-0.463 -1.285,-1.296 -1.5,-2.008 l 0,0 C 17.788,29.919 17.285,27.735 16.83,26.339 l 0,0 c -0.023,-0.063 -0.047,-0.087 -0.035,-0.118 l 0,0 c 0.017,-0.053 0.13,-0.045 0.284,-0.045 l 0,0 c 0.298,0 1.381,-0.016 1.781,0.042 l 0,0 c 0.426,0.06 1.352,0.194 2.125,1.473 l 0,0 c 0.773,1.281 0.971,2.737 1.258,3.267 l 0,0 c 0.288,0.529 0.734,1.319 1.601,1.699 l 0,0 c 0,0 0.331,0.171 0.53,0.236 l 0,0 c 0.197,0.068 0.214,0.096 0.214,0.138 l 0,0 c 0,0.074 -0.081,0.09 -0.226,0.09 l 0,0 c 0,0 -1.211,0.005 -2.094,0.005 l 0,0 c -0.442,0 -0.801,-0.002 -0.886,-0.005" /></g></g></g></mask><linearGradient
       inkscape:collect="always"
       xlink:href="#linearGradient24"
       id="linearGradient4336"
       x1="1.7849822"
       y1="64.342216"
       x2="45.851074"
       y2="1.1176207"
       gradientUnits="userSpaceOnUse" /><linearGradient
       inkscape:collect="always"
       xlink:href="#linearGradient24"
       id="linearGradient4338"
       x1="1.7849822"
       y1="64.342216"
       x2="45.851074"
       y2="1.1176207"
       gradientUnits="userSpaceOnUse" /><linearGradient
       inkscape:collect="always"
       xlink:href="#linearGradient24"
       id="linearGradient4340"
       x1="1.7849822"
       y1="64.342216"
       x2="45.851074"
       y2="1.1176207"
       gradientUnits="userSpaceOnUse" /><linearGradient
       inkscape:collect="always"
       xlink:href="#linearGradient24"
       id="linearGradient4342"
       x1="1.7849822"
       y1="64.342216"
       x2="45.851074"
       y2="1.1176207"
       gradientUnits="userSpaceOnUse" /></defs><sodipodi:namedview
     pagecolor="#ffffff"
     bordercolor="#666666"
     borderopacity="1"
     objecttolerance="10"
     gridtolerance="10"
     guidetolerance="10"
     inkscape:pageopacity="0"
     inkscape:pageshadow="2"
     inkscape:window-width="1366"
     inkscape:window-height="705"
     id="namedview4"
     showgrid="false"
     inkscape:zoom="5.7825599"
     inkscape:cx="20.933411"
     inkscape:cy="41.873723"
     inkscape:window-x="-8"
     inkscape:window-y="-8"
     inkscape:window-maximized="1"
     inkscape:current-layer="g10"
     showguides="false" /><g
     id="g10"
     inkscape:groupmode="layer"
     inkscape:label="Векторный смарт-объект11"
     transform="matrix(1.25,0,0,-1.25,0,81.62475)"><path
       style="fill:none;fill-rule:evenodd;stroke:url(#linearGradient4342);stroke-width:4.55999994;stroke-linecap:butt;stroke-linejoin:miter;stroke-miterlimit:4;stroke-dasharray:none;stroke-opacity:1"
       d="M 24.75001,43.532626 29.250011,25.385881"
       id="path4206"
       inkscape:connector-curvature="0"
       sodipodi:nodetypes="cc"
       mask="url(#mask4254)" /><path
       style="fill:none;fill-rule:evenodd;stroke:url(#linearGradient4340);stroke-width:4.48;stroke-linecap:butt;stroke-linejoin:miter;stroke-opacity:1;stroke-miterlimit:4;stroke-dasharray:none"
       d="M 24.660358,33.064942 22.481393,32.684487 20.613708,31.681471 18.88437,27.946102 17.846767,26.873912 16.601644,26.04383"
       id="path4204"
       inkscape:connector-curvature="0"
       mask="url(#mask4242)" /><path
       style="fill:none;fill-rule:evenodd;stroke:url(#linearGradient4338);stroke-width:2.48000002;stroke-linecap:butt;stroke-linejoin:miter;stroke-miterlimit:4;stroke-dasharray:none;stroke-opacity:1"
       d="M 25.287631,58.312341 20.93479,54.586978 17.41305,53.021761 12.815222,51.456542 4.8913062,49.597846 5.0869584,29.934795 6.4565242,24.26088 8.9021776,19.760878 12.326091,15.750007 23.9674,6.4565256 l 11.836962,9.3913084 2.934783,3.619566 2.641305,4.79348 1.173914,4.597828 0.586957,5.478263 -0.195653,15.554354 -4.891306,0.880435 -3.619567,0.684782 -4.695653,1.760871 -3.619567,2.250001 -3.379495,2.186761"
       id="path4178"
       inkscape:connector-curvature="0"
       sodipodi:nodetypes="ccccccccccccccccccccc"
       mask="url(#mask4230)" /><path
       style="fill:none;fill-rule:evenodd;stroke:url(#linearGradient4336);stroke-width:2.88000011;stroke-linecap:butt;stroke-linejoin:miter;stroke-miterlimit:4;stroke-dasharray:none;stroke-opacity:1"
       d="M 22.619739,65.749428 22.550566,61.702777 20.752054,59.627572 16.048255,56.860631 11.067762,55.200466 4.9804931,53.816997 0.9684292,53.263608 0.83008216,30.159654 1.7985114,25.732549 3.8737169,20.337015 7.8857808,14.388093 13.004621,9.8226408 23.934036,1.5218184 39.567251,13.696358 l 3.320329,4.565452 2.213552,4.565452 1.798511,6.225616 0.276695,7.332392 -0.138348,17.155032 -6.640657,0.691736 -3.181982,0.830082 -4.288757,1.38347 -3.597024,1.936858 -3.597023,2.24814 -1.59099,5.153427"
       id="path4160"
       inkscape:connector-curvature="0"
       sodipodi:nodetypes="ccccccccccccccccccccccccc"
       mask="url(#mask4218)" /></g></svg>