<?xml version="1.0" encoding="utf-8"?>
<!-- Generator: Adobe Illustrator 17.1.0, SVG Export Plug-In . SVG Version: 6.00 Build 0)  -->
<!DOCTYPE svg PUBLIC "-//W3C//DTD SVG 1.1//EN" "http://www.w3.org/Graphics/SVG/1.1/DTD/svg11.dtd">
<svg version="1.1" id="Layer_1" xmlns="http://www.w3.org/2000/svg" xmlns:xlink="http://www.w3.org/1999/xlink" x="0px" y="0px"
	 viewBox="0 0 220 28" enable-background="new 0 0 220 28" xml:space="preserve">
<path fill="#E3B7AD" d="M15.85,0.984c-1.202-0.71-2.76-0.604-2.76-0.604h-2.301l1.715,3.276L0,27.101h5.445l0.519-0.887
	c1.874-1.601,6.745-3.1,13.648-3.047h3.127l2.066,3.933h5.698L17.989,3.416C17.989,3.416,17.053,1.693,15.85,0.984 M19.562,18.429
	c-5.394,0-8.221,0.619-10.326,1.762l5.94-11.442l5.092,9.681H19.562z"/>
<polygon fill="#E3B7AD" points="73.185,6.177 82.662,6.177 82.662,27.1 87.856,27.1 87.856,6.177 93.394,6.177 97.687,6.177 
	97.687,3.85 97.687,0.984 73.185,0.984 "/>
<path fill="#E3B7AD" d="M119.646,22.664c-4.99,0-9.045-2.723-9.045-8.622c0-5.899,3.954-8.672,8.994-8.672
	c2.47,0,5.04,0.707,7.008,2.067l3.479-4.033c-2.875-2.168-6.656-3.277-10.487-3.277c-7.814,0-14.489,4.941-14.489,13.814
	c0,8.821,6.524,13.966,14.44,13.966c3.982,0,7.863-1.26,10.739-3.732l-3.026-4.336C125.244,21.655,122.369,22.664,119.646,22.664"/>
<path fill="#E3B7AD" d="M152.477,0.093c-7.759,0-14.512,4.941-14.512,13.814c0,8.821,6.603,13.966,14.462,13.966
	c7.859,0,14.561-5.243,14.561-14.117C166.988,4.681,160.287,0.093,152.477,0.093 M152.527,22.58c-4.955,0-9.153-2.673-9.153-8.572
	s4.099-8.571,9.104-8.571c4.905,0,9.107,2.521,9.107,8.37C161.585,19.453,157.433,22.58,152.527,22.58"/>
<rect x="177.021" y="0.984" fill="#E3B7AD" width="5.142" height="26.115"/>
<path fill="#E3B7AD" d="M214.206,0.983v18.151c0,0-12.38-14.163-13.195-15.177c-1.091-1.355-1.493-1.713-2.613-2.359
	c-1.072-0.618-3.884-0.615-3.884-0.615h-2.592l2.57,3.884V27.1h5.192v-16.99l14.521,16.99h5.191V0.983H214.206z"/>
<path fill="#E3B7AD" d="M58.807,19.186l-1.13-1.784l0.001,0.395c-0.128,0,0.003-0.003,0-0.001c0,0,5.719-2.163,5.719-8.525
	c0-4.262-3.147-8.288-7.938-8.288H38.621v26.117h5.293v-7.842c2.009-1.052,3.116-1.469,6.713-1.509
	c0.171-0.002,0.673,0.044,0.854,0.044l3.645,5.174c2.419,3.93,6.748,4.133,9.471,4.133l1.108-0.003V22
	C62.432,22,60.818,22.281,58.807,19.186 M44.305,13.875c-0.131,0.063-0.264,0.121-0.391,0.191V6.178h10.639
	c1.813,0,3.719,0.736,3.719,3.349c0,1.959-1.548,3.027-2.813,3.027h-4.096h-0.138C48.673,12.554,46.259,12.915,44.305,13.875"/>
</svg>
