<?xml version="1.0" encoding="utf-8"?>
<!-- Generator: Adobe Illustrator 17.1.0, SVG Export Plug-In . SVG Version: 6.00 Build 0)  -->
<!DOCTYPE svg PUBLIC "-//W3C//DTD SVG 1.1//EN" "http://www.w3.org/Graphics/SVG/1.1/DTD/svg11.dtd">
<svg version="1.1" id="Layer_1" xmlns="http://www.w3.org/2000/svg" xmlns:xlink="http://www.w3.org/1999/xlink" x="0px" y="0px"
	 viewBox="0 0 52 53" enable-background="new 0 0 52 53" xml:space="preserve">
<g>
	<g>
		<path fill="#76654F" d="M22.712,45.435c-12.472,0-22.677-10.204-22.677-22.677c0-12.472,10.205-22.677,22.677-22.677
			c12.472,0,22.677,10.205,22.677,22.677C45.389,35.231,35.184,45.435,22.712,45.435z M22.712,4.844
			c-9.978,0-18.142,8.163-18.142,18.141c0,9.979,8.164,18.142,18.142,18.142c9.978,0,18.142-8.163,18.142-18.142
			C40.853,13.007,32.689,4.844,22.712,4.844z"/>
	</g>
	<g>
		<path fill="#76654F" d="M49.697,52.918c-0.68,0-1.134-0.227-1.588-0.68L35.41,39.54c-0.906-0.907-0.906-2.267,0-3.175
			c0.908-0.907,2.268-0.907,3.176,0l12.699,12.699c0.906,0.907,0.906,2.268,0,3.175C50.831,52.692,50.377,52.918,49.697,52.918z"/>
	</g>
	<g>
		<path fill="#76654F" d="M22.712,33.871c-1.361,0-2.267-0.907-2.267-2.269V13.688c0-1.36,0.907-2.268,2.267-2.268
			c1.36,0,2.268,0.907,2.268,2.268v17.914C24.979,32.737,24.072,33.871,22.712,33.871z"/>
	</g>
	<g>
		<path fill="#76654F" d="M31.783,24.799H13.868c-1.36,0-2.268-0.907-2.268-2.268c0-1.36,0.907-2.268,2.268-2.268h17.916
			c1.359,0,2.268,0.907,2.268,2.268C34.051,23.892,32.916,24.799,31.783,24.799z"/>
	</g>
</g>
</svg>
