<?xml version="1.0" standalone="no"?>
<!DOCTYPE svg PUBLIC "-//W3C//DTD SVG 1.1//EN" "http://www.w3.org/Graphics/SVG/1.1/DTD/svg11.dtd" >
<svg xmlns="http://www.w3.org/2000/svg">
<metadata></metadata>
<defs>
<font id="proxima_nova_excn_rgbold" horiz-adv-x="860" >
<font-face units-per-em="2048" ascent="1618" descent="-430" />
<missing-glyph horiz-adv-x="333" />
<glyph horiz-adv-x="0" />
<glyph horiz-adv-x="0" />
<glyph horiz-adv-x="682" />
<glyph unicode="&#xd;" horiz-adv-x="0" />
<glyph unicode=" "  horiz-adv-x="333" />
<glyph unicode="&#x09;" horiz-adv-x="333" />
<glyph unicode="&#xa0;" horiz-adv-x="333" />
<glyph unicode="!" horiz-adv-x="507" d="M102 129q0 61 45 106.5t107 45.5q63 0 107.5 -45t44.5 -107t-44.5 -107t-107.5 -45q-62 0 -107 45.5t-45 106.5zM113 1366h282l-39 -938h-200z" />
<glyph unicode="&#x22;" horiz-adv-x="796" d="M94 1260q0 52 38 89t91 37t90 -37t37 -89q0 -16 -19 -133.5t-38 -226.5l-19 -109h-102q-78 432 -78 469zM446 1260q0 52 37 89t90 37q54 0 90.5 -36.5t36.5 -89.5q0 -16 -19 -133.5t-37 -226.5l-19 -109h-103q-76 432 -76 469z" />
<glyph unicode="#" horiz-adv-x="931" d="M31 354l35 150h122l82 358h-123l31 148h127l82 356h174l-82 -356h127l82 356h172l-82 -356h121l-31 -148h-125l-84 -358h129l-34 -150h-129l-82 -354h-174l86 354h-129l-82 -354h-174l84 354h-123zM362 504h125l84 358h-129z" />
<glyph unicode="$" horiz-adv-x="796" d="M25 111l112 202q40 -52 100 -80t123 -28q61 0 99.5 41.5t38.5 107.5q0 49 -24 90.5t-62.5 73.5t-85 64.5t-92.5 72t-84.5 85.5t-62.5 115t-24 153q0 129 70 229.5t195 134.5v201h176v-189q140 -15 237 -106l-100 -199q-77 80 -188 80q-56 0 -91.5 -38t-35.5 -99 q0 -43 24 -81t62 -70t84.5 -65t93 -74t84.5 -89t62 -118.5t24 -153.5q0 -138 -68 -239t-188 -138v-199h-176v182q-180 11 -303 134z" />
<glyph unicode="%" horiz-adv-x="1202" d="M41 1044q0 147 73.5 244.5t192.5 97.5q121 0 193.5 -97t72.5 -245q0 -145 -72.5 -240t-193.5 -95q-120 0 -193 95t-73 240zM197 1044q0 -87 29.5 -139.5t80.5 -52.5q52 0 81.5 52.5t29.5 139.5q0 91 -29.5 144t-81.5 53q-51 0 -80.5 -53t-29.5 -144zM264 0l572 1366h104 l-571 -1366h-105zM629 313q0 147 73 243.5t193 96.5q121 0 193.5 -96t72.5 -244q0 -146 -73 -242t-193 -96q-119 0 -192.5 96.5t-73.5 241.5zM784 313q0 -87 29.5 -139.5t81.5 -52.5t81.5 52.5t29.5 139.5q0 90 -29.5 143.5t-81.5 53.5t-81.5 -53.5t-29.5 -143.5z" />
<glyph unicode="&#x26;" horiz-adv-x="915" d="M55 356q0 73 16.5 135t48.5 111t64 84t78 74q-74 188 -74 289q0 149 77.5 243t197.5 94q110 0 186 -83t76 -207q0 -56 -14.5 -106t-32 -83.5t-55 -74t-59.5 -60t-70 -59.5q67 -131 71 -138l64 -116q27 80 63 233l185 -84q-54 -209 -127 -346q56 -91 172 -262h-244l-55 88 q-113 -113 -261 -113q-136 0 -221.5 101t-85.5 280zM285 369q0 -90 36.5 -149.5t90.5 -59.5q61 0 118 80q-60 102 -102 184q-40 70 -78 147q-65 -87 -65 -202zM391 1049q0 -62 31 -160q106 96 106 201q0 62 -18.5 95.5t-46.5 33.5q-72 0 -72 -170z" />
<glyph unicode="'" horiz-adv-x="446" d="M94 1260q0 52 38 89t91 37t90 -37t37 -89q0 -16 -19 -133.5t-38 -226.5l-19 -109h-102q-78 432 -78 469z" />
<glyph unicode="(" horiz-adv-x="528" d="M96 498q0 478 219 905l170 -74q-137 -411 -137 -831q0 -422 137 -830l-170 -76q-219 427 -219 906z" />
<glyph unicode=")" horiz-adv-x="528" d="M43 -332q135 402 135 830q0 426 -135 831l168 74q221 -425 221 -905q0 -481 -221 -906z" />
<glyph unicode="*" horiz-adv-x="657" d="M29 971l200 104l-200 103l59 104l191 -123l-11 227h119l-10 -227l190 123l62 -104l-203 -103l203 -104l-62 -103l-190 123l10 -227h-119l11 227l-191 -123z" />
<glyph unicode="+" horiz-adv-x="784" d="M59 618v146h254v285h158v-285h254v-146h-254v-299h-158v299h-254z" />
<glyph unicode="," horiz-adv-x="507" d="M102 131q0 62 43.5 106t104.5 44q69 0 117.5 -53.5t48.5 -143.5q0 -106 -53.5 -199.5t-145.5 -158.5l-102 81q51 30 96 86.5t55 108.5q-12 -6 -35 -6q-54 0 -91.5 38.5t-37.5 96.5z" />
<glyph unicode="-" horiz-adv-x="493" d="M61 397v197h371v-197h-371z" />
<glyph unicode="." horiz-adv-x="507" d="M102 129q0 61 45 106.5t107 45.5t107 -45.5t45 -106.5t-45 -106.5t-107 -45.5t-107 45.5t-45 106.5z" />
<glyph unicode="/" horiz-adv-x="464" d="M0 -41l301 1448h164l-301 -1448h-164z" />
<glyph unicode="0" horiz-adv-x="929" d="M63 682q0 109 14 208.5t45 191t76.5 158.5t114 106.5t152.5 39.5t152.5 -39.5t114 -106.5t76.5 -158.5t44.5 -191t13.5 -208.5q0 -90 -9.5 -174t-29.5 -164.5t-52.5 -146.5t-76 -116t-103 -78t-130.5 -28q-104 0 -184 60.5t-126 163t-69 224.5t-23 259zM328 682 q0 -92 2.5 -156t10.5 -129t22.5 -104t40 -63.5t61.5 -24.5t61.5 24.5t40 63.5t22.5 104t10.5 129t2.5 156q0 93 -2.5 156.5t-10.5 128.5t-22.5 103.5t-40 62.5t-61.5 24q-35 0 -60.5 -24t-40 -62.5t-23 -103t-11 -129t-2.5 -156.5z" />
<glyph unicode="1" horiz-adv-x="712" d="M12 991l371 375h223v-1366h-258v1032l-188 -196z" />
<glyph unicode="2" horiz-adv-x="903" d="M49 1159q71 111 165 169t226 58q177 0 283 -107t106 -284q0 -134 -80 -285.5t-323 -482.5h410v-227h-750v215q174 221 262 337.5t142 205t66.5 132.5t12.5 101q0 70 -38.5 118t-102.5 48q-134 0 -215 -151z" />
<glyph unicode="3" horiz-adv-x="901" d="M41 199l176 151q81 -145 211 -145q156 0 156 190q0 100 -49.5 143.5t-116.5 43.5q-64 0 -84 -2v231q16 -2 74 -2q75 0 118 44t43 128q0 176 -143 176q-63 0 -116 -34.5t-85 -96.5l-168 137q63 110 162.5 166.5t218.5 56.5q174 0 278.5 -92.5t104.5 -275.5 q0 -109 -60.5 -198.5t-156.5 -112.5q103 -22 169.5 -115t66.5 -217q0 -180 -109 -290t-293 -110q-131 0 -234.5 62.5t-162.5 161.5z" />
<glyph unicode="4" horiz-adv-x="882" d="M33 301v227l413 838h302v-840h102v-225h-102v-301h-259v301h-456zM242 526h247v539z" />
<glyph unicode="5" horiz-adv-x="913" d="M57 199l168 151q77 -145 205 -145q73 0 116.5 66.5t43.5 160.5q0 227 -141 227q-52 0 -90.5 -26t-75.5 -86l-191 49v770h696v-227h-440v-367q30 50 83.5 80.5t115.5 30.5q139 0 223 -116.5t84 -328.5q0 -201 -111 -332t-297 -131q-135 0 -229 56t-160 168z" />
<glyph unicode="6" horiz-adv-x="905" d="M63 682q0 204 50 360.5t155 250t252 93.5q92 0 170.5 -41t126.5 -112l-135 -184q-55 108 -156 108q-64 0 -111 -62t-69 -157.5t-22 -208.5v-18q31 75 91.5 122.5t137.5 47.5q129 0 214 -116.5t85 -326.5q0 -200 -103.5 -331.5t-269.5 -131.5q-90 0 -161 38t-118 102.5 t-78.5 156t-45 193t-13.5 217.5zM324 510q10 -305 141 -305q64 0 94.5 64.5t30.5 158.5q0 122 -36.5 176.5t-90.5 54.5q-85 0 -139 -149z" />
<glyph unicode="7" horiz-adv-x="798" d="M37 1139v227h727v-178l-340 -1188h-274l329 1139h-442z" />
<glyph unicode="8" horiz-adv-x="903" d="M57 342q0 119 69 221.5t161 141.5q-88 35 -149.5 123.5t-61.5 207.5q0 117 54.5 198t137.5 116.5t185 35.5q75 0 141 -21t119.5 -62t84.5 -110t31 -157q0 -119 -63 -207.5t-152 -123.5q93 -39 162.5 -141t69.5 -220q0 -174 -102 -271.5t-291 -97.5q-193 0 -294.5 96.5 t-101.5 270.5zM317 381q0 -86 37.5 -131t98.5 -45q59 0 97 45.5t38 130.5q0 94 -50.5 158.5t-84.5 72.5q-36 -7 -86 -71.5t-50 -159.5zM328 987q0 -45 15.5 -83.5t39 -61.5t40.5 -35.5t30 -18.5q12 6 28 18t39 36t38 62t15 83q0 80 -31 125t-89 45q-61 0 -93 -44.5 t-32 -125.5z" />
<glyph unicode="9" horiz-adv-x="905" d="M53 926q0 200 103.5 331.5t269.5 131.5q90 0 161 -38t118 -102.5t78.5 -156t45 -193t13.5 -217.5q0 -204 -50.5 -361t-155.5 -250.5t-251 -93.5q-91 0 -170 41.5t-127 112.5l135 184q57 -108 156 -108q61 0 108 59t71 155.5t24 211.5v20q-30 -75 -91.5 -122.5 t-138.5 -47.5q-129 0 -214 116.5t-85 326.5zM313 936q0 -121 37 -176t90 -55q88 0 140 149q-5 305 -138 305q-64 0 -96.5 -65t-32.5 -158z" />
<glyph unicode=":" horiz-adv-x="507" d="M102 129q0 61 45 106.5t107 45.5t107 -45.5t45 -106.5t-45 -106.5t-107 -45.5t-107 45.5t-45 106.5zM102 852q0 63 45 107.5t107 44.5t107 -44.5t45 -107.5q0 -61 -45 -105.5t-107 -44.5t-107 44.5t-45 105.5z" />
<glyph unicode=";" horiz-adv-x="507" d="M102 135q0 62 43.5 106t104.5 44q69 0 117.5 -54t48.5 -143q0 -106 -53.5 -200t-145.5 -160l-102 86q51 29 96 84.5t55 107.5q-6 -6 -35 -6q-55 0 -92 38t-37 97zM102 854q0 61 45 105.5t107 44.5t107 -44.5t45 -105.5q0 -62 -45 -107t-107 -45t-107 45t-45 107z" />
<glyph unicode="&#x3c;" horiz-adv-x="784" d="M59 602v166l666 285v-174l-494 -195l494 -190v-175z" />
<glyph unicode="=" horiz-adv-x="784" d="M59 416v147h666v-147h-666zM59 805v147h666v-147h-666z" />
<glyph unicode="&#x3e;" horiz-adv-x="784" d="M59 319v175l494 190l-494 195v174l666 -285v-166z" />
<glyph unicode="?" horiz-adv-x="665" d="M53 1264q116 125 279 125q138 0 220.5 -83.5t82.5 -211.5q0 -67 -23.5 -128.5t-56.5 -108t-66.5 -90t-57 -93.5t-23.5 -101q0 -49 30 -92l-196 -73q-49 70 -49 180q0 62 19.5 115.5t47 92t55 74.5t47 79.5t19.5 90.5q0 49 -31 87t-80 38q-61 0 -112 -63zM186 129 q0 61 45 106.5t107 45.5q61 0 106 -45t45 -107t-45 -107t-106 -45q-62 0 -107 45.5t-45 106.5z" />
<glyph unicode="@" horiz-adv-x="1300" d="M72 440q0 165 57 323.5t152.5 278.5t228.5 193.5t276 73.5q196 0 319.5 -134t123.5 -362q0 -171 -47 -318.5t-126.5 -234t-170.5 -86.5q-69 0 -116.5 37t-57.5 100l-2 17q-45 -71 -100 -112.5t-132 -41.5q-38 0 -70.5 13t-61.5 41.5t-45.5 81.5t-16.5 126q0 140 47.5 273 t139 222t202.5 89q115 0 149 -133l21 104h205l-109 -518q-6 -30 -6 -51q0 -48 12.5 -69t44.5 -21q21 0 47 33.5t50.5 92t41.5 152.5t17 201q0 200 -98 310t-265 110q-127 0 -244.5 -69t-200.5 -179.5t-133 -253.5t-50 -287q0 -111 25 -203t74.5 -161t129 -107.5t182.5 -38.5 q85 0 156 28.5t145 84.5l41 -59q-175 -129 -352 -129q-229 0 -356 156.5t-127 426.5zM498 471q0 -133 82 -133q26 0 48.5 11t42 33.5t30.5 39t28 45.5l62 283q-24 104 -86 104q-48 0 -89 -38.5t-65.5 -97t-38.5 -124t-14 -123.5z" />
<glyph unicode="A" horiz-adv-x="868" d="M0 0l285 1366h297l286 -1366h-266l-41 252h-254l-41 -252h-266zM336 479h196l-98 598z" />
<glyph unicode="B" horiz-adv-x="925" d="M106 0v1366h412q109 0 185 -48.5t109.5 -125.5t33.5 -174q0 -125 -54.5 -205.5t-146.5 -107.5q96 -15 157.5 -111.5t61.5 -224.5q0 -108 -33 -189t-109 -130.5t-190 -49.5h-426zM365 227h94q141 0 141 179q0 79 -36 127.5t-105 48.5h-94v-355zM365 809h86q131 0 131 164 q0 166 -131 166h-86v-330z" />
<glyph unicode="C" horiz-adv-x="878" d="M63 682q0 156 25.5 283t76.5 223t134.5 148.5t192.5 52.5q64 0 116.5 -20.5t87 -50.5t63 -75.5t44.5 -85.5t31 -90l-205 -76q-24 86 -54 127t-83 41q-164 0 -164 -477t164 -477q107 0 139 198l207 -75q-13 -53 -29 -97t-44.5 -94t-64 -83.5t-89.5 -56t-119 -22.5 q-109 0 -192.5 53t-134.5 149t-76.5 223t-25.5 282z" />
<glyph unicode="D" horiz-adv-x="974" d="M106 0v1366h340q121 0 211.5 -51.5t145 -145t81.5 -215.5t27 -272q0 -151 -26.5 -273t-80.5 -215t-144 -143.5t-211 -50.5h-343zM365 227h81q201 0 201 455q0 457 -201 457h-81v-912z" />
<glyph unicode="E" horiz-adv-x="774" d="M106 0v1366h599v-227h-340v-330h325v-227h-325v-355h340v-227h-599z" />
<glyph unicode="F" horiz-adv-x="770" d="M106 0v1366h599v-227h-340v-330h325v-227h-325v-582h-259z" />
<glyph unicode="G" horiz-adv-x="927" d="M63 682q0 215 45 370.5t142.5 246t241.5 90.5q134 0 219.5 -89t122.5 -233l-205 -76q-20 80 -51 124t-86 44q-79 0 -121.5 -118.5t-42.5 -358.5q0 -239 43 -358t121 -119q80 0 122 61v248h-153v227h381v-585q-70 -90 -154 -135.5t-196 -45.5q-108 0 -191 51.5t-134.5 146 t-77.5 222.5t-26 287z" />
<glyph unicode="H" horiz-adv-x="991" d="M106 0v1366h259v-551h262v551h258v-1366h-258v590h-262v-590h-259z" />
<glyph unicode="I" horiz-adv-x="471" d="M106 0v1366h259v-1366h-259z" />
<glyph unicode="J" horiz-adv-x="712" d="M16 49l70 211q49 -55 125 -55q66 0 103.5 37t37.5 112v1012h258v-1024q0 -185 -99 -276t-271 -91q-135 0 -224 74z" />
<glyph unicode="K" horiz-adv-x="964" d="M106 0v1366h259v-631l286 631h283l-334 -643l358 -723h-292l-215 520l-86 -172v-348h-259z" />
<glyph unicode="L" horiz-adv-x="747" d="M106 0v1366h259v-1139h340v-227h-599z" />
<glyph unicode="M" horiz-adv-x="1261" d="M106 0v1366h328l197 -698l203 698h321v-1366h-254v807l-227 -807h-86l-223 807v-807h-259z" />
<glyph unicode="N" horiz-adv-x="991" d="M106 0v1366h259l262 -696v696h258v-1366h-244l-276 723v-723h-259z" />
<glyph unicode="O" horiz-adv-x="978" d="M63 682q0 154 24.5 280t75 223t133.5 150.5t193 53.5q109 0 192 -53.5t133.5 -150t75.5 -223t25 -280.5t-25 -280.5t-75.5 -223t-133.5 -150t-192 -53.5q-110 0 -193 53.5t-133.5 150.5t-75 223t-24.5 280zM328 682q0 -477 161 -477q162 0 162 477t-162 477 q-161 0 -161 -477z" />
<glyph unicode="P" horiz-adv-x="903" d="M106 0v1366h369q97 0 172 -35t120.5 -95.5t69 -137t23.5 -164.5t-23.5 -164.5t-69 -137t-120.5 -95.5t-172 -35h-110v-502h-259zM365 729h84q71 0 110 55.5t39 149.5q0 95 -39 150t-110 55h-84v-410z" />
<glyph unicode="Q" horiz-adv-x="978" d="M63 682q0 154 24.5 280t75 223t133.5 150.5t193 53.5q109 0 192 -53.5t133.5 -150t75.5 -223t25 -280.5q0 -430 -178 -608l31 -76l-180 -70l-23 56q-37 -9 -76 -9q-110 0 -193 53.5t-133.5 150.5t-75 223t-24.5 280zM328 682q0 -466 153 -477l-94 246l180 69l56 -147 q28 118 28 309q0 477 -162 477q-161 0 -161 -477z" />
<glyph unicode="R" horiz-adv-x="942" d="M106 0v1366h381q163 0 268 -118.5t105 -305.5q0 -156 -52 -247.5t-124 -129.5l188 -565h-276l-147 502h-84v-502h-259zM365 729h84q71 0 110 55.5t39 149.5q0 95 -39 150t-110 55h-84v-410z" />
<glyph unicode="S" horiz-adv-x="811" d="M25 111l112 202q40 -52 100 -80t123 -28q61 0 99.5 41.5t38.5 107.5q0 49 -24 90.5t-62.5 73.5t-85 64.5t-92.5 72t-84.5 85.5t-62.5 115t-24 153q0 161 103 271t278 110q180 0 297 -111l-100 -199q-77 80 -188 80q-56 0 -91.5 -38t-35.5 -99q0 -43 24 -81t62 -70 t84.5 -65t93 -74t84.5 -89t62 -118.5t24 -153.5q0 -174 -105 -285t-278 -111q-216 0 -352 136z" />
<glyph unicode="T" horiz-adv-x="745" d="M37 1139v227h672v-227h-207v-1139h-258v1139h-207z" />
<glyph unicode="U" horiz-adv-x="991" d="M106 395v971h259v-983q0 -180 131 -180t131 180v983h258v-971q0 -106 -32 -188.5t-87 -132t-123.5 -74.5t-146.5 -25t-147 25t-124 74.5t-87 132t-32 188.5z" />
<glyph unicode="V" horiz-adv-x="868" d="M0 1366h266l168 -1034l168 1034h266l-286 -1366h-297z" />
<glyph unicode="W" horiz-adv-x="1261" d="M23 1366h262l114 -915l129 915h205l131 -915l113 915h262l-233 -1366h-263l-112 881l-113 -881h-262z" />
<glyph unicode="X" horiz-adv-x="897" d="M-2 0l301 696l-285 670h285l150 -446l149 446h287l-287 -668l303 -698h-285l-167 471l-166 -471h-285z" />
<glyph unicode="Y" horiz-adv-x="880" d="M-8 1366h274l174 -551l178 551h271l-320 -801v-565h-256v565z" />
<glyph unicode="Z" horiz-adv-x="770" d="M61 0v217l345 922h-345v227h635v-209l-352 -930h367v-227h-650z" />
<glyph unicode="[" horiz-adv-x="419" d="M72 -389v1778h311v-156h-143v-1466h143v-156h-311z" />
<glyph unicode="\" horiz-adv-x="464" d="M2 1407h162l301 -1448h-162z" />
<glyph unicode="]" horiz-adv-x="419" d="M35 -233h143v1466h-143v156h313v-1778h-313v156z" />
<glyph unicode="^" horiz-adv-x="690" d="M39 682l221 684h170l221 -684h-168l-139 498l-139 -498h-166z" />
<glyph unicode="_" horiz-adv-x="571" d="M-6 -82h584v-158h-584v158z" />
<glyph unicode="`" horiz-adv-x="364" d="M0 1434h201l164 -295h-148z" />
<glyph unicode="a" horiz-adv-x="849" d="M49 305q0 148 74.5 235t193.5 87q59 0 118.5 -29.5t88.5 -81.5v121q0 180 -149 180q-106 0 -201 -98l-86 164q62 67 154.5 99t179.5 32q157 0 245.5 -81.5t88.5 -242.5v-690h-232v94q-31 -56 -90 -87.5t-117 -31.5q-119 0 -193.5 90t-74.5 240zM281 301 q0 -75 30.5 -122.5t87.5 -47.5q38 0 72 27.5t53 74.5v134q-19 46 -53 74t-72 28q-58 0 -88 -47t-30 -121z" />
<glyph unicode="b" horiz-adv-x="866" d="M94 0v1366h232v-500q29 72 82 110t110 38q143 0 218 -140t75 -380q0 -243 -75 -381t-218 -138q-55 0 -108 38.5t-84 109.5v-123h-232zM326 299q15 -52 47.5 -85.5t68.5 -33.5q131 0 131 314q0 315 -131 315q-36 0 -68.5 -34.5t-47.5 -86.5v-389z" />
<glyph unicode="c" horiz-adv-x="704" d="M55 496q0 231 101 374.5t276 143.5q152 0 240 -88l-74 -181q-61 64 -125 64q-87 0 -133.5 -88.5t-46.5 -224.5q0 -137 46.5 -226.5t133.5 -89.5q64 0 125 64l74 -181q-81 -88 -240 -88q-175 0 -276 145t-101 376z" />
<glyph unicode="d" horiz-adv-x="866" d="M55 494q0 240 75 380t218 140q57 0 110.5 -38t82.5 -110v500h231v-1366h-231v123q-31 -71 -84.5 -109.5t-108.5 -38.5q-143 0 -218 138t-75 381zM293 494q0 -314 131 -314q36 0 69 34t48 85v391q-15 51 -48 85t-69 34q-131 0 -131 -315z" />
<glyph unicode="e" horiz-adv-x="827" d="M55 496q0 147 40 262t125.5 185.5t205.5 70.5q121 0 202 -69t116.5 -181.5t35.5 -263.5v-80h-501q2 -115 51 -185.5t143 -70.5q42 0 86.5 26.5t77.5 71.5l113 -129q-59 -75 -137.5 -116.5t-163.5 -41.5q-188 0 -291 143.5t-103 377.5zM279 582h278q0 243 -137 243 q-40 0 -69 -22.5t-44 -60.5t-21.5 -77.5t-6.5 -82.5z" />
<glyph unicode="f" horiz-adv-x="512" d="M35 788v201h90v103q0 142 68 218t198 76q111 0 172 -55l-59 -178q-29 33 -68 33t-59.5 -25t-20.5 -69v-103h125v-201h-125v-788h-231v788h-90z" />
<glyph unicode="g" horiz-adv-x="866" d="M55 510q0 238 74.5 371t218.5 133q57 0 110.5 -38t82.5 -110v123h231v-956q0 -99 -21 -175.5t-55.5 -124.5t-83.5 -79t-101.5 -43t-113.5 -12q-194 0 -305 106l78 189q95 -95 203 -95q78 0 123 53t45 164v144q-31 -72 -84.5 -112t-108.5 -40q-144 0 -218.5 130.5 t-74.5 371.5zM293 510q0 -142 29.5 -219.5t101.5 -77.5q36 0 69 34t48 85v358q-15 51 -48 85t-69 34q-37 0 -63 -21.5t-40.5 -63t-21 -93.5t-6.5 -121z" />
<glyph unicode="h" d="M94 0v1366h232v-506q30 62 97.5 108t133.5 46q211 0 211 -223v-791h-233v709q0 100 -76 100q-41 0 -77.5 -38.5t-55.5 -90.5v-680h-232z" />
<glyph unicode="i" horiz-adv-x="417" d="M68 1245q0 58 42 99.5t99 41.5q59 0 100 -41t41 -100q0 -58 -41 -98.5t-100 -40.5q-58 0 -99.5 40.5t-41.5 98.5zM94 0v989h232v-989h-232z" />
<glyph unicode="j" horiz-adv-x="417" d="M-78 -352l53 178q17 -27 52 -27q67 0 67 115v1075h232v-1075q0 -159 -66.5 -237t-206.5 -78q-85 0 -131 49zM68 1245q0 58 42 99.5t99 41.5q59 0 100 -41t41 -100q0 -58 -41 -98.5t-100 -40.5q-58 0 -99.5 40.5t-41.5 98.5z" />
<glyph unicode="k" horiz-adv-x="825" d="M94 0v1366h232v-834l227 457h252l-236 -438l246 -551h-254l-145 395l-90 -164v-231h-232z" />
<glyph unicode="l" horiz-adv-x="417" d="M94 0v1366h232v-1366h-232z" />
<glyph unicode="m" horiz-adv-x="1302" d="M94 0v989h232v-129q28 59 95.5 106.5t135.5 47.5q82 0 136.5 -41t66.5 -123q29 64 98.5 114t140.5 50q97 0 153 -55t56 -171v-788h-231v705q0 104 -76 104q-44 0 -80 -39.5t-53 -89.5v-680h-233v705q0 104 -76 104q-42 0 -79 -39.5t-54 -89.5v-680h-232z" />
<glyph unicode="n" d="M94 0v989h232v-129q30 62 97.5 108t133.5 46q211 0 211 -226v-788h-233v705q0 104 -76 104q-41 0 -77.5 -38.5t-55.5 -90.5v-680h-232z" />
<glyph unicode="o" horiz-adv-x="854" d="M55 496q0 105 22 196.5t66 164.5t116.5 115t166.5 42q76 0 138.5 -27.5t105.5 -75.5t72.5 -114t43 -141.5t13.5 -159.5q0 -106 -22.5 -197.5t-66 -165t-117 -116t-167.5 -42.5t-166.5 42.5t-116.5 116t-66 165t-22 197.5zM295 496q0 -316 131 -316q133 0 133 316 q0 313 -133 313q-131 0 -131 -313z" />
<glyph unicode="p" horiz-adv-x="866" d="M94 -377v1366h232v-123q31 71 84 109.5t108 38.5q143 0 218 -137.5t75 -380.5q0 -240 -75 -380.5t-218 -140.5q-57 0 -110 38t-82 110v-500h-232zM326 299q15 -51 47.5 -85t68.5 -34q131 0 131 316q0 313 -131 313q-36 0 -68.5 -33t-47.5 -84v-393z" />
<glyph unicode="q" horiz-adv-x="866" d="M55 496q0 243 75 380.5t218 137.5q55 0 108.5 -38.5t84.5 -109.5v123h231v-1366h-231v500q-29 -72 -82.5 -110t-110.5 -38q-143 0 -218 140.5t-75 380.5zM293 496q0 -316 131 -316q36 0 69 34t48 85v393q-15 51 -47.5 84t-69.5 33q-131 0 -131 -313z" />
<glyph unicode="r" horiz-adv-x="573" d="M94 0v989h232v-137q29 68 93 115t128 47v-228q-25 7 -45 7q-50 0 -98 -35.5t-78 -91.5v-666h-232z" />
<glyph unicode="s" horiz-adv-x="708" d="M25 104l96 160q95 -106 205 -106q56 0 90.5 28.5t34.5 77.5q0 32 -21.5 58.5t-56 46t-76.5 39.5t-84 47.5t-76.5 62t-56 90t-21.5 125.5q0 119 84.5 200t231.5 81q171 0 291 -117l-95 -156q-32 38 -82.5 64t-107.5 26q-47 0 -77 -26.5t-30 -65.5q0 -30 22 -54.5t57 -44 t77 -40t84 -48.5t77 -63.5t57 -92t22 -126.5q0 -130 -91 -212.5t-233 -82.5q-212 0 -321 129z" />
<glyph unicode="t" horiz-adv-x="528" d="M33 788v201h92v271h231v-271h125v-201h-125v-516q0 -47 13 -69.5t43 -22.5q35 0 55 27l47 -180q-59 -52 -162 -52q-120 0 -173.5 61.5t-53.5 190.5v561h-92z" />
<glyph unicode="u" d="M94 199v790h232v-708q0 -101 75 -101q42 0 78.5 37t55.5 88v684h233v-989h-233v125q-30 -62 -96 -106t-136 -44q-209 0 -209 224z" />
<glyph unicode="v" horiz-adv-x="778" d="M4 989h246l139 -700l143 700h244l-262 -989h-250z" />
<glyph unicode="w" horiz-adv-x="1245" d="M10 989h240l125 -676l129 676h223l139 -676l127 676h242l-229 -989h-242l-141 674l-142 -674h-243z" />
<glyph unicode="x" horiz-adv-x="761" d="M6 0l232 498l-222 491h246l119 -319l119 319h243l-219 -491l230 -498h-246l-127 328l-129 -328h-246z" />
<glyph unicode="y" horiz-adv-x="778" d="M4 989h246l139 -696l143 696h244l-311 -1163q-35 -130 -97.5 -178.5t-174.5 -48.5q-71 0 -111 14l33 201q26 -11 47 -11q62 0 82 70l28 102z" />
<glyph unicode="z" horiz-adv-x="686" d="M55 0v174l291 614h-291v201h568v-168l-293 -618h301v-203h-576z" />
<glyph unicode="{" horiz-adv-x="450" d="M8 432v135q52 0 79.5 39t27.5 99v440q0 104 72 174t169 70h60v-156h-60q-30 0 -51.5 -25t-21.5 -63v-463q0 -142 -93 -182q93 -40 93 -183v-464q0 -36 21.5 -61t51.5 -25h60v-156h-60q-97 0 -169 69t-72 173v442q0 60 -27.5 98.5t-79.5 38.5z" />
<glyph unicode="|" horiz-adv-x="370" d="M106 -41v1448h156v-1448h-156z" />
<glyph unicode="}" horiz-adv-x="450" d="M35 -233h57q31 0 52.5 24.5t21.5 61.5v464q0 144 92 183q-92 39 -92 182v463q0 38 -21.5 63t-52.5 25h-57v156h57q97 0 169.5 -70t72.5 -174v-440q0 -60 27 -99t79 -39v-135q-52 0 -79 -38.5t-27 -98.5v-442q0 -104 -72.5 -173t-169.5 -69h-57v156z" />
<glyph unicode="~" horiz-adv-x="851" d="M53 862q3 51 6 91.5t11 95t19 96t30 84.5t43.5 71t60.5 46t80 18q60 0 99 -38t56 -93t28 -109.5t26 -92.5t39 -38q40 0 57 78t31 295l160 -14q-3 -52 -6 -92t-10.5 -95t-18.5 -95.5t-30 -84.5t-43.5 -71.5t-60 -45.5t-79.5 -18q-60 0 -99 38t-56 92t-28 108.5t-26 92.5 t-39 38q-41 0 -57.5 -76.5t-30.5 -294.5z" />
<glyph unicode="&#xa2;" horiz-adv-x="704" d="M55 496q0 199 76.5 336t214.5 172v153h170v-151q96 -20 156 -80l-74 -181q-61 64 -125 64q-87 0 -133.5 -88.5t-46.5 -224.5q0 -137 46.5 -226.5t133.5 -89.5q64 0 125 64l74 -181q-58 -62 -156 -79v-189h-170v191q-138 35 -214.5 172t-76.5 338z" />
<glyph unicode="&#xa3;" horiz-adv-x="868" d="M61 565v150h97q-64 132 -64 264q0 171 115.5 289t271.5 118q130 0 221 -69t115 -199l-205 -88q-17 73 -43 109.5t-75 36.5q-50 0 -85.5 -54t-35.5 -147q0 -25 1.5 -47.5t6.5 -45t7.5 -36.5t11 -36.5t11.5 -30.5t14 -33.5t13 -30.5h148v-150h-107q4 -40 4 -63 q0 -67 -32.5 -143.5t-81.5 -118.5q37 18 73 18q46 0 104 -26.5t95 -26.5q90 0 137 61l70 -205q-29 -35 -94.5 -60.5t-135.5 -25.5q-62 0 -111 21t-88.5 42t-78.5 21q-76 0 -174 -73l-76 176q73 48 117.5 122t44.5 150q0 58 -25 131h-166z" />
<glyph unicode="&#xa5;" horiz-adv-x="880" d="M-8 1366h274l174 -551l178 551h271l-262 -655h198v-146h-256v-178h256v-147h-256v-240h-256v240h-264v147h264v178h-264v146h205z" />
<glyph unicode="&#xa8;" horiz-adv-x="569" d="M-10 1247q0 52 38 89.5t89 37.5q54 0 90.5 -37t36.5 -90t-36.5 -89t-90.5 -36q-52 0 -89.5 36.5t-37.5 88.5zM326 1247q0 53 36.5 90t88.5 37q53 0 91 -37.5t38 -89.5t-38 -88.5t-91 -36.5t-89 36t-36 89z" />
<glyph unicode="&#xa9;" horiz-adv-x="1593" d="M90 684q0 191 95 354t258 258t354 95q143 0 274 -56t225.5 -151t150.5 -226t56 -274t-56 -274t-150.5 -226t-225.5 -151t-274 -56q-191 0 -354 95t-258 258t-95 354zM162 684q0 -128 50.5 -245.5t136 -203t203 -136t245.5 -50.5t245.5 50.5t203 136t136 203t50.5 245.5 t-50.5 245.5t-136 203t-203 136t-245.5 50.5t-245.5 -50.5t-203 -136t-136 -203t-50.5 -245.5zM379 684q0 188 123.5 311t304.5 123q185 0 301 -135l-61 -61q-40 54 -104 86t-136 32q-140 0 -239 -100t-99 -256q0 -151 99.5 -253.5t238.5 -102.5q72 0 137 33t105 88l61 -60 q-118 -137 -303 -137q-179 0 -303.5 124t-124.5 308z" />
<glyph unicode="&#xab;" horiz-adv-x="788" d="M61 498l185 362h180l-184 -362l184 -369h-180zM362 498l185 362h180l-184 -362l184 -369h-180z" />
<glyph unicode="&#xad;" horiz-adv-x="493" d="M61 397v197h371v-197h-371z" />
<glyph unicode="&#xae;" horiz-adv-x="1011" d="M72 952q0 181 127 307.5t307 126.5q119 0 219 -57.5t157.5 -157.5t57.5 -219q0 -180 -126.5 -307t-307.5 -127q-180 0 -307 127t-127 307zM135 952q0 -152 108.5 -261t262.5 -109t262.5 109t108.5 261q0 155 -108.5 263t-262.5 108t-262.5 -108t-108.5 -263zM340 702v498 h203q66 0 114 -42t48 -109q0 -72 -46 -110t-81 -38l133 -199h-86l-129 197h-86v-197h-70zM410 961h133q34 0 62 25.5t28 62.5q0 39 -28 65.5t-62 26.5h-133v-180z" />
<glyph unicode="&#xb4;" horiz-adv-x="364" d="M0 1139l162 295h203l-218 -295h-147z" />
<glyph unicode="&#xb8;" horiz-adv-x="372" d="M0 -334l45 94q64 -55 125 -55q36 0 60 19.5t24 52.5q0 24 -13 39.5t-34 15.5q-29 0 -53 -27l-86 50l63 168h117l-53 -132q30 21 59 21q52 0 85.5 -38.5t33.5 -100.5q0 -77 -55.5 -124.5t-141.5 -47.5q-96 0 -176 65z" />
<glyph unicode="&#xbb;" horiz-adv-x="788" d="M61 129l185 369l-185 362h181l184 -362l-184 -369h-181zM362 129l185 369l-185 362h181l184 -362l-184 -369h-181z" />
<glyph unicode="&#x2c6;" horiz-adv-x="471" d="M0 1139l129 295h209l133 -295h-127l-113 188l-102 -188h-129z" />
<glyph unicode="&#x2da;" horiz-adv-x="362" d="M0 1282q0 74 53.5 127t128.5 53t127.5 -53t52.5 -127q0 -77 -52.5 -130.5t-127.5 -53.5t-128.5 54t-53.5 130zM102 1282q0 -34 24 -58t56 -24q34 0 57 24t23 58q0 33 -23.5 56.5t-56.5 23.5q-32 0 -56 -24t-24 -56z" />
<glyph unicode="&#x2dc;" horiz-adv-x="524" d="M0 1147q0 122 45.5 198t128.5 76q37 0 66.5 -23.5t44.5 -52t33.5 -52t35.5 -23.5q24 0 39 34.5t15 104.5h116q0 -123 -45 -198.5t-129 -75.5q-29 0 -53.5 15.5t-40.5 37.5t-29.5 44.5t-28 38t-28.5 15.5q-23 0 -38 -35t-15 -104h-117z" />
<glyph unicode="&#x401;" horiz-adv-x="774" d="M106 0v1366h599v-227h-340v-330h325v-227h-325v-355h340v-227h-599zM111 1589q0 52 38 89.5t89 37.5q54 0 90.5 -37t36.5 -90t-36.5 -89t-90.5 -36q-52 0 -89.5 36.5t-37.5 88.5zM446 1589q0 53 36.5 90t88.5 37q53 0 91 -37.5t38 -89.5t-38 -88.5t-91 -36.5t-89 36 t-36 89z" />
<glyph unicode="&#x402;" horiz-adv-x="1058" d="M-8 1139v227h672v-227h-207v-289q75 14 143 14q124 0 215 -61t134.5 -157.5t43.5 -213.5v-39q0 -111 -32.5 -194t-90 -130.5t-129 -70.5t-157.5 -23v230q151 0 151 188v39q0 93 -48.5 149t-129.5 56q-61 0 -100 -10l2 -627h-260v1139h-207z" />
<glyph unicode="&#x403;" horiz-adv-x="770" d="M106 0v1366h599v-227h-340v-1139h-259zM315 1481l162 295h203l-217 -295h-148z" />
<glyph unicode="&#x404;" horiz-adv-x="878" d="M63 682q0 156 25.5 283t76.5 223t134.5 148.5t192.5 52.5q64 0 116.5 -20.5t87 -50.5t63 -75.5t44.5 -85.5t31 -90l-205 -76q-24 86 -54 127t-83 41q-142 0 -162 -350h360v-227h-360q13 -377 162 -377q107 0 139 198l207 -75q-13 -53 -29 -97t-44.5 -94t-64 -83.5 t-89.5 -56t-119 -22.5q-109 0 -192.5 53t-134.5 149t-76.5 223t-25.5 282z" />
<glyph unicode="&#x405;" horiz-adv-x="811" d="M25 111l112 202q40 -52 100 -80t123 -28q61 0 99.5 41.5t38.5 107.5q0 49 -24 90.5t-62.5 73.5t-85 64.5t-92.5 72t-84.5 85.5t-62.5 115t-24 153q0 161 103 271t278 110q180 0 297 -111l-100 -199q-77 80 -188 80q-56 0 -91.5 -38t-35.5 -99q0 -43 24 -81t62 -70 t84.5 -65t93 -74t84.5 -89t62 -118.5t24 -153.5q0 -174 -105 -285t-278 -111q-216 0 -352 136z" />
<glyph unicode="&#x406;" horiz-adv-x="471" d="M106 0v1366h259v-1366h-259z" />
<glyph unicode="&#x407;" horiz-adv-x="471" d="M-59 1589q0 52 38 89.5t89 37.5q54 0 90.5 -37t36.5 -90t-36.5 -89t-90.5 -36q-52 0 -89.5 36.5t-37.5 88.5zM106 0v1366h259v-1366h-259zM276 1589q0 53 36.5 90t88.5 37q53 0 91 -37.5t38 -89.5t-38 -88.5t-91 -36.5t-89 36t-36 89z" />
<glyph unicode="&#x408;" horiz-adv-x="712" d="M16 49l70 211q49 -55 125 -55q66 0 103.5 37t37.5 112v1012h258v-1024q0 -185 -99 -276t-271 -91q-135 0 -224 74z" />
<glyph unicode="&#x409;" horiz-adv-x="1423" d="M35 -25v230q37 0 59 12.5t43.5 54t35.5 128.5t24 229l49 737h639v-502h110q97 0 172 -35t120.5 -95.5t69 -137t23.5 -164.5t-23.5 -164.5t-69 -137t-120.5 -95.5t-172 -35h-368v1139h-144l-32 -521q-7 -117 -22 -210.5t-36 -160.5t-50.5 -116t-61 -78.5t-73.5 -47 t-82 -24t-91 -6.5zM885 227h84q71 0 109 55t38 150q0 94 -38 149.5t-109 55.5h-84v-410z" />
<glyph unicode="&#x40a;" horiz-adv-x="1423" d="M106 0v1366h259v-551h262v551h258v-551h110q97 0 172 -33t120.5 -89.5t69 -129t23.5 -155.5t-23.5 -155t-69 -129.5t-120.5 -90.5t-172 -33h-368v590h-262v-590h-259zM885 227h84q71 0 109 48.5t38 134.5q0 82 -38.5 131t-108.5 49h-84v-363z" />
<glyph unicode="&#x40b;" horiz-adv-x="1058" d="M-8 1139v227h672v-227h-207v-289q75 14 143 14q94 0 167.5 -35t118.5 -95.5t68 -137t23 -164.5v-432h-258v432q0 95 -41 150t-121 55q-61 0 -100 -10l2 -627h-260v1139h-207z" />
<glyph unicode="&#x40c;" horiz-adv-x="964" d="M106 0v1366h259v-631l286 631h283l-334 -643l358 -723h-292l-215 520l-86 -172v-348h-259zM395 1481l162 295h203l-217 -295h-148z" />
<glyph unicode="&#x40e;" horiz-adv-x="880" d="M-12 33l59 213q45 -39 111 -39q37 0 64 26t40 66l43 127l-313 940h274l176 -590l174 590h273l-373 -1118q-53 -149 -126 -211t-197 -62q-114 0 -205 58zM186 1587l109 82q23 -35 63 -55.5t82 -20.5q43 0 83 20.5t63 55.5l108 -82q-43 -61 -110 -95t-144 -34 q-76 0 -142.5 34t-111.5 95z" />
<glyph unicode="&#x40f;" horiz-adv-x="991" d="M106 0v1366h259v-1139h262v1139h258v-1366h-260v-262h-258v262h-261z" />
<glyph unicode="&#x410;" horiz-adv-x="868" d="M0 0l285 1366h297l286 -1366h-266l-41 252h-254l-41 -252h-266zM336 479h196l-98 598z" />
<glyph unicode="&#x411;" horiz-adv-x="903" d="M106 0v1366h682v-227h-423v-275h110q97 0 172 -35t120.5 -95.5t69 -137t23.5 -164.5t-23.5 -164.5t-69 -137t-120.5 -95.5t-172 -35h-369zM365 227h84q71 0 110 55t39 150q0 94 -39 149.5t-110 55.5h-84v-410z" />
<glyph unicode="&#x412;" horiz-adv-x="925" d="M106 0v1366h412q109 0 185 -48.5t109.5 -125.5t33.5 -174q0 -125 -54.5 -205.5t-146.5 -107.5q96 -15 157.5 -111.5t61.5 -224.5q0 -108 -33 -189t-109 -130.5t-190 -49.5h-426zM365 227h94q141 0 141 179q0 79 -36 127.5t-105 48.5h-94v-355zM365 809h86q131 0 131 164 q0 166 -131 166h-86v-330z" />
<glyph unicode="&#x413;" horiz-adv-x="770" d="M106 0v1366h599v-227h-340v-1139h-259z" />
<glyph unicode="&#x414;" horiz-adv-x="1015" d="M31 205q26 5 40.5 10.5t34 21t31 44.5t24 77t21 122.5t15.5 176.5l49 709h639v-1139h106v-479h-258v252h-444v-252h-258v457zM334 227h293v912h-144l-28 -467q-20 -304 -121 -445z" />
<glyph unicode="&#x415;" horiz-adv-x="774" d="M106 0v1366h599v-227h-340v-330h325v-227h-325v-355h340v-227h-599z" />
<glyph unicode="&#x416;" horiz-adv-x="1337" d="M6 0l356 723l-331 643h282l228 -500v500h258v-496l225 496h283l-332 -643l356 -723h-291l-217 520l-24 -49v-471h-258v467l-27 53l-217 -520h-291z" />
<glyph unicode="&#x417;" horiz-adv-x="901" d="M41 199l176 151q81 -145 207 -145q154 0 154 190q0 91 -49 139t-121 48h-156v225h137q80 0 125 44.5t45 129.5q0 176 -147 176q-54 0 -104.5 -35t-82.5 -96l-168 137q63 110 162.5 166.5t218.5 56.5q174 0 279.5 -92.5t105.5 -275.5q0 -111 -64 -200t-175 -113 q121 -20 189.5 -111t68.5 -219q0 -180 -109.5 -290t-294.5 -110q-131 0 -234.5 62.5t-162.5 161.5z" />
<glyph unicode="&#x418;" horiz-adv-x="991" d="M106 0v1366h261v-739l260 739h258v-1366h-258v766l-277 -766h-244z" />
<glyph unicode="&#x419;" horiz-adv-x="991" d="M106 0v1366h261v-739l260 739h258v-1366h-258v766l-277 -766h-244zM240 1587l108 82q23 -35 63.5 -55.5t82.5 -20.5q43 0 82.5 20.5t62.5 55.5l109 -82q-43 -61 -110 -95t-144 -34q-76 0 -142.5 34t-111.5 95z" />
<glyph unicode="&#x41a;" horiz-adv-x="964" d="M106 0v1366h259v-631l286 631h283l-334 -643l358 -723h-292l-215 520l-86 -172v-348h-259z" />
<glyph unicode="&#x41b;" horiz-adv-x="991" d="M35 -25v230q37 0 59 12.5t43.5 54t35.5 128.5t24 229l49 737h639v-1366h-260v1139h-142l-32 -521q-7 -117 -22 -210.5t-36 -160.5t-50.5 -116t-61 -78.5t-73.5 -47t-82 -24t-91 -6.5z" />
<glyph unicode="&#x41c;" horiz-adv-x="1261" d="M106 0v1366h328l197 -698l203 698h321v-1366h-254v807l-227 -807h-86l-223 807v-807h-259z" />
<glyph unicode="&#x41d;" horiz-adv-x="991" d="M106 0v1366h259v-551h262v551h258v-1366h-258v590h-262v-590h-259z" />
<glyph unicode="&#x41e;" horiz-adv-x="978" d="M63 682q0 154 24.5 280t75 223t133.5 150.5t193 53.5q109 0 192 -53.5t133.5 -150t75.5 -223t25 -280.5t-25 -280.5t-75.5 -223t-133.5 -150t-192 -53.5q-110 0 -193 53.5t-133.5 150.5t-75 223t-24.5 280zM328 682q0 -477 161 -477q162 0 162 477t-162 477 q-161 0 -161 -477z" />
<glyph unicode="&#x41f;" horiz-adv-x="991" d="M106 0v1366h779v-1366h-258v1139h-262v-1139h-259z" />
<glyph unicode="&#x420;" horiz-adv-x="903" d="M106 0v1366h369q97 0 172 -35t120.5 -95.5t69 -137t23.5 -164.5t-23.5 -164.5t-69 -137t-120.5 -95.5t-172 -35h-110v-502h-259zM365 729h84q71 0 110 55.5t39 149.5q0 95 -39 150t-110 55h-84v-410z" />
<glyph unicode="&#x421;" horiz-adv-x="878" d="M63 682q0 156 25.5 283t76.5 223t134.5 148.5t192.5 52.5q64 0 116.5 -20.5t87 -50.5t63 -75.5t44.5 -85.5t31 -90l-205 -76q-24 86 -54 127t-83 41q-164 0 -164 -477t164 -477q107 0 139 198l207 -75q-13 -53 -29 -97t-44.5 -94t-64 -83.5t-89.5 -56t-119 -22.5 q-109 0 -192.5 53t-134.5 149t-76.5 223t-25.5 282z" />
<glyph unicode="&#x422;" horiz-adv-x="745" d="M37 1139v227h672v-227h-207v-1139h-258v1139h-207z" />
<glyph unicode="&#x423;" horiz-adv-x="880" d="M-12 33l59 213q45 -39 111 -39q37 0 64 26t40 66l43 127l-313 940h274l176 -590l174 590h273l-373 -1118q-53 -149 -126 -211t-197 -62q-114 0 -205 58z" />
<glyph unicode="&#x424;" horiz-adv-x="1341" d="M63 682q0 105 28.5 194.5t85 162.5t150 121.5t216.5 64.5v141h258v-141q123 -16 216 -64.5t150 -121.5t85 -162.5t28 -194.5t-28 -194.5t-85 -162.5t-150 -121.5t-216 -64.5v-139h-258v139q-123 16 -216.5 64.5t-150 121.5t-85 162.5t-28.5 194.5zM328 682 q0 -252 215 -307v614q-215 -55 -215 -307zM801 375q215 56 215 307q0 249 -215 305v-612z" />
<glyph unicode="&#x425;" horiz-adv-x="897" d="M-2 0l301 696l-285 670h285l150 -446l149 446h287l-287 -668l303 -698h-285l-167 471l-166 -471h-285z" />
<glyph unicode="&#x426;" horiz-adv-x="1015" d="M106 0v1366h259v-1139h262v1139h258v-1139h106v-479h-258v252h-627z" />
<glyph unicode="&#x427;" horiz-adv-x="964" d="M82 934v432h258v-432q0 -95 41 -150t121 -55q59 0 98 10v627h260v-1366h-260v516q-79 -14 -143 -14q-93 0 -166 35t-118 95.5t-68 137t-23 164.5z" />
<glyph unicode="&#x428;" horiz-adv-x="1419" d="M106 0v1366h259v-1139h217v1139h258v-1139h215v1139h258v-1366h-1207z" />
<glyph unicode="&#x429;" horiz-adv-x="1443" d="M106 0v1366h259v-1139h217v1139h258v-1139h215v1139h258v-1139h106v-479h-258v252h-1055z" />
<glyph unicode="&#x42a;" horiz-adv-x="1040" d="M37 1139v227h465v-502h110q97 0 172 -35t120.5 -95.5t69 -137t23.5 -164.5t-23.5 -164.5t-69 -137t-120.5 -95.5t-172 -35h-368v1139h-207zM502 227h84q71 0 110 55t39 150q0 94 -39 149.5t-110 55.5h-84v-410z" />
<glyph unicode="&#x42b;" horiz-adv-x="1325" d="M106 0v1366h259v-502h110q97 0 172 -35t120.5 -95.5t69 -137t23.5 -164.5t-23.5 -164.5t-69 -137t-120.5 -95.5t-172 -35h-369zM365 227h84q71 0 110 55t39 150q0 94 -39 149.5t-110 55.5h-84v-410zM961 0v1366h258v-1366h-258z" />
<glyph unicode="&#x42c;" horiz-adv-x="903" d="M106 0v1366h259v-502h110q97 0 172 -35t120.5 -95.5t69 -137t23.5 -164.5t-23.5 -164.5t-69 -137t-120.5 -95.5t-172 -35h-369zM365 227h84q71 0 110 55t39 150q0 94 -39 149.5t-110 55.5h-84v-410z" />
<glyph unicode="&#x42d;" horiz-adv-x="878" d="M41 328l207 75q15 -94 47 -146t92 -52q145 0 162 377h-363v227h361q-20 350 -160 350q-55 0 -85 -41t-52 -127l-207 76q16 51 32 90t45 85t63.5 76t87 50.5t116.5 20.5q109 0 192.5 -52.5t134 -148.5t76 -223t25.5 -283q0 -209 -43.5 -364.5t-141.5 -249t-243 -93.5 q-66 0 -120.5 22.5t-90 56.5t-63.5 83.5t-43.5 93.5t-28.5 97z" />
<glyph unicode="&#x42e;" horiz-adv-x="1427" d="M106 0v1366h259v-551h151q10 128 40 231t80.5 181t127 120t174.5 42q109 0 192.5 -53.5t134 -150t76 -223t25.5 -280.5t-25.5 -280.5t-76 -223t-134 -150t-192.5 -53.5q-102 0 -181 45.5t-129.5 129t-78.5 193.5t-35 247h-149v-590h-259zM776 682q0 -477 162 -477 q58 0 96 65t53 168t15 244q0 477 -164 477q-162 0 -162 -477z" />
<glyph unicode="&#x42f;" horiz-adv-x="942" d="M70 0l188 565q-72 38 -124 129.5t-52 247.5q0 187 105 305.5t268 118.5h379v-1366h-256v502h-84l-148 -502h-276zM344 934q0 -94 39.5 -149.5t110.5 -55.5h84v410h-84q-71 0 -110.5 -55t-39.5 -150z" />
<glyph unicode="&#x430;" horiz-adv-x="849" d="M49 305q0 148 74.5 235t193.5 87q59 0 118.5 -29.5t88.5 -81.5v121q0 180 -149 180q-106 0 -201 -98l-86 164q62 67 154.5 99t179.5 32q157 0 245.5 -81.5t88.5 -242.5v-690h-232v94q-31 -56 -90 -87.5t-117 -31.5q-119 0 -193.5 90t-74.5 240zM281 301 q0 -75 30.5 -122.5t87.5 -47.5q38 0 72 27.5t53 74.5v134q-19 46 -53 74t-72 28q-58 0 -88 -47t-30 -121z" />
<glyph unicode="&#x431;" horiz-adv-x="851" d="M53 541q0 137 6 232.5t23 176t43 131.5t70 91.5t100 64t137 41.5q55 13 81 33t26 55h229q0 -55 -19 -99.5t-45.5 -71t-67.5 -47.5t-72 -31t-72 -19q-126 -29 -183 -74.5t-69 -136.5q72 127 227 127q84 0 149.5 -42t104.5 -114.5t58.5 -163.5t19.5 -196t-22 -197 t-65.5 -166t-117 -117t-168.5 -43q-128 0 -213.5 74.5t-122.5 198.5t-37 293zM293 498q0 -318 131 -318q133 0 133 318q0 311 -133 311q-131 0 -131 -311z" />
<glyph unicode="&#x432;" horiz-adv-x="856" d="M94 0v989h373q155 0 231 -70.5t76 -181.5q0 -87 -46.5 -145t-127.5 -80q87 -19 140 -86.5t53 -157.5q0 -121 -76.5 -194.5t-235.5 -73.5h-387zM326 184h102q127 0 127 113q0 51 -32 84t-95 33h-102v-230zM326 598h92q119 0 119 104q0 46 -28 74.5t-91 28.5h-92v-207z" />
<glyph unicode="&#x433;" horiz-adv-x="638" d="M94 0v989h512v-201h-280v-788h-232z" />
<glyph unicode="&#x434;" horiz-adv-x="888" d="M33 176q24 3 39 9t32 23t27.5 46t19.5 79.5t13 121.5l33 534h571v-786h96v-455h-231v252h-369v-252h-231v428zM313 203h222v585h-119l-19 -333q-11 -173 -84 -252z" />
<glyph unicode="&#x435;" horiz-adv-x="827" d="M55 496q0 147 40 262t125.5 185.5t205.5 70.5q121 0 202 -69t116.5 -181.5t35.5 -263.5v-80h-501q2 -115 51 -185.5t143 -70.5q42 0 86.5 26.5t77.5 71.5l113 -129q-59 -75 -137.5 -116.5t-163.5 -41.5q-188 0 -291 143.5t-103 377.5zM279 582h278q0 243 -137 243 q-40 0 -69 -22.5t-44 -60.5t-21.5 -77.5t-6.5 -82.5z" />
<glyph unicode="&#x436;" horiz-adv-x="1103" d="M12 0l244 551l-236 438h252l164 -330v330h232v-330l163 330h254l-235 -438l244 -551h-254l-146 395l-26 -49v-346h-232v346l-26 49l-146 -395h-252z" />
<glyph unicode="&#x437;" horiz-adv-x="774" d="M25 133l112 135q76 -106 223 -106q64 0 101 35t37 94q0 30 -9 52t-22 34t-33 19.5t-38.5 9.5t-41.5 2h-166v184h158q66 0 102.5 31t36.5 88t-38.5 86.5t-104.5 29.5q-121 0 -195 -100l-112 137q119 150 307 150q167 0 266 -72t99 -199q0 -81 -54.5 -150.5t-138.5 -84.5 q91 -15 149 -81.5t58 -158.5q0 -128 -96 -210.5t-254 -82.5q-227 0 -346 158z" />
<glyph unicode="&#x438;" d="M94 0v989h232v-516l200 516h240v-989h-231v541l-216 -541h-225z" />
<glyph unicode="&#x439;" d="M94 0v989h232v-516l200 516h240v-989h-231v541l-216 -541h-225zM176 1245l109 82q23 -35 63 -55.5t82 -20.5q43 0 82.5 20.5t62.5 55.5l109 -82q-43 -61 -110 -95t-144 -34q-76 0 -142.5 34t-111.5 95z" />
<glyph unicode="&#x43a;" horiz-adv-x="825" d="M94 0v989h232v-457l227 457h252l-236 -438l246 -551h-254l-145 395l-90 -164v-231h-232z" />
<glyph unicode="&#x43b;" d="M33 -25v201q23 0 38.5 4.5t32 20.5t27.5 46t19.5 82t13.5 126l33 534h571v-989h-233v788h-119l-21 -352q-7 -112 -26 -192.5t-48.5 -132.5t-73.5 -82.5t-94.5 -42t-119.5 -11.5z" />
<glyph unicode="&#x43c;" horiz-adv-x="1087" d="M94 0v989h285l166 -514l168 514h280v-989h-227v557l-176 -557h-92l-172 557v-557h-232z" />
<glyph unicode="&#x43d;" d="M94 0v989h232v-373h209v373h233v-989h-233v416h-209v-416h-232z" />
<glyph unicode="&#x43e;" horiz-adv-x="854" d="M55 496q0 105 22 196.5t66 164.5t116.5 115t166.5 42q76 0 138.5 -27.5t105.5 -75.5t72.5 -114t43 -141.5t13.5 -159.5q0 -106 -22.5 -197.5t-66 -165t-117 -116t-167.5 -42.5t-166.5 42.5t-116.5 116t-66 165t-22 197.5zM295 496q0 -316 131 -316q133 0 133 316 q0 313 -133 313q-131 0 -131 -313z" />
<glyph unicode="&#x43f;" d="M94 0v989h674v-989h-233v788h-209v-788h-232z" />
<glyph unicode="&#x440;" horiz-adv-x="866" d="M94 -377v1366h232v-123q31 71 84 109.5t108 38.5q143 0 218 -137.5t75 -380.5q0 -240 -75 -380.5t-218 -140.5q-57 0 -110 38t-82 110v-500h-232zM326 299q15 -51 47.5 -85t68.5 -34q131 0 131 316q0 313 -131 313q-36 0 -68.5 -33t-47.5 -84v-393z" />
<glyph unicode="&#x441;" horiz-adv-x="704" d="M55 496q0 231 101 374.5t276 143.5q152 0 240 -88l-74 -181q-61 64 -125 64q-87 0 -133.5 -88.5t-46.5 -224.5q0 -137 46.5 -226.5t133.5 -89.5q64 0 125 64l74 -181q-81 -88 -240 -88q-175 0 -276 145t-101 376z" />
<glyph unicode="&#x442;" horiz-adv-x="618" d="M33 788v201h553v-201h-160v-788h-233v788h-160z" />
<glyph unicode="&#x443;" horiz-adv-x="778" d="M4 989h246l139 -696l143 696h244l-311 -1163q-35 -130 -97.5 -178.5t-174.5 -48.5q-71 0 -111 14l33 201q26 -11 47 -11q62 0 82 70l28 102z" />
<glyph unicode="&#x444;" horiz-adv-x="1288" d="M68 496q0 242 70.5 380t205.5 138q53 0 103.5 -38.5t80.5 -109.5v500h232v-500q30 71 80.5 109.5t103.5 38.5q134 0 205.5 -138t71.5 -380q0 -239 -71.5 -380t-205.5 -141q-55 0 -105.5 37.5t-78.5 110.5v-500h-232v500q-29 -73 -79.5 -110.5t-104.5 -37.5 q-135 0 -205.5 139.5t-70.5 381.5zM305 496q0 -92 11.5 -160.5t40 -112t71.5 -43.5q30 0 57 33.5t43 83.5v395q-15 52 -43.5 84.5t-60.5 32.5q-119 0 -119 -313zM760 299q14 -51 41.5 -85t58.5 -34q43 0 71.5 43.5t40 112t11.5 160.5q0 313 -119 313q-32 0 -61 -33t-43 -84 v-393z" />
<glyph unicode="&#x445;" horiz-adv-x="761" d="M6 0l232 498l-222 491h246l119 -319l119 319h243l-219 -491l230 -498h-246l-127 328l-129 -328h-246z" />
<glyph unicode="&#x446;" horiz-adv-x="888" d="M94 0v989h232v-786h209v786h233v-786h96v-455h-231v252h-539z" />
<glyph unicode="&#x447;" horiz-adv-x="843" d="M76 578v411h231v-332q0 -51 23.5 -75.5t77.5 -24.5q58 0 110 29v403h232v-989h-232v410q-30 -24 -84 -41t-106 -17q-138 0 -195 57t-57 169z" />
<glyph unicode="&#x448;" horiz-adv-x="1253" d="M94 0v989h232v-786h184v786h231v-786h187v786h231v-989h-1065z" />
<glyph unicode="&#x449;" horiz-adv-x="1282" d="M94 0v989h232v-786h184v786h231v-786h187v786h231v-786h98v-455h-231v252h-932z" />
<glyph unicode="&#x44a;" horiz-adv-x="919" d="M33 788v201h393v-352h94q174 0 264 -90.5t90 -229.5q0 -65 -21.5 -121.5t-63.5 -100.5t-111 -69.5t-158 -25.5h-327v788h-160zM426 184h70q68 0 104.5 37t36.5 96q0 60 -36.5 98t-104.5 38h-70v-269z" />
<glyph unicode="&#x44b;" horiz-adv-x="1196" d="M94 0v989h232v-352h94q174 0 264 -90.5t90 -229.5q0 -65 -21.5 -121.5t-63.5 -100.5t-111 -69.5t-158 -25.5h-326zM326 184h69q68 0 105 37t37 96q0 60 -37 98t-105 38h-69v-269zM872 0v989h232v-989h-232z" />
<glyph unicode="&#x44c;" horiz-adv-x="819" d="M94 0v989h232v-352h94q174 0 264 -90.5t90 -229.5q0 -65 -21.5 -121.5t-63.5 -100.5t-111 -69.5t-158 -25.5h-326zM326 184h69q68 0 105 37t37 96q0 60 -37 98t-105 38h-69v-269z" />
<glyph unicode="&#x44d;" horiz-adv-x="704" d="M33 63l76 162q58 -61 124 -61q75 0 121.5 67t59.5 177h-281v184h281q-14 107 -60.5 170t-120.5 63q-67 0 -124 -63l-76 164q38 38 100 63t139 25q175 0 277 -144t102 -374q0 -231 -102 -376t-277 -145q-158 0 -239 88z" />
<glyph unicode="&#x44e;" horiz-adv-x="1249" d="M94 0v989h232v-373h131q25 178 117 288t249 110q76 0 138.5 -27.5t105.5 -75.5t72.5 -114t43 -141.5t13.5 -159.5q0 -106 -22.5 -197.5t-66 -165t-117 -116t-167.5 -42.5q-86 0 -154 34.5t-112.5 95.5t-70 139.5t-33.5 171.5h-127v-416h-232zM690 496q0 -316 133 -316 t133 316q0 313 -133 313t-133 -313z" />
<glyph unicode="&#x44f;" d="M55 0l168 399q-63 29 -108 98.5t-45 176.5q0 138 92.5 226.5t259.5 88.5h346v-989h-233v352h-97l-127 -352h-256zM305 674q0 -62 36.5 -99.5t104.5 -37.5h89v268h-89q-68 0 -104.5 -36t-36.5 -95z" />
<glyph unicode="&#x451;" horiz-adv-x="827" d="M55 496q0 147 40 262t125.5 185.5t205.5 70.5q121 0 202 -69t116.5 -181.5t35.5 -263.5v-80h-501q2 -115 51 -185.5t143 -70.5q42 0 86.5 26.5t77.5 71.5l113 -129q-59 -75 -137.5 -116.5t-163.5 -41.5q-188 0 -291 143.5t-103 377.5zM131 1247q0 52 38 89.5t89 37.5 q54 0 90.5 -37t36.5 -90t-36.5 -89t-90.5 -36q-52 0 -89.5 36.5t-37.5 88.5zM279 582h278q0 243 -137 243q-40 0 -69 -22.5t-44 -60.5t-21.5 -77.5t-6.5 -82.5zM467 1247q0 53 36.5 90t88.5 37q53 0 91 -37.5t38 -89.5t-38 -88.5t-91 -36.5q-52 0 -88.5 36t-36.5 89z" />
<glyph unicode="&#x452;" horiz-adv-x="884" d="M33 1085v136h84v145h233v-145h236v-136h-236v-225q30 62 97.5 108t134.5 46q209 0 209 -223v-877q0 -160 -66 -237.5t-207 -77.5q-83 0 -129 49l53 178q17 -27 52 -27q65 0 65 115v793q0 102 -76 102q-41 0 -77.5 -38.5t-55.5 -90.5v-680h-233v1085h-84z" />
<glyph unicode="&#x453;" horiz-adv-x="638" d="M94 0v989h512v-201h-280v-788h-232zM258 1139l162 295h203l-217 -295h-148z" />
<glyph unicode="&#x454;" horiz-adv-x="704" d="M55 496q0 231 101 374.5t276 143.5q152 0 240 -88l-74 -164q-57 63 -127 63q-73 0 -118.5 -63t-59.5 -170h280v-184h-282q14 -111 60 -177.5t120 -66.5q69 0 127 61l74 -162q-81 -88 -240 -88q-175 0 -276 145t-101 376z" />
<glyph unicode="&#x455;" horiz-adv-x="708" d="M25 104l96 160q95 -106 205 -106q56 0 90.5 28.5t34.5 77.5q0 32 -21.5 58.5t-56 46t-76.5 39.5t-84 47.5t-76.5 62t-56 90t-21.5 125.5q0 119 84.5 200t231.5 81q171 0 291 -117l-95 -156q-32 38 -82.5 64t-107.5 26q-47 0 -77 -26.5t-30 -65.5q0 -30 22 -54.5t57 -44 t77 -40t84 -48.5t77 -63.5t57 -92t22 -126.5q0 -130 -91 -212.5t-233 -82.5q-212 0 -321 129z" />
<glyph unicode="&#x456;" horiz-adv-x="417" d="M68 1245q0 58 42 99.5t99 41.5q59 0 100 -41t41 -100q0 -58 -41 -98.5t-100 -40.5q-58 0 -99.5 40.5t-41.5 98.5zM94 0v989h232v-989h-232z" />
<glyph unicode="&#x457;" horiz-adv-x="417" d="M-86 1247q0 52 38 89.5t89 37.5q54 0 90.5 -37t36.5 -90t-36.5 -89t-90.5 -36q-52 0 -89.5 36.5t-37.5 88.5zM94 0v989h232v-989h-232zM250 1247q0 53 36.5 90t88.5 37q53 0 91 -37.5t38 -89.5t-38 -88.5t-91 -36.5t-89 36t-36 89z" />
<glyph unicode="&#x458;" horiz-adv-x="417" d="M-78 -352l53 178q17 -27 52 -27q67 0 67 115v1075h232v-1075q0 -159 -66.5 -237t-206.5 -78q-85 0 -131 49zM68 1245q0 58 42 99.5t99 41.5q59 0 100 -41t41 -100q0 -58 -41 -98.5t-100 -40.5q-58 0 -99.5 40.5t-41.5 98.5z" />
<glyph unicode="&#x459;" horiz-adv-x="1263" d="M33 -25v201q23 0 38.5 4.5t32 20.5t27.5 46t19.5 82t13.5 126l33 534h571v-352h94q174 0 264.5 -90.5t90.5 -229.5q0 -137 -90.5 -227t-264.5 -90h-327v788h-119l-21 -352q-7 -112 -26 -192.5t-48.5 -132.5t-73.5 -82.5t-94.5 -42t-119.5 -11.5zM768 184h70 q68 0 104.5 37t36.5 96q0 60 -36.5 98t-104.5 38h-70v-269z" />
<glyph unicode="&#x45a;" horiz-adv-x="1249" d="M94 0v989h232v-373h209v373h233v-373h94q175 0 265 -86t90 -223q0 -134 -90.5 -220.5t-264.5 -86.5h-327v416h-209v-416h-232zM768 184h78q65 0 99 32t34 87q0 56 -34.5 89.5t-98.5 33.5h-78v-242z" />
<glyph unicode="&#x45b;" horiz-adv-x="884" d="M33 1085v136h86v145h231v-145h234v-136h-234v-225q30 61 98 107.5t134 46.5q211 0 211 -223v-791h-234v709q0 100 -76 100q-41 0 -77.5 -38.5t-55.5 -90.5v-680h-231v1085h-86z" />
<glyph unicode="&#x45c;" horiz-adv-x="825" d="M94 0v989h232v-457l227 457h252l-236 -438l246 -551h-254l-145 395l-90 -164v-231h-232zM324 1139l161 295h203l-217 -295h-147z" />
<glyph unicode="&#x45e;" horiz-adv-x="778" d="M4 989h246l139 -696l143 696h244l-311 -1163q-35 -130 -97.5 -178.5t-174.5 -48.5q-71 0 -111 14l33 201q26 -11 47 -11q62 0 82 70l28 102zM135 1245l109 82q23 -35 63 -55.5t82 -20.5q43 0 83 20.5t63 55.5l108 -82q-43 -61 -110 -95t-144 -34q-76 0 -142.5 34 t-111.5 95z" />
<glyph unicode="&#x45f;" d="M94 0v989h232v-786h209v786h233v-989h-221v-258h-234v258h-219z" />
<glyph unicode="&#x490;" horiz-adv-x="770" d="M106 0v1366h340v252h259v-479h-340v-1139h-259z" />
<glyph unicode="&#x491;" horiz-adv-x="638" d="M94 0v989h281v258h231v-459h-280v-788h-232z" />
<glyph unicode="&#x2000;" horiz-adv-x="888" />
<glyph unicode="&#x2001;" horiz-adv-x="1776" />
<glyph unicode="&#x2002;" horiz-adv-x="888" />
<glyph unicode="&#x2003;" horiz-adv-x="1776" />
<glyph unicode="&#x2004;" horiz-adv-x="592" />
<glyph unicode="&#x2005;" horiz-adv-x="444" />
<glyph unicode="&#x2006;" horiz-adv-x="296" />
<glyph unicode="&#x2007;" horiz-adv-x="296" />
<glyph unicode="&#x2008;" horiz-adv-x="222" />
<glyph unicode="&#x2009;" horiz-adv-x="355" />
<glyph unicode="&#x200a;" horiz-adv-x="98" />
<glyph unicode="&#x2010;" horiz-adv-x="493" d="M61 397v197h371v-197h-371z" />
<glyph unicode="&#x2011;" horiz-adv-x="493" d="M61 397v197h371v-197h-371z" />
<glyph unicode="&#x2012;" horiz-adv-x="493" d="M61 397v197h371v-197h-371z" />
<glyph unicode="&#x2013;" horiz-adv-x="942" d="M61 397v197h820v-197h-820z" />
<glyph unicode="&#x2014;" horiz-adv-x="1310" d="M61 397v197h1188v-197h-1188z" />
<glyph unicode="&#x2018;" horiz-adv-x="514" d="M94 1030q0 106 53.5 199.5t145.5 156.5l102 -81q-51 -30 -96 -86t-55 -107q18 6 37 6q54 0 90.5 -38.5t36.5 -98.5t-44 -103.5t-104 -43.5q-69 0 -117.5 53t-48.5 143z" />
<glyph unicode="&#x2019;" horiz-adv-x="514" d="M104 1239q0 60 43.5 103.5t104.5 43.5q69 0 116.5 -53t47.5 -143q0 -106 -53.5 -199.5t-145.5 -156.5l-100 81q51 30 95 86t56 107q-18 -6 -37 -6q-54 0 -90.5 38.5t-36.5 98.5z" />
<glyph unicode="&#x201a;" horiz-adv-x="507" d="M102 131q0 62 43.5 106t104.5 44q69 0 117.5 -53.5t48.5 -143.5q0 -106 -53.5 -199.5t-145.5 -158.5l-102 81q51 30 96 86.5t55 108.5q-12 -6 -35 -6q-54 0 -91.5 38.5t-37.5 96.5z" />
<glyph unicode="&#x201c;" horiz-adv-x="905" d="M96 1030q0 106 54 199t145 157l102 -81q-51 -30 -95 -86t-56 -107q18 6 37 6q53 0 90 -39t37 -98q0 -60 -43.5 -103.5t-104.5 -43.5q-69 0 -117.5 53t-48.5 143zM487 1030q0 106 54 199t145 157l105 -81q-51 -30 -96.5 -86t-55.5 -107q18 6 35 6q54 0 90.5 -38.5 t36.5 -98.5t-43 -103.5t-103 -43.5q-70 0 -119 53t-49 143z" />
<glyph unicode="&#x201d;" horiz-adv-x="905" d="M104 1239q0 60 43.5 103.5t104.5 43.5q69 0 116.5 -53t47.5 -143q0 -106 -53.5 -199.5t-145.5 -156.5l-100 81q51 30 95 86t56 107q-18 -6 -37 -6q-54 0 -90.5 38.5t-36.5 98.5zM496 1239q0 60 43.5 103.5t103.5 43.5q69 0 117.5 -53t48.5 -143q0 -106 -54 -199 t-145 -157l-102 81q51 30 96 86t55 107q-18 -6 -36 -6q-54 0 -90.5 38.5t-36.5 98.5z" />
<glyph unicode="&#x201e;" horiz-adv-x="901" d="M102 131q0 62 43.5 106t104.5 44q69 0 117.5 -53.5t48.5 -143.5q0 -106 -53.5 -199.5t-145.5 -158.5l-102 81q51 30 96 86.5t55 108.5q-12 -6 -35 -6q-54 0 -91.5 38.5t-37.5 96.5zM496 131q0 62 43 106t104 44q69 0 117.5 -53.5t48.5 -143.5q0 -105 -54 -199t-145 -159 l-102 81q52 31 96 87t53 108q-12 -6 -34 -6q-54 0 -90.5 38.5t-36.5 96.5z" />
<glyph unicode="&#x2022;" horiz-adv-x="733" d="M131 496q0 98 70 167.5t168 69.5t167.5 -69.5t69.5 -167.5q0 -97 -69.5 -166.5t-167.5 -69.5t-168 69.5t-70 166.5z" />
<glyph unicode="&#x2026;" horiz-adv-x="1525" d="M102 129q0 61 45 106.5t107 45.5q63 0 107.5 -45t44.5 -107t-44.5 -107t-107.5 -45q-62 0 -107 45.5t-45 106.5zM612 129q0 62 44.5 107t105.5 45q63 0 107 -45t44 -107t-44 -107t-107 -45q-61 0 -105.5 45t-44.5 107zM1120 129q0 62 44.5 107t105.5 45q64 0 108.5 -45 t44.5 -107t-44.5 -107t-108.5 -45q-61 0 -105.5 45t-44.5 107z" />
<glyph unicode="&#x202f;" horiz-adv-x="355" />
<glyph unicode="&#x2039;" horiz-adv-x="487" d="M61 498l185 362h180l-184 -362l184 -369h-180z" />
<glyph unicode="&#x203a;" horiz-adv-x="487" d="M61 129l185 369l-185 362h181l184 -362l-184 -369h-181z" />
<glyph unicode="&#x205f;" horiz-adv-x="444" />
<glyph unicode="&#x20ac;" horiz-adv-x="911" d="M29 469v143h69v70v74h-69v147h84q32 227 135 356.5t278 129.5q64 0 116.5 -20.5t87 -50.5t63 -75.5t44.5 -85.5t31 -90l-204 -76q-24 86 -54.5 127t-83.5 41q-120 0 -153 -256h202v-147h-213v-74v-70h213v-143h-202q29 -264 153 -264q108 0 140 198l206 -75 q-13 -53 -29 -97t-44.5 -94t-64 -83.5t-89.5 -56t-119 -22.5q-176 0 -279.5 131.5t-135.5 362.5h-82z" />
<glyph unicode="&#x2122;" horiz-adv-x="765" d="M35 1313v53h229v-53h-86v-398h-57v398h-86zM338 915v451h88l90 -322l90 322h88v-451h-57v373l-113 -373h-16l-113 373v-373h-57z" />
<glyph unicode="&#x25fc;" horiz-adv-x="993" d="M0 0v993h993v-993h-993z" />
</font>
</defs>
</svg>
